<svg width="729" height="351" viewBox="0 0 729 351" fill="none" xmlns="http://www.w3.org/2000/svg">
<path d="M126.492 114.758C126.052 115.784 125.912 143.331 126.052 176.006L126.492 235.35H188.772C248.402 235.35 251.192 235.203 256.022 232.419C265.262 226.998 267.162 222.895 267.602 206.337C268.332 188.315 266.572 181.721 259.832 176.592L254.852 172.783L259.692 168.094C266.132 162.086 268.482 153.441 267.452 139.814C266.572 127.506 263.642 121.499 256.172 116.956C251.192 113.733 249.872 113.733 189.062 113.293C139.542 113 127.082 113.293 126.492 114.758ZM241.372 137.03C243.862 139.375 244.452 141.573 244.452 149.632C244.452 165.603 246.652 164.87 193.752 165.456L149.212 165.896V152.562C149.212 131.609 144.962 133.367 195.362 133.807C235.222 134.246 238.442 134.393 241.372 137.03ZM241.082 185.384C244.742 188.608 245.182 189.78 245.182 198.571C245.182 206.63 244.592 208.682 241.812 211.466C238.592 214.836 238.002 214.836 195.662 215.275C156.532 215.715 152.722 215.422 151.112 213.224C149.792 211.466 149.212 205.605 149.212 196.227V181.867H193.022H236.982L241.082 185.384Z" fill="white"/>
<path d="M320.643 115.051C305.403 119.154 297.353 128.092 294.423 144.357C293.543 149.192 292.803 162.819 292.803 174.541C292.803 208.975 296.763 222.016 309.363 229.342C319.623 235.203 328.123 236.082 376.913 236.082C422.333 236.082 422.773 236.082 427.753 232.712C435.373 227.584 436.553 222.162 436.113 191.538L435.673 165.017L395.813 164.577L355.813 164.284V173.076V181.867L384.823 182.161L413.693 182.6L414.133 195.934C414.713 215.862 417.063 214.836 369.883 214.836C336.033 214.836 331.053 214.543 326.943 212.198C318.013 207.363 316.983 203.26 316.983 174.541C316.983 132.928 313.463 134.979 384.243 134.979H436.403V123.989V113L381.893 113.147C343.653 113.147 325.193 113.733 320.643 115.051Z" fill="white"/>
<path d="M517.871 117.689C514.641 120.766 501.601 143.038 482.551 178.204C465.851 208.828 451.931 234.324 451.491 234.91C451.201 235.643 456.761 236.082 464.091 236.082H477.281L484.311 222.895L491.341 209.708H535.451H579.551L586.731 222.895L593.911 236.082H606.811H619.701L616.041 229.782C614.131 226.412 600.211 201.209 585.121 173.955C570.031 146.555 556.691 122.671 555.521 120.766C551.711 115.051 546.001 113 533.841 113C523.431 113 522.551 113.293 517.871 117.689ZM554.501 163.698C562.851 178.937 569.591 191.831 569.741 192.417C569.741 193.15 554.201 193.59 535.301 193.59C516.401 193.59 500.871 193.297 500.871 192.857C500.871 190.806 530.761 136.884 532.661 135.419C534.131 134.246 535.891 134.1 537.211 134.832C538.381 135.565 546.291 148.459 554.501 163.698Z" fill="white"/>
</svg>
