<svg width="228" height="70" viewBox="0 0 228 70" fill="none" xmlns="http://www.w3.org/2000/svg">
<path fill-rule="evenodd" clip-rule="evenodd" d="M30.3827 0.000547652C30.4539 0.0272514 31.237 0.463413 32.1181 0.970784C32.9991 1.47816 34.2184 2.18135 34.8324 2.5285C35.4465 2.88455 37.4221 4.02391 39.2376 5.06536C41.0531 6.10681 44.7375 8.2164 47.4251 9.75632C50.1216 11.3051 53.6191 13.3168 55.2121 14.2337C56.8051 15.1505 58.674 16.2186 60.6408 17.3491V52.509L59.466 53.1944C58.8164 53.5683 57.784 54.1647 57.17 54.5118C56.5559 54.8679 55.2744 55.6067 54.3222 56.1586C53.3699 56.7104 52.0083 57.5026 51.2964 57.9121C50.5844 58.3305 49.3296 59.0604 48.493 59.541C47.6565 60.0306 46.6598 60.6092 46.2682 60.8317C45.8766 61.0631 44.7731 61.704 43.8208 62.2559C42.8686 62.8078 41.6227 63.5288 41.062 63.8581C40.5014 64.1875 39.2554 64.9085 38.3032 65.4604C37.351 66.0122 36.0427 66.7689 35.4109 67.1338C34.779 67.4988 33.7734 68.0862 33.186 68.4245C32.5987 68.7627 31.7354 69.2523 31.2726 69.5193C30.8099 69.7775 30.4005 70 30.356 70C30.3204 70 28.6028 69.0209 26.5292 67.837C24.4646 66.6442 21.1362 64.7216 19.1249 63.5733C17.1136 62.4161 12.9754 60.0395 9.91401 58.2771C6.85261 56.5146 3.38183 54.5207 0.0356445 52.5981L0.0801417 17.4648L2.08251 16.3076C3.18604 15.6668 9.21096 12.1775 15.4762 8.53685C21.7414 4.90514 27.6328 1.48706 28.5583 0.944081C29.4839 0.401104 30.3115 -0.0172549 30.3827 0.000547652ZM22.9517 19.1293C20.9404 20.2954 17.9591 22.0311 16.3216 22.9836C14.6841 23.936 13.2513 24.7727 13.1356 24.835L12.9398 24.9597L12.9843 45.1121C18.2973 48.1563 22.0795 50.3282 24.8206 51.9038C27.5616 53.4704 29.9288 54.8323 30.089 54.9213C30.3115 55.0637 30.4005 55.0726 30.5785 54.9836C30.6853 54.9302 34.6099 52.6604 39.2821 49.9455L47.7811 45.0142V24.8439C42.744 21.951 39.3622 20.0106 37.0128 18.6576C34.6633 17.3135 32.2783 15.9427 31.7176 15.6133C31.1569 15.2929 30.6141 14.9814 30.5073 14.9279C30.3471 14.8389 30.0623 14.9725 28.4604 15.916C27.437 16.5213 24.9629 17.9633 22.9517 19.1293ZM211.842 21.5772H215.936L215.945 36.6648L216.488 36.0862C216.79 35.7658 218.072 34.4217 219.326 33.1043C220.581 31.778 221.783 30.5051 222.388 29.8465L225.084 29.8554C226.588 29.8554 227.763 29.891 227.754 29.9355C227.736 29.98 226.188 31.5822 224.301 33.5049C222.415 35.4275 220.875 37.0476 220.875 37.101C220.884 37.1544 221.258 37.7241 221.72 38.356C222.183 38.9969 222.975 40.0918 223.491 40.8039C223.999 41.516 224.969 42.8512 225.636 43.7858C226.304 44.7115 227.078 45.7886 227.354 46.1624C227.63 46.5452 227.861 46.8745 227.861 46.9012C227.861 46.928 226.731 46.9369 222.851 46.9012L220.466 43.5188C219.157 41.6584 218.054 40.1274 218.009 40.1096C217.974 40.0918 217.484 40.5547 215.927 42.1836L215.936 46.9458H211.842V21.5772ZM146.12 21.2478C146.44 21.2656 146.85 21.3725 147.143 21.506C147.41 21.6217 147.784 21.8798 147.971 22.0757C148.158 22.2626 148.398 22.6008 148.505 22.8234C148.647 23.126 148.692 23.393 148.701 23.8915C148.701 24.4345 148.656 24.6481 148.46 25.0487C148.336 25.3157 148.087 25.6718 147.909 25.8231C147.731 25.9833 147.419 26.2058 147.206 26.3127C146.903 26.4729 146.689 26.5174 146.075 26.5174C145.435 26.5174 145.248 26.4818 144.874 26.2859C144.625 26.1524 144.26 25.8587 144.046 25.6184C143.842 25.378 143.61 25.0042 143.539 24.7816C143.459 24.5591 143.405 24.1586 143.405 23.8915C143.405 23.6245 143.468 23.1972 143.557 22.9569C143.655 22.6453 143.859 22.3605 144.198 22.0222C144.536 21.684 144.838 21.4793 145.141 21.3725C145.426 21.2745 145.773 21.23 146.12 21.2478ZM184.743 21.2567C184.984 21.2745 185.402 21.3814 185.669 21.4971C185.98 21.6395 186.292 21.862 186.541 22.1558C186.755 22.3961 186.986 22.7789 187.066 23.0014C187.137 23.2239 187.191 23.6601 187.191 23.9805C187.191 24.39 187.128 24.6837 186.986 25.0042C186.87 25.2445 186.621 25.6006 186.425 25.7875C186.238 25.9744 185.9 26.2147 185.678 26.3216C185.366 26.4729 185.117 26.5174 184.565 26.5174C184.014 26.5174 183.764 26.4729 183.453 26.3216C183.23 26.2147 182.901 25.9744 182.705 25.7875C182.518 25.6006 182.269 25.2445 182.154 25.0042C182.002 24.6837 181.94 24.3989 181.94 23.9805C181.94 23.6601 181.993 23.2239 182.073 23.0014C182.145 22.7789 182.376 22.405 182.581 22.1647C182.794 21.9243 183.115 21.6573 183.293 21.5683C183.48 21.4704 183.782 21.3636 183.96 21.3101C184.147 21.2656 184.494 21.2389 184.743 21.2567ZM109.588 21.5772V31.2796L110.05 30.8879C110.308 30.6743 110.762 30.3449 111.056 30.1669C111.35 29.9978 111.91 29.7396 112.302 29.615C112.934 29.4014 113.156 29.3747 114.26 29.3747C115.292 29.3747 115.63 29.4103 116.218 29.5794C116.609 29.6862 117.17 29.9088 117.464 30.0601C117.766 30.2203 118.291 30.6298 118.683 31.0125C119.217 31.5377 119.439 31.8403 119.724 32.4367C119.92 32.8551 120.178 33.5138 120.285 33.9054C120.481 34.6086 120.481 34.7154 120.534 46.9458L116.574 46.9012L116.565 41.338C116.556 37.1099 116.529 35.6857 116.44 35.4186C116.378 35.2228 116.235 34.9024 116.129 34.7065C116.013 34.5107 115.746 34.1903 115.532 34.0033C115.328 33.8075 114.927 33.5494 114.66 33.4248C114.393 33.309 113.931 33.1933 113.637 33.1666C113.343 33.1399 112.845 33.1755 112.524 33.2378C112.204 33.2912 111.786 33.4248 111.59 33.5227C111.394 33.6206 111.074 33.8342 110.878 33.9855C110.682 34.1458 110.389 34.4751 110.228 34.7154C110.068 34.9558 109.872 35.3474 109.783 35.5967C109.659 35.9883 109.632 36.7182 109.543 46.9012H105.449L105.423 34.3505C105.414 27.4431 105.423 21.7463 105.449 21.684C105.476 21.6039 105.983 21.5772 109.588 21.5772ZM173.219 21.5772H177.401L177.357 46.9012L173.219 46.9458V21.5772ZM90.5606 21.6751C91.1925 21.6751 92.1536 21.7285 92.6965 21.8086C93.2483 21.8887 94.0403 22.049 94.4586 22.1736C94.8769 22.2893 95.4998 22.5118 95.838 22.6542C96.1762 22.8056 96.7724 23.1082 97.1551 23.3396C97.5378 23.5711 98.1608 24.025 98.5345 24.3455C98.9083 24.6659 99.4423 25.2089 99.7093 25.5471C99.9851 25.8854 100.306 26.3216 100.43 26.5174C100.555 26.7132 100.813 27.1672 100.991 27.5143C101.169 27.8704 101.427 28.5113 101.569 28.9385C101.721 29.3747 101.827 29.7307 101.818 29.7396C101.81 29.7485 100.92 30.0601 97.8849 31.0748L97.6446 30.3538C97.5111 29.9622 97.2441 29.3747 97.0661 29.0631C96.8792 28.7427 96.4877 28.2264 96.194 27.9149C95.9003 27.5944 95.4553 27.185 95.215 27.007C94.9659 26.8289 94.5298 26.553 94.2361 26.4106C93.9424 26.2592 93.3996 26.0456 93.0347 25.9299C92.4384 25.7341 92.207 25.7163 90.8543 25.7252C89.5906 25.7341 89.2257 25.7608 88.6295 25.9299C88.2379 26.0367 87.6327 26.2503 87.2945 26.4106C86.9475 26.5708 86.4313 26.8734 86.1376 27.0693C85.8439 27.2651 85.3812 27.6478 85.1142 27.906C84.8472 28.173 84.4378 28.6448 84.2064 28.9652C83.9751 29.2857 83.6458 29.8643 83.4678 30.2559C83.2898 30.6476 83.0406 31.3241 82.9249 31.7691C82.8092 32.2053 82.6668 33.0509 82.6224 33.6384C82.569 34.2259 82.5423 34.8846 82.569 35.1071C82.5957 35.3296 82.6401 35.7836 82.6757 36.1307C82.7024 36.469 82.827 37.1099 82.9427 37.5549C83.0673 37.9911 83.3432 38.7121 83.5568 39.1572C83.7793 39.5933 84.1709 40.2164 84.4289 40.5369C84.687 40.8573 85.1765 41.3469 85.5236 41.6317C85.8617 41.9165 86.4936 42.326 86.9386 42.5396C87.3746 42.7533 88.0421 43.0114 88.407 43.1182C88.7719 43.2161 89.4749 43.3408 89.9644 43.3853C90.5606 43.4476 91.1213 43.4476 91.6553 43.3942C92.0913 43.3408 92.741 43.2161 93.0792 43.1093C93.4174 43.0025 93.8979 42.8156 94.1471 42.691C94.3874 42.5752 94.8324 42.3082 95.126 42.1124C95.4197 41.9165 95.8825 41.5249 96.1495 41.2579C96.4165 40.9819 96.7813 40.5547 96.9504 40.3143C97.1106 40.0651 97.3776 39.6111 97.5378 39.2907C97.6891 38.9702 97.8582 38.5608 97.9205 38.3738C97.9739 38.1869 98.0718 38.0445 98.1519 38.0445C98.2231 38.0445 99.0952 38.3115 100.083 38.632C101.08 38.9524 101.899 39.2284 101.916 39.2373C101.934 39.2373 101.863 39.5221 101.747 39.8693C101.64 40.2075 101.409 40.795 101.24 41.1599C101.062 41.5249 100.679 42.1836 100.386 42.6287C100.092 43.0648 99.4868 43.7947 99.0418 44.2309C98.6057 44.6759 97.9027 45.2634 97.4844 45.5394C97.0661 45.8153 96.4432 46.1803 96.105 46.3494C95.7668 46.5185 95.1171 46.7766 94.6811 46.928C94.2361 47.0704 93.5953 47.2484 93.2572 47.3107C92.8389 47.3908 92.0112 47.4353 90.7208 47.4264C88.9943 47.4264 88.7096 47.3997 87.8285 47.195C87.2857 47.0704 86.4313 46.8033 85.9151 46.5986C85.399 46.3939 84.6781 46.0467 84.3132 45.8242C83.9484 45.6017 83.3699 45.2189 83.0317 44.9608C82.6846 44.7026 82.0973 44.1775 81.7057 43.7858C81.323 43.3942 80.7713 42.7355 80.4687 42.3171C80.175 41.8987 79.7211 41.1154 79.4631 40.5814C79.1961 40.0384 78.9024 39.3441 78.7956 39.0236C78.6977 38.7032 78.5286 38.0445 78.4218 37.5549C78.2527 36.7983 78.226 36.38 78.226 34.7065C78.226 33.22 78.2616 32.5435 78.3862 31.9026C78.4663 31.4398 78.671 30.6565 78.8312 30.1669C79.0003 29.6773 79.294 28.9563 79.4897 28.5647C79.6855 28.173 80.0949 27.4698 80.4064 27.007C80.7179 26.5441 81.3586 25.7786 81.8214 25.3157C82.2842 24.8439 82.9249 24.2832 83.2453 24.0606C83.5657 23.8381 84.1441 23.4643 84.5357 23.2417C84.9273 23.0103 85.6304 22.6809 86.0931 22.5029C86.5559 22.3249 87.2589 22.1113 87.6505 22.0133C88.0421 21.9243 88.6028 21.8086 88.8964 21.7641C89.1901 21.7196 89.9377 21.684 90.5606 21.6751ZM131.836 29.3302C132.059 29.3302 132.619 29.3658 133.082 29.4103C133.545 29.4637 134.168 29.5616 134.462 29.6328C134.755 29.7129 135.218 29.8554 135.485 29.9622C135.752 30.069 136.233 30.3182 136.553 30.5229C136.873 30.7366 137.318 31.0926 137.55 31.333C137.781 31.5733 138.11 32.0095 138.288 32.3032C138.457 32.5969 138.68 33.0776 138.778 33.3713C138.876 33.6651 138.991 34.128 139.045 34.395C139.098 34.6798 139.143 36.8606 139.143 39.6467C139.152 42.2637 139.187 44.8896 139.232 45.4771C139.267 46.0645 139.33 46.652 139.401 47.0348L135.627 46.9903L135.556 46.6787C135.521 46.5096 135.485 46.0645 135.449 45.032L134.782 45.6996C134.408 46.0645 133.883 46.5007 133.616 46.652C133.349 46.8122 132.824 47.0526 132.459 47.1772C131.952 47.3552 131.534 47.4264 130.724 47.4709C130.136 47.5065 129.398 47.4976 129.077 47.4531C128.757 47.4086 128.276 47.3018 128.009 47.2039C127.742 47.106 127.306 46.9012 127.039 46.741C126.772 46.5897 126.319 46.2159 126.016 45.9221C125.704 45.6106 125.331 45.121 125.144 44.7649C124.966 44.4178 124.752 43.9371 124.672 43.6968C124.601 43.4476 124.512 42.9313 124.485 42.5396C124.45 42.0679 124.476 41.6139 124.565 41.2044C124.637 40.8573 124.815 40.3232 124.966 40.0028C125.144 39.62 125.429 39.2284 125.793 38.8545C126.105 38.543 126.621 38.1424 126.942 37.9733C127.262 37.7953 127.823 37.5549 128.187 37.4392C128.552 37.3235 130.012 37.0565 131.436 36.8339C132.851 36.6114 134.186 36.38 134.39 36.3088C134.648 36.2197 134.835 36.0773 134.951 35.8815C135.049 35.7302 135.129 35.4364 135.129 35.2406C135.129 35.0448 135.067 34.662 134.978 34.395C134.862 34.0478 134.711 33.7986 134.417 33.5227C134.195 33.309 133.803 33.0509 133.527 32.9441C133.127 32.7928 132.842 32.7572 131.925 32.7483C130.822 32.7483 130.813 32.7483 130.243 33.0598C129.932 33.2289 129.505 33.5494 129.309 33.7808C129.104 34.0033 128.855 34.4128 128.739 34.6887C128.632 34.9647 128.543 35.3385 128.543 35.5076C128.543 35.8103 128.535 35.8192 128.25 35.7569C128.098 35.7302 127.244 35.5344 124.761 34.9647L124.797 34.6175C124.815 34.4217 124.93 33.9766 125.046 33.6384C125.171 33.2912 125.446 32.7572 125.651 32.4367C125.856 32.1163 126.283 31.6178 126.594 31.3152C126.906 31.0214 127.449 30.612 127.787 30.4072C128.125 30.2114 128.766 29.9177 129.211 29.7752C129.647 29.6239 130.332 29.4726 130.724 29.4281C131.115 29.3836 131.614 29.3391 131.836 29.3302ZM129.878 40.0028C129.754 40.0473 129.487 40.2609 129.273 40.4656C129.068 40.6793 128.828 40.9908 128.748 41.1599C128.668 41.3291 128.588 41.6495 128.561 41.872C128.543 42.0946 128.57 42.4328 128.615 42.6287C128.668 42.8245 128.828 43.1449 128.971 43.3408C129.113 43.5455 129.433 43.8036 129.709 43.9549C130.092 44.1597 130.341 44.222 130.902 44.2576C131.293 44.2754 131.836 44.2487 132.103 44.1953C132.37 44.1419 132.833 43.9816 133.127 43.8392C133.429 43.6879 133.856 43.3764 134.114 43.1004C134.364 42.8423 134.657 42.4595 134.755 42.2459C134.862 42.0412 135.013 41.6406 135.084 41.3558C135.182 41.0086 135.218 40.5903 135.191 40.0206L135.156 39.2017C134.684 39.2195 133.545 39.3797 132.326 39.5666C131.098 39.7535 130.003 39.9494 129.878 40.0028ZM161.979 29.3302C162.041 29.3302 162.459 29.3569 162.913 29.4103C163.367 29.4548 164.025 29.5794 164.364 29.6773C164.702 29.7841 165.271 30.0423 165.61 30.2559C165.948 30.4606 166.464 30.879 166.74 31.1816C167.087 31.5377 167.389 32.0006 167.656 32.5435C167.923 33.0954 168.119 33.6562 168.235 34.217C168.395 35.0092 168.413 35.4631 168.413 46.9458H164.319V41.5605C164.319 37.8665 164.284 36.0328 164.221 35.7035C164.159 35.4542 164.043 35.0715 163.954 34.8579C163.856 34.6531 163.607 34.2971 163.394 34.0567C163.18 33.8253 162.815 33.5494 162.575 33.4426C162.335 33.3357 161.872 33.2111 161.534 33.1577C161.124 33.0865 160.759 33.0865 160.377 33.1488C160.074 33.1933 159.62 33.3357 159.38 33.4604C159.131 33.5761 158.775 33.8075 158.588 33.9677C158.392 34.128 158.125 34.4217 157.992 34.6175C157.858 34.8134 157.671 35.1516 157.582 35.3741C157.431 35.7391 157.422 36.2197 157.333 46.9012L153.284 46.9458V29.8554L157.244 29.8999L157.289 31.9026L157.671 31.4309C157.876 31.1816 158.33 30.7544 158.668 30.4962C159.024 30.2292 159.585 29.9177 159.976 29.7663C160.359 29.615 160.937 29.4637 161.267 29.4192C161.605 29.3747 161.916 29.3391 161.979 29.3302ZM201.163 29.3925C201.581 29.4103 202.222 29.5082 202.587 29.6061C202.952 29.6951 203.512 29.8999 203.833 30.0601C204.218 30.25 204.634 30.5675 205.078 31.0125C205.523 31.4576 205.853 31.8878 206.066 32.3032C206.244 32.6414 206.476 33.1844 206.574 33.5049C206.68 33.8253 206.805 34.3416 206.858 34.662C206.912 35.0181 206.947 37.5371 206.947 46.9458H202.854L202.809 35.5076L202.569 35.0181C202.444 34.751 202.142 34.3327 201.901 34.1012C201.67 33.8609 201.252 33.5672 200.985 33.4426C200.682 33.3001 200.282 33.1933 199.917 33.1666C199.596 33.1488 199.098 33.1755 198.804 33.2289C198.511 33.2823 198.057 33.4426 197.79 33.5761C197.532 33.7096 197.122 34.03 196.882 34.2793C196.642 34.5374 196.339 34.9825 195.957 35.7747L195.912 46.9458L191.774 46.9012V29.8999H195.779L195.823 31.9026L196.295 31.3419C196.553 31.0392 197.069 30.5853 197.434 30.3449C197.808 30.0868 198.377 29.8019 198.76 29.6862C199.125 29.5616 199.65 29.437 199.917 29.4103C200.184 29.3747 200.744 29.3658 201.163 29.3925ZM144.028 29.8554H148.122V46.9458L144.028 46.9903V29.8554ZM182.563 29.8554L186.612 29.8999V46.9012L182.563 46.9458V29.8554Z" fill="white"/>
</svg>
