<svg width="150" height="47" viewBox="0 0 150 47" fill="none" xmlns="http://www.w3.org/2000/svg">
<g clip-path="url(#clip0_1616_1567)">
<path fill-rule="evenodd" clip-rule="evenodd" d="M19.9914 0.475458C20.0382 0.493025 20.5534 0.779957 21.133 1.11373C21.7126 1.44752 22.5147 1.91011 22.9186 2.13849C23.3226 2.37272 24.6223 3.12226 25.8166 3.80738C27.011 4.49251 29.4348 5.88031 31.2028 6.89336C32.9767 7.91224 35.2776 9.23565 36.3256 9.83884C37.3735 10.442 38.603 11.1446 39.8969 11.8883V35.0185L39.124 35.4694C38.6967 35.7154 38.0175 36.1077 37.6136 36.3361C37.2096 36.5703 36.3666 37.0564 35.7401 37.4194C35.1137 37.7824 34.2179 38.3036 33.7496 38.573C33.2812 38.8482 32.4557 39.3284 31.9054 39.6446C31.3551 39.9667 30.6994 40.3473 30.4418 40.4937C30.1841 40.6459 29.4582 41.0675 28.8317 41.4306C28.2053 41.7937 27.3857 42.268 27.0168 42.4846C26.648 42.7013 25.8283 43.1756 25.2019 43.5387C24.5755 43.9017 23.7148 44.3995 23.2992 44.6395C22.8835 44.8797 22.222 45.2661 21.8355 45.4886C21.4492 45.7111 20.8813 46.0332 20.5768 46.2089C20.2724 46.3787 20.0031 46.5251 19.9738 46.5251C19.9504 46.5251 18.8204 45.881 17.4563 45.1021C16.0981 44.3175 13.9085 43.0527 12.5853 42.2972C11.2622 41.536 8.53985 39.9725 6.5259 38.8131C4.51193 37.6536 2.22866 36.3419 0.0273438 35.0771L0.0566166 11.9644L1.37389 11.2032C2.09985 10.7816 6.06339 8.48615 10.185 6.09113C14.3066 3.70198 18.1823 1.45337 18.7912 1.09617C19.4001 0.738967 19.9445 0.463746 19.9914 0.475458ZM15.1028 13.0594C13.7797 13.8266 11.8184 14.9684 10.7412 15.595C9.66393 16.2216 8.72136 16.772 8.64524 16.813L8.51643 16.895L8.54571 30.1524C12.0409 32.1551 14.5291 33.5839 16.3323 34.6204C18.1355 35.651 19.6928 36.5469 19.7982 36.6055C19.9445 36.6991 20.0031 36.705 20.1202 36.6465C20.1904 36.6113 22.7723 35.1181 25.8459 33.3321L31.437 30.088V16.8188C28.1233 14.9157 25.8986 13.6392 24.353 12.7491C22.8074 11.8649 21.2384 10.9631 20.8695 10.7464C20.5007 10.5356 20.1436 10.3307 20.0733 10.2955C19.968 10.237 19.7806 10.3249 18.7268 10.9456C18.0535 11.3438 16.4259 12.2924 15.1028 13.0594ZM139.366 14.6698H142.059L142.065 24.5953L142.422 24.2147C142.621 24.0039 143.464 23.1197 144.289 22.253C145.115 21.3805 145.905 20.5431 146.303 20.1098L148.077 20.1157C149.066 20.1157 149.839 20.1391 149.833 20.1684C149.822 20.1977 148.803 21.2517 147.562 22.5165C146.321 23.7813 145.308 24.8471 145.308 24.8823C145.314 24.9174 145.56 25.2922 145.864 25.7079C146.169 26.1295 146.69 26.8498 147.029 27.3182C147.363 27.7867 148.001 28.6651 148.44 29.2799C148.88 29.8889 149.389 30.5975 149.57 30.8434C149.752 31.0952 149.904 31.3118 149.904 31.3294C149.904 31.347 149.16 31.3529 146.608 31.3294L145.039 29.1042C144.178 27.8804 143.452 26.8732 143.423 26.8615C143.4 26.8498 143.077 27.1543 142.053 28.2259L142.059 31.3587H139.366V14.6698ZM96.13 14.4531C96.3405 14.4648 96.6102 14.5351 96.803 14.623C96.9786 14.6991 97.2246 14.8689 97.3477 14.9978C97.4707 15.1207 97.6286 15.3432 97.699 15.4896C97.7924 15.6887 97.822 15.8643 97.8279 16.1923C97.8279 16.5495 97.7983 16.69 97.6694 16.9536C97.5878 17.1292 97.424 17.3635 97.3069 17.463C97.1898 17.5684 96.9845 17.7148 96.8444 17.7851C96.6451 17.8905 96.5043 17.9198 96.1004 17.9198C95.6793 17.9198 95.5563 17.8963 95.3103 17.7675C95.1465 17.6796 94.9064 17.4864 94.7656 17.3283C94.6314 17.1702 94.4788 16.9243 94.4321 16.7779C94.3794 16.6315 94.3439 16.368 94.3439 16.1923C94.3439 16.0166 94.3853 15.7355 94.4439 15.5775C94.5084 15.3725 94.6426 15.1851 94.8656 14.9626C95.0879 14.7401 95.2866 14.6054 95.4859 14.5351C95.6734 14.4707 95.9017 14.4414 96.13 14.4531ZM121.538 14.459C121.697 14.4707 121.972 14.541 122.148 14.6171C122.352 14.7108 122.557 14.8572 122.721 15.0504C122.862 15.2085 123.014 15.4604 123.067 15.6067C123.113 15.7531 123.149 16.0401 123.149 16.2508C123.149 16.5202 123.107 16.7134 123.014 16.9243C122.938 17.0824 122.774 17.3166 122.645 17.4396C122.522 17.5625 122.3 17.7206 122.153 17.7909C121.948 17.8905 121.784 17.9198 121.421 17.9198C121.059 17.9198 120.894 17.8905 120.69 17.7909C120.543 17.7206 120.327 17.5625 120.198 17.4396C120.075 17.3166 119.911 17.0824 119.835 16.9243C119.735 16.7134 119.694 16.5261 119.694 16.2508C119.694 16.0401 119.729 15.7531 119.782 15.6067C119.829 15.4604 119.981 15.2144 120.116 15.0563C120.256 14.8982 120.467 14.7225 120.585 14.664C120.708 14.5996 120.906 14.5293 121.023 14.4941C121.146 14.4648 121.375 14.4473 121.538 14.459ZM72.0971 14.6698V21.0526L72.4011 20.7949C72.5708 20.6544 72.8695 20.4377 73.0629 20.3206C73.2563 20.2094 73.6247 20.0395 73.8826 19.9575C74.2983 19.817 74.4444 19.7995 75.1707 19.7995C75.8496 19.7995 76.0719 19.8229 76.4587 19.9341C76.716 20.0044 77.085 20.1508 77.2784 20.2503C77.4771 20.3557 77.8225 20.6251 78.0804 20.8769C78.4316 21.2224 78.5777 21.4215 78.7652 21.8138C78.8941 22.0891 79.0639 22.5224 79.1342 22.78C79.2632 23.2426 79.2632 23.3129 79.298 31.3587L76.6929 31.3294L76.687 27.6696C76.6811 24.8881 76.6633 23.9512 76.6048 23.7755C76.564 23.6467 76.4699 23.4359 76.4002 23.307C76.3239 23.1782 76.1482 22.9674 76.0074 22.8444C75.8732 22.7156 75.6094 22.5458 75.4338 22.4638C75.2581 22.3877 74.9542 22.3115 74.7608 22.294C74.5674 22.2764 74.2398 22.2998 74.0286 22.3408C73.8181 22.376 73.5431 22.4638 73.4142 22.5282C73.2852 22.5926 73.0747 22.7332 72.9458 22.8327C72.8168 22.9382 72.6241 23.1548 72.5182 23.3129C72.4129 23.471 72.284 23.7286 72.2254 23.8926C72.1438 24.1503 72.1261 24.6304 72.0675 31.3294H69.3743L69.3572 23.0728C69.3512 18.5287 69.3572 14.7811 69.3743 14.7401C69.392 14.6874 69.7256 14.6698 72.0971 14.6698ZM113.957 14.6698H116.708L116.679 31.3294L113.957 31.3587V14.6698ZM59.5798 14.7342C59.9955 14.7342 60.6278 14.7693 60.9849 14.822C61.348 14.8747 61.869 14.9802 62.1442 15.0622C62.4193 15.1383 62.8291 15.2846 63.0516 15.3783C63.2741 15.4779 63.6663 15.677 63.9181 15.8292C64.1698 15.9815 64.5797 16.2801 64.8255 16.491C65.0714 16.7017 65.4227 17.059 65.5984 17.2814C65.7798 17.504 65.9909 17.791 66.0725 17.9198C66.1547 18.0486 66.3244 18.3472 66.4415 18.5756C66.5586 18.8098 66.7284 19.2315 66.8218 19.5125C66.9218 19.7995 66.9915 20.0336 66.9856 20.0395C66.9803 20.0454 66.3948 20.2503 64.3982 20.9179L64.2401 20.4436C64.1523 20.1859 63.9766 19.7995 63.8595 19.5945C63.7366 19.3837 63.479 19.044 63.2858 18.8391C63.0926 18.6283 62.7998 18.3589 62.6418 18.2418C62.4779 18.1247 62.191 17.9432 61.9978 17.8495C61.8046 17.7499 61.4475 17.6094 61.2074 17.5333C60.8152 17.4045 60.6629 17.3927 59.773 17.3986C58.9417 17.4045 58.7017 17.422 58.3094 17.5333C58.0518 17.6035 57.6537 17.744 57.4312 17.8495C57.2029 17.9549 56.8633 18.154 56.6701 18.2828C56.4769 18.4116 56.1725 18.6634 55.9969 18.8333C55.8212 19.0089 55.5519 19.3193 55.3997 19.5301C55.2475 19.7409 55.0309 20.1215 54.9138 20.3792C54.7967 20.6368 54.6327 21.0819 54.5566 21.3746C54.4805 21.6616 54.3868 22.2179 54.3576 22.6044C54.3225 22.9909 54.3049 23.4242 54.3225 23.5706C54.3401 23.7169 54.3693 24.0156 54.3927 24.2439C54.4103 24.4665 54.4922 24.8881 54.5683 25.1809C54.6503 25.4678 54.8318 25.9421 54.9723 26.2349C55.1187 26.5218 55.3763 26.9317 55.546 27.1426C55.7158 27.3534 56.0379 27.6754 56.2662 27.8628C56.4886 28.0502 56.9043 28.3196 57.1971 28.4601C57.4839 28.6007 57.923 28.7705 58.1631 28.8407C58.4031 28.9051 58.8656 28.9872 59.1876 29.0164C59.5798 29.0574 59.9487 29.0574 60.3 29.0223C60.5868 28.9872 61.0142 28.9051 61.2367 28.8349C61.4592 28.7646 61.7753 28.6416 61.9392 28.5597C62.0973 28.4835 62.3901 28.3078 62.5832 28.179C62.7764 28.0502 63.0809 27.7925 63.2565 27.6169C63.4322 27.4353 63.6722 27.1543 63.7834 26.9961C63.8888 26.8322 64.0644 26.5335 64.1698 26.3228C64.2694 26.1119 64.3806 25.8426 64.4216 25.7196C64.4567 25.5966 64.5211 25.5029 64.5738 25.5029C64.6207 25.5029 65.1944 25.6786 65.8442 25.8894C66.5001 26.1002 67.0389 26.2818 67.0501 26.2876C67.0619 26.2876 67.0152 26.475 66.9389 26.7034C66.8685 26.9259 66.7165 27.3124 66.6053 27.5524C66.4883 27.7925 66.2363 28.2259 66.0435 28.5187C65.8501 28.8056 65.452 29.2858 65.1592 29.5727C64.8724 29.8655 64.4099 30.2519 64.1347 30.4335C63.8595 30.615 63.4497 30.8551 63.2273 30.9664C63.0048 31.0776 62.5774 31.2474 62.2905 31.347C61.9978 31.4407 61.5762 31.5578 61.3538 31.5988C61.0786 31.6515 60.5341 31.6807 59.6852 31.6749C58.5494 31.6749 58.3621 31.6573 57.7825 31.5227C57.4254 31.4407 56.8633 31.265 56.5238 31.1303C56.1842 30.9957 55.71 30.7672 55.4699 30.6209C55.2299 30.4745 54.8494 30.2227 54.6269 30.0529C54.3985 29.883 54.0122 29.5376 53.7546 29.2799C53.5028 29.0223 53.1399 28.589 52.9408 28.3137C52.7476 28.0385 52.449 27.5232 52.2793 27.1719C52.1036 26.8146 51.9104 26.3579 51.8401 26.1471C51.7757 25.9363 51.6645 25.5029 51.5942 25.1809C51.483 24.6831 51.4654 24.4079 51.4654 23.307C51.4654 22.3291 51.4888 21.8841 51.5708 21.4625C51.6235 21.158 51.7582 20.6427 51.8636 20.3206C51.9748 19.9985 52.168 19.5242 52.2968 19.2666C52.4256 19.0089 52.6949 18.5463 52.8998 18.2418C53.1047 17.9373 53.5262 17.4337 53.8307 17.1292C54.1351 16.8188 54.5566 16.45 54.7674 16.3035C54.9782 16.1572 55.3587 15.9113 55.6163 15.7648C55.8739 15.6126 56.3365 15.3959 56.6409 15.2788C56.9453 15.1617 57.4078 15.0212 57.6654 14.9567C57.923 14.8982 58.2919 14.822 58.485 14.7928C58.6782 14.7635 59.1701 14.7401 59.5798 14.7342ZM86.7331 19.7702C86.8798 19.7702 87.2482 19.7936 87.5528 19.8229C87.8574 19.858 88.2673 19.9224 88.4607 19.9692C88.6534 20.0219 88.958 20.1157 89.1337 20.1859C89.3093 20.2562 89.6257 20.4201 89.8363 20.5548C90.0468 20.6954 90.3395 20.9296 90.4921 21.0877C90.6441 21.2458 90.8605 21.5328 90.9776 21.726C91.0888 21.9192 91.2355 22.2354 91.3 22.4286C91.3645 22.6219 91.4401 22.9264 91.4756 23.1021C91.5105 23.2895 91.5401 24.7241 91.5401 26.557C91.546 28.2786 91.5691 30.006 91.5987 30.3925C91.6217 30.779 91.6631 31.1654 91.7098 31.4173L89.2271 31.388L89.1804 31.183C89.1573 31.0718 89.1337 30.779 89.11 30.0997L88.6712 30.5389C88.4252 30.779 88.0798 31.0659 87.9041 31.1654C87.7285 31.2708 87.3831 31.429 87.143 31.511C86.8095 31.6281 86.5345 31.6749 86.0016 31.7042C85.6148 31.7276 85.1293 31.7217 84.9181 31.6925C84.7076 31.6632 84.3912 31.5929 84.2155 31.5285C84.0399 31.4641 83.7531 31.3294 83.5774 31.224C83.4018 31.1245 83.1037 30.8786 82.9044 30.6853C82.6992 30.4804 82.4538 30.1583 82.3308 29.924C82.2137 29.6957 82.0729 29.3794 82.0203 29.2213C81.9735 29.0574 81.915 28.7178 81.8972 28.4601C81.8742 28.1498 81.8913 27.8511 81.9499 27.5817C81.9972 27.3534 82.1143 27.002 82.2137 26.7912C82.3308 26.5394 82.5183 26.2818 82.7577 26.0358C82.963 25.8309 83.3024 25.5673 83.5136 25.4561C83.7241 25.339 84.0932 25.1809 84.3326 25.1047C84.5727 25.0286 85.5332 24.853 86.47 24.7065C87.4009 24.5602 88.2791 24.4079 88.4133 24.3611C88.583 24.3025 88.7061 24.2088 88.7824 24.08C88.8468 23.9805 88.8995 23.7872 88.8995 23.6584C88.8995 23.5296 88.8587 23.2777 88.8001 23.1021C88.7238 22.8737 88.6245 22.7097 88.4311 22.5282C88.285 22.3877 88.0271 22.2179 87.8456 22.1476C87.5824 22.0481 87.395 22.0247 86.7917 22.0188C86.0661 22.0188 86.0602 22.0188 85.6852 22.2237C85.4806 22.335 85.1997 22.5458 85.0707 22.698C84.9359 22.8444 84.7721 23.1138 84.6958 23.2953C84.6254 23.4769 84.5668 23.7228 84.5668 23.834C84.5668 24.0332 84.5616 24.039 84.3741 23.998C84.2741 23.9805 83.7123 23.8517 82.0788 23.4769L82.1025 23.2485C82.1143 23.1197 82.19 22.8268 82.2663 22.6044C82.3485 22.376 82.5294 22.0247 82.6643 21.8138C82.7992 21.603 83.0801 21.2751 83.2847 21.076C83.4899 20.8827 83.8471 20.6134 84.0695 20.4787C84.2918 20.3499 84.7135 20.1567 85.0063 20.0629C85.2931 19.9634 85.7437 19.8639 86.0016 19.8346C86.2588 19.8053 86.5871 19.776 86.7331 19.7702ZM85.4451 26.7912C85.3635 26.8205 85.1878 26.961 85.0471 27.0957C84.9122 27.2363 84.7543 27.4412 84.7017 27.5524C84.6491 27.6637 84.5964 27.8745 84.5787 28.0209C84.5668 28.1673 84.5846 28.3898 84.6142 28.5187C84.6491 28.6475 84.7543 28.8583 84.8484 28.9872C84.9418 29.1218 85.1523 29.2916 85.3339 29.3911C85.5858 29.5259 85.7496 29.5669 86.1187 29.5903C86.3759 29.602 86.7331 29.5844 86.9088 29.5493C87.0844 29.5142 87.389 29.4087 87.5824 29.315C87.7811 29.2155 88.062 29.0106 88.2317 28.829C88.3962 28.6592 88.589 28.4074 88.6534 28.2669C88.7238 28.1322 88.8232 27.8687 88.8699 27.6813C88.9343 27.4529 88.958 27.1777 88.9403 26.8029L88.9172 26.2642C88.6067 26.2759 87.8574 26.3813 87.0555 26.5043C86.2477 26.6272 85.5273 26.7561 85.4451 26.7912ZM106.563 19.7702C106.604 19.7702 106.879 19.7877 107.177 19.8229C107.476 19.8521 107.909 19.9341 108.132 19.9985C108.354 20.0688 108.729 20.2386 108.952 20.3792C109.174 20.5138 109.513 20.7891 109.695 20.9881C109.923 21.2224 110.122 21.5269 110.298 21.8841C110.473 22.2471 110.602 22.6161 110.678 22.985C110.784 23.5061 110.796 23.8048 110.796 31.3587H108.102V27.816C108.102 25.3858 108.079 24.1795 108.038 23.9629C107.997 23.7989 107.921 23.5471 107.862 23.4066C107.798 23.2719 107.634 23.0377 107.494 22.8795C107.353 22.7273 107.113 22.5458 106.955 22.4755C106.797 22.4052 106.493 22.3233 106.27 22.2881C106 22.2413 105.76 22.2413 105.509 22.2823C105.31 22.3115 105.011 22.4052 104.853 22.4873C104.689 22.5634 104.455 22.7156 104.332 22.821C104.203 22.9264 104.028 23.1197 103.94 23.2485C103.852 23.3773 103.729 23.5998 103.67 23.7462C103.571 23.9863 103.565 24.3025 103.507 31.3294L100.843 31.3587V20.1157L103.448 20.145L103.478 21.4625L103.729 21.1521C103.864 20.9881 104.162 20.7071 104.385 20.5372C104.619 20.3616 104.988 20.1567 105.245 20.0571C105.497 19.9575 105.877 19.858 106.095 19.8287C106.317 19.7995 106.521 19.776 106.563 19.7702ZM132.34 19.8112C132.615 19.8229 133.037 19.8873 133.277 19.9517C133.517 20.0102 133.886 20.145 134.097 20.2503C134.35 20.3753 134.624 20.5841 134.916 20.8769C135.209 21.1697 135.426 21.4527 135.566 21.726C135.683 21.9485 135.836 22.3057 135.9 22.5165C135.97 22.7273 136.052 23.067 136.087 23.2777C136.122 23.512 136.145 25.1691 136.145 31.3587H133.453L133.423 23.834L133.265 23.512C133.183 23.3363 132.984 23.0611 132.826 22.9088C132.674 22.7507 132.399 22.5575 132.223 22.4755C132.024 22.3818 131.761 22.3115 131.521 22.294C131.31 22.2823 130.982 22.2998 130.789 22.335C130.596 22.3701 130.297 22.4755 130.121 22.5634C129.952 22.6512 129.682 22.862 129.524 23.026C129.366 23.1958 129.167 23.4886 128.916 24.0097L128.886 31.3587L126.164 31.3294V20.145H128.799L128.827 21.4625L129.138 21.0936C129.308 20.8945 129.647 20.5959 129.887 20.4377C130.133 20.2679 130.508 20.0805 130.76 20.0044C131 19.9224 131.345 19.8404 131.521 19.8229C131.696 19.7995 132.065 19.7936 132.34 19.8112ZM94.7537 20.1157H97.447V31.3587L94.7537 31.388V20.1157ZM120.104 20.1157L122.768 20.145V31.3294L120.104 31.3587V20.1157Z" fill="white"/>
</g>
<defs>
<clipPath id="clip0_1616_1567">
<rect width="149.991" height="46.05" fill="white" transform="translate(0.00390625 0.475098)"/>
</clipPath>
</defs>
</svg>
