<svg width="237" height="70" viewBox="0 0 237 70" fill="none" xmlns="http://www.w3.org/2000/svg">
<path fill-rule="evenodd" clip-rule="evenodd" d="M236.036 0H0.581055V70H236.036V0ZM162.854 26.3637L169.217 22.2728C167.399 19.697 162.49 14.5455 157.399 14.5455C151.036 14.5455 144.672 20.4546 144.672 26.3637C144.672 32.2728 147.854 39.091 153.763 39.091C159.672 39.091 162.854 41.3637 162.854 44.091C162.854 46.8182 160.127 48.6364 157.399 48.6364C155.217 48.6364 152.551 45.9091 151.49 44.5455L145.581 48.6364C147.248 51.0607 151.945 55.9091 157.399 55.9091C164.217 55.9091 170.581 50.0001 170.581 44.5455C170.581 39.091 166.945 32.7273 162.854 32.7273C162.55 32.7273 162.231 32.7298 161.902 32.7324C157.788 32.7648 151.945 32.8107 151.945 28.1819C151.945 23.1819 158.308 21.3637 162.854 26.3637ZM77.3993 15.4544V53.6363H84.672V15.4544H77.3993ZM88.3084 15.4544L98.7629 53.6363H106.945L117.399 15.4544H109.672L103.308 40.4546L96.0357 15.4544H88.3084ZM121.036 53.6363V15.4544H141.036V22.7273H127.854V31.3637H137.854V38.6364H127.854V46.8182H141.036V53.6363H121.036ZM173.763 53.6363V15.4544H193.308V23.6364H181.49V31.3637H190.581V39.091H181.49V53.6363H173.763ZM196.945 15.4544V53.6363H204.672V33.6364L215.127 53.6363H222.399V15.4544H215.127V36.8182L204.672 15.4544H196.945ZM16.9448 15.4544V53.6363H32.8538C36.3387 52.8787 43.3084 49.909 43.3084 44.0908V25.909C42.3993 22.7272 39.0357 16.1817 32.8538 15.4544C26.672 14.7272 19.672 15.1514 16.9448 15.4544ZM24.672 46.3637V23.1819H32.8538C35.0357 23.1819 35.5811 25.9091 35.5811 27.2728V43.1819C35.5811 45.0001 33.7629 46.0607 32.8538 46.3637H24.672ZM46.9448 53.6363V15.4544H65.5811C67.3993 15.4544 72.8538 21.3637 72.8538 28.1819C72.8538 33.6364 68.0054 37.1213 65.5811 38.1819L71.9447 53.6363H63.7629L57.8538 38.1819H54.672V53.6363H46.9448ZM54.672 23.1819V30.9091H62.8538C63.7629 30.6061 65.5811 29.4546 65.5811 27.2728C65.5811 25.091 63.7629 23.6364 62.8538 23.1819H54.672Z" fill="white"/>
</svg>
