<svg width="314" height="70" viewBox="0 0 314 70" fill="none" xmlns="http://www.w3.org/2000/svg">
<path d="M41.4286 0.471285C40.8503 0.182304 37.9587 -0.0488804 35.0672 0.0089157C32.1177 0.0089157 28.243 0.413488 26.5081 0.875857C24.7731 1.33823 21.5346 2.72533 19.2791 3.88125C16.6767 5.21057 13.6695 7.52241 10.8357 10.3544C7.71283 13.4176 5.80439 15.9028 4.30077 18.8504C3.14414 21.1623 1.81401 24.5723 1.35136 26.3639C0.888708 28.2134 0.483887 31.8546 0.483887 34.4554C0.483887 37.1718 0.888708 40.5818 1.40919 42.2579C1.87184 43.934 3.02848 46.9972 3.83812 49.02C4.82125 51.2741 5.97788 53.0657 6.84536 53.5859C7.88633 54.2217 9.10079 54.3951 11.1827 54.1639C12.802 53.9327 14.2478 53.4703 14.4791 53.0079C14.7105 52.6034 14.9418 47.6907 14.9418 42.1423C14.8839 33.1839 14.9996 31.9124 15.9249 31.0454C16.6767 30.2941 17.949 30.0051 20.6093 30.0051C23.8478 30.0051 24.3105 30.1785 25.3515 31.6234C26.4503 33.0105 26.5659 33.993 26.5081 42.2579C26.5081 49.1934 26.6816 51.3897 27.2599 51.3897C27.6069 51.3897 28.3587 51.1007 28.8213 50.8117C29.5153 50.3493 29.7467 48.0953 29.8623 37.403C30.0358 26.2483 30.2093 24.3989 31.0189 23.4741C31.7708 22.7228 32.8696 22.4338 35.472 22.4338C38.0166 22.4338 39.1732 22.7228 39.925 23.4741C40.7925 24.3989 40.966 25.9016 40.966 35.6113C40.966 42.6624 41.1973 46.766 41.5443 46.766C41.8335 46.766 42.6431 46.477 43.2792 46.188C44.378 45.61 44.4359 45.0321 44.4359 31.5656C44.378 17.7523 44.4359 17.5789 45.7082 16.3074C46.7491 15.2671 47.7323 14.9781 50.3925 14.9781C52.9371 14.9781 53.9781 15.2671 54.8456 16.134C55.9443 17.2322 56.0022 18.0413 56.0022 27.9822C56.0022 34.7444 56.2335 38.6745 56.5805 38.6745C56.8697 38.6745 59.4142 36.5361 62.1323 33.8774C64.9082 31.2766 67.5107 28.4446 67.9155 27.5777C68.3781 26.6529 68.7251 25.4392 68.7251 24.8034C68.7251 24.1677 67.6263 21.5091 66.2962 18.9082C64.6191 15.6139 62.595 12.8974 60.0504 10.3544C57.9685 8.27376 54.7299 5.78853 52.8214 4.80599C50.913 3.76566 47.7901 2.49415 45.8817 1.97398C43.9732 1.45382 41.9491 0.760265 41.4286 0.471285Z" fill="white"/>
<path d="M70.2287 35.3225L69.9395 33.3574L67.1636 36.9408C65.66 38.9058 62.7105 41.969 60.6286 43.7607C58.5467 45.5524 54.672 48.3844 51.9539 50.1761C49.2358 51.91 44.9563 54.3374 42.4117 55.4933C39.8671 56.6493 35.4719 58.3831 32.5803 59.3079C29.7466 60.2904 25.0622 61.5619 22.1706 62.1399C19.3369 62.7178 16.7923 63.2958 16.5031 63.4692C16.2718 63.6426 17.3128 64.5095 18.8164 65.3187C20.3778 66.1856 22.8068 67.2837 24.3682 67.8039C25.8718 68.3241 28.8213 69.0176 31.0189 69.3644C33.1586 69.7112 35.2984 70.0002 35.761 70.0002C36.2237 69.9424 38.8261 69.5378 41.5442 69.0754C44.8406 68.4975 48.0792 67.3993 51.3756 65.781C54.9611 63.9894 57.3322 62.3133 60.1081 59.5391C62.884 56.7648 64.5612 54.3952 66.3539 50.8118C67.6841 48.0954 69.1299 43.9341 69.6503 41.5645C70.113 39.1948 70.4021 36.3628 70.2287 35.3225Z" fill="white"/>
<path fill-rule="evenodd" clip-rule="evenodd" d="M139.569 17.579L139.395 22.665C139.337 25.4392 139.395 27.6933 139.569 27.6933C139.742 27.6933 140.841 27.1153 142.056 26.4218C143.386 25.6704 145.178 25.2081 146.798 25.1503C148.243 25.1503 150.383 25.6704 151.598 26.3062C152.928 26.9419 154.142 28.1557 154.663 29.3116C155.183 30.5253 155.472 33.2417 155.472 37.5186C155.472 40.9864 155.704 44.512 156.051 45.3211C156.456 46.4192 157.092 46.8238 158.537 46.9394C159.752 46.9972 160.388 47.344 160.388 47.9219C160.388 48.6155 159.289 48.7889 154.027 48.7889C148.417 48.7889 147.665 48.6733 147.549 47.8063C147.434 46.9972 147.781 46.766 149.284 46.766C150.325 46.766 151.482 46.4192 151.887 46.0725C152.35 45.5523 152.581 43.2404 152.581 39.1369C152.581 34.86 152.292 32.2592 151.713 30.8721C151.251 29.774 150.325 28.5602 149.689 28.2713C149.053 27.9823 147.492 27.6933 146.162 27.6933C144.253 27.6933 143.443 28.0401 141.94 29.6006C140.089 31.3922 140.031 31.6234 139.684 37.981C139.453 41.9111 139.511 44.9165 139.858 45.6101C140.263 46.4192 141.015 46.766 142.46 46.766C144.08 46.766 144.484 46.9972 144.484 47.9219C144.484 49.0201 144.08 49.0779 137.834 49.0779C131.588 49.0779 131.183 49.0201 131.183 47.9219C131.183 46.9972 131.588 46.766 133.092 46.766C134.133 46.766 135.289 46.4192 135.694 46.0725C136.215 45.5523 136.388 41.9689 136.388 33.4729C136.388 24.8613 136.215 21.3357 135.694 20.5266C135.231 19.833 134.537 19.544 133.786 19.7752C133.149 19.8908 132.224 19.833 131.761 19.6018C131.183 19.3129 131.068 18.7927 131.357 18.1569C131.704 17.4056 132.513 17.29 139.569 17.579ZM94.0553 17.9258C105.39 17.9258 107.357 18.0413 107.414 18.7349C107.414 19.1973 107.472 21.7981 107.472 24.5145C107.472 27.2309 107.472 29.7162 107.472 30.0051C107.472 30.2941 106.952 30.5831 106.316 30.5831C105.564 30.5831 105.043 30.1207 104.87 29.3116C104.696 28.5602 104.581 26.8264 104.581 25.3814C104.581 23.7054 104.176 22.4338 103.54 21.7403C102.73 20.9311 101.573 20.7 97.236 20.7578C92.3204 20.7578 91.7999 20.8734 90.9902 22.0871C90.5276 22.7806 90.1228 24.5723 90.1228 26.1328C90.1228 27.6355 90.3541 29.3694 90.7011 30.0051C91.1059 30.8143 91.8577 31.1611 93.3035 31.1611C94.4023 31.1611 95.8481 30.8721 96.4842 30.5831C97.4095 30.1207 97.6409 29.4272 97.6409 27.1153C97.6409 24.6301 97.8144 24.2255 98.7975 24.2255C99.4337 24.2255 99.9541 24.5145 99.9541 24.8035C99.9541 25.0925 99.9541 28.6758 100.012 32.7794C100.012 36.8251 99.8385 40.3506 99.5493 40.6396C99.318 40.8708 98.7397 40.9286 98.3927 40.7552C97.93 40.5818 97.6409 39.3681 97.6409 37.981C97.6409 36.5939 97.3517 35.149 96.9469 34.7444C96.5421 34.3398 95.1541 34.0509 93.8818 33.9931C92.436 33.9931 91.2216 34.3398 90.7011 34.9756C90.0071 35.727 89.8914 36.8251 90.2963 40.6396C90.5854 43.9918 90.9902 45.5523 91.7421 46.0725C92.436 46.6504 94.2288 46.8238 98.0457 46.6504C102.21 46.5348 103.598 46.2458 104.407 45.4367C105.159 44.6853 105.448 43.4716 105.506 41.102C105.506 39.3103 105.564 37.4608 105.622 37.0563C105.679 36.7095 106.258 36.3627 106.894 36.3627C107.646 36.3627 108.108 36.8251 108.224 37.692C108.34 38.3856 108.34 40.813 108.282 43.0093C108.224 45.2055 108.166 47.5174 108.108 48.0953C108.051 49.0201 107.01 49.0779 94.4601 49.0779C81.2745 49.0779 80.8697 49.0201 80.8697 47.9219C80.8697 46.9972 81.2745 46.766 83.0673 46.766C84.2818 46.766 85.5541 46.4192 85.9589 46.0725C86.4794 45.5523 86.6529 41.9689 86.6529 33.4729C86.6529 24.6879 86.4794 21.4513 85.9589 20.8734C85.5541 20.4688 84.224 20.1798 83.0673 20.1798C81.3324 20.1798 80.8697 19.9486 80.8119 19.0817C80.7541 18.0413 81.3902 17.9835 94.0553 17.9258ZM118.113 18.5615C119.154 18.7349 119.386 19.1973 119.906 25.6704L123.549 25.8438C126.961 25.9594 127.135 26.0172 127.135 27.4043C127.135 28.7914 126.961 28.8492 119.906 29.1382L119.733 36.6517C119.559 43.2404 119.675 44.3386 120.6 45.4367C121.178 46.1303 122.046 46.766 122.508 46.8238C122.971 46.8816 123.839 46.8816 124.417 46.8238C124.937 46.8238 125.805 45.8991 126.267 44.7431C126.73 43.645 127.135 41.68 127.135 40.4084C127.135 38.5012 127.308 38.0966 128.292 38.0966C129.043 38.0966 129.564 38.559 129.68 39.4259C129.853 40.1195 129.795 41.6222 129.68 42.7203C129.506 43.8184 129.043 45.4945 128.696 46.4192C128.292 47.344 127.308 48.4421 126.441 48.8467C125.516 49.309 123.896 49.6558 122.798 49.6558C121.699 49.6558 120.195 49.3668 119.501 49.0779C118.749 48.7311 117.824 47.8641 117.477 47.055C116.957 46.1303 116.725 42.9515 116.725 37.981C116.725 32.5482 116.552 30.0629 116.031 29.5428C115.626 29.1382 114.701 28.8492 114.007 28.8492C113.255 28.8492 112.561 28.5602 112.388 28.2713C112.214 27.9823 112.214 27.2887 112.388 26.8264C112.561 26.364 113.487 25.9016 116.436 25.6704L116.667 22.0293C116.841 18.6771 116.957 18.3881 118.113 18.5615ZM175.135 25.1503C176.234 25.3237 178.085 25.9016 179.183 26.4218C180.34 26.9997 181.728 28.3868 182.48 29.7162C183.347 31.2189 183.81 33.0105 183.81 37.5186L166.75 37.8076V40.235C166.75 42.3157 167.097 43.0093 168.947 44.8587C170.856 46.8238 171.434 47.055 173.979 47.055C176.35 47.055 177.101 46.766 178.547 45.3211C179.53 44.3386 180.456 43.0093 180.629 42.2579C180.803 41.4488 181.323 40.9864 182.075 40.9864C182.711 40.9864 183.405 41.3332 183.579 41.68C183.752 42.0845 183.463 43.4716 182.885 44.7431C182.075 46.3614 181.034 47.4018 179.183 48.3265C177.391 49.2512 175.598 49.6558 173.574 49.6558C171.723 49.6558 169.641 49.1934 168.369 48.5577C166.981 47.8641 165.593 46.477 164.725 44.9743C163.511 42.8359 163.28 41.68 163.28 37.8076C163.28 34.2243 163.569 32.6638 164.552 30.8721C165.188 29.6006 166.229 28.0979 166.807 27.5777C167.444 26.9997 169.063 26.1906 170.509 25.6704C171.954 25.2081 174.036 24.9769 175.135 25.1503ZM168.369 31.0455C167.964 31.5656 167.617 32.606 167.617 33.3573C167.617 34.571 167.733 34.6288 173.979 34.6288H180.34C179.877 32.1436 178.952 30.7565 178.027 29.8317C176.87 28.7914 175.675 28.2713 174.441 28.2713C173.4 28.2713 171.781 28.6758 170.798 29.1382C169.872 29.6584 168.774 30.4675 168.369 31.0455ZM201.449 24.8613C201.796 24.8035 203.01 25.0925 204.224 25.3814C205.439 25.7282 206.885 26.653 207.521 27.5777C208.273 28.5602 208.677 30.0051 208.677 31.45C208.677 32.8371 208.215 34.1665 207.636 34.8022C207.116 35.3802 205.959 35.8425 205.092 35.7847C204.167 35.7847 203.357 35.3802 203.183 34.9178C203.01 34.4554 202.894 33.7619 202.894 33.4729C202.894 33.1839 203.53 32.606 204.34 32.317C205.15 32.028 205.786 31.45 205.786 31.0455C205.728 30.6987 205.15 29.774 204.456 29.0226C203.588 28.0401 202.547 27.6933 201.044 27.6933C199.424 27.6933 198.557 28.0979 197.285 29.485C195.723 31.1611 195.665 31.45 195.492 38.27C195.376 43.4138 195.55 45.5523 196.07 46.0725C196.475 46.477 197.689 46.8238 198.73 46.766C200.176 46.766 200.581 46.9972 200.581 47.9219C200.581 49.0201 200.176 49.0779 193.93 49.0779C187.685 49.0779 187.28 49.0201 187.28 47.9219C187.28 46.9972 187.742 46.766 191.617 46.477L191.733 38.0966C191.848 32.0858 191.675 29.485 191.155 28.9648C190.808 28.5602 189.767 28.2135 188.899 28.2713C187.685 28.2713 187.28 27.9823 187.28 27.1153C187.28 26.075 187.685 25.9594 191.039 25.9594C193.988 25.9594 194.798 26.1328 194.798 26.8264C194.798 27.2887 194.971 27.6933 195.261 27.6933C195.492 27.7511 195.955 27.3465 196.359 26.8264C196.764 26.364 197.921 25.7282 198.962 25.4392C200.003 25.1503 201.102 24.8613 201.449 24.8613ZM221.4 24.9191C221.863 24.9191 223.193 25.2081 224.292 25.6126C226.027 26.2484 226.432 26.2484 226.894 25.497C227.241 25.0347 227.878 24.7457 228.34 24.9191C229.034 25.1503 229.208 26.2484 229.208 29.485C229.208 33.3573 229.092 33.7619 228.051 33.7619C227.184 33.7619 226.837 33.3573 226.779 31.9124C226.663 30.4675 226.143 29.7162 224.755 28.8492C223.714 28.2135 221.979 27.6933 220.996 27.6933C219.781 27.6933 218.451 28.2713 217.352 29.1382C216.427 29.9473 215.617 31.0455 215.617 31.6234C215.559 32.1436 216.022 33.1839 216.6 33.9353C217.352 34.86 218.624 35.3802 221.111 35.7847C223.02 36.1315 225.449 36.5939 226.49 36.9407C227.473 37.2297 228.861 38.2122 229.497 39.1369C230.191 40.0039 230.711 41.3332 230.711 42.1423C230.653 42.9515 230.422 44.4542 230.075 45.4945C229.67 46.8238 228.803 47.6907 227.184 48.4999C225.68 49.2512 223.771 49.6558 221.574 49.6558C219.723 49.598 217.584 49.2512 216.774 48.7889C215.964 48.3265 215.155 47.9797 214.923 47.9219C214.634 47.9219 214.461 48.4421 214.461 49.0779C214.461 49.9448 214.114 50.176 213.188 50.1182C211.916 49.9448 211.858 49.6558 211.743 44.9165C211.569 40.1773 211.627 39.8305 212.726 39.8305C213.362 39.8305 213.998 40.2351 214.171 40.6974C214.345 41.1598 214.461 42.2001 214.461 43.0093C214.461 43.9725 215.039 44.8395 216.196 45.6101C217.121 46.2458 219.029 46.9394 220.417 47.1128C222.094 47.4018 223.424 47.2284 224.755 46.5348C225.738 46.0147 226.837 44.9743 227.184 44.1652C227.569 43.2019 227.569 42.335 227.184 41.5644C226.837 40.9286 226.027 40.1195 225.333 39.7727C224.581 39.4259 222.557 38.9057 220.822 38.6168C219.087 38.3278 216.658 37.692 215.444 37.1141C213.767 36.3049 213.13 35.6114 212.726 34.0509C212.379 32.7023 212.437 31.373 212.899 30.0629C213.304 28.9648 214.229 27.5777 215.039 26.9997C215.849 26.4218 217.41 25.6704 218.509 25.4392C219.608 25.1503 220.938 24.9191 221.4 24.9191ZM247.425 25.2081C248.523 25.3814 250.258 25.9594 251.184 26.5374C252.109 27.1153 253.266 28.2713 253.67 29.0804C254.017 29.8895 254.364 31.3922 254.364 32.317C254.364 33.2995 253.902 34.4554 253.381 34.9756C252.803 35.4958 251.704 35.7847 250.952 35.6692C250.201 35.6114 249.275 35.0334 248.928 34.5132C248.408 33.7041 248.581 33.2417 251.184 30.4675L249.622 29.0804C248.466 28.0979 247.309 27.6933 245.69 27.6933C243.955 27.6933 242.914 28.0979 241.699 29.2538C240.774 30.1207 239.617 31.6812 239.097 32.7216C238.576 33.7619 238.172 35.9581 238.172 37.5186C238.172 39.1369 238.519 41.2754 238.923 42.3157C239.386 43.2982 240.543 44.8587 241.526 45.7835C242.74 46.766 244.07 47.344 245.285 47.344C246.384 47.4018 247.829 46.8238 248.813 46.0725C249.738 45.3211 251.01 43.645 251.588 42.3157C252.167 40.9286 252.745 39.8305 252.919 39.8305C253.092 39.8305 253.613 39.9461 254.075 40.1195C254.538 40.2928 254.943 40.9286 254.943 41.5644C254.943 42.2001 254.48 43.7028 253.844 44.9165C253.266 46.0725 252.109 47.5174 251.241 48.0953C250.432 48.6155 248.755 49.309 247.598 49.5402C246.21 49.887 244.36 49.8292 242.74 49.4246C241.237 49.0779 239.502 48.2687 238.75 47.633C238.056 46.9972 236.957 45.4367 236.321 44.1652C235.685 42.8937 235.049 40.6974 234.875 39.2525C234.644 37.6342 234.933 35.3224 235.569 33.1839C236.263 30.8143 237.188 29.1382 238.519 27.8089C239.733 26.7108 241.468 25.7282 242.972 25.4392C244.302 25.1503 246.326 25.0347 247.425 25.2081ZM270.268 25.2081C271.54 25.3814 273.16 25.7282 273.911 26.0172C274.605 26.3062 275.646 27.2309 276.225 28.0979C276.977 29.3116 277.266 31.3922 277.497 37.981C277.728 45.0899 277.96 46.477 278.769 46.9972C279.521 47.4596 279.984 47.4596 280.504 46.8816C280.909 46.477 281.372 44.8009 281.545 43.2404C281.777 41.102 282.066 40.4084 282.702 40.524C283.338 40.6396 283.627 41.6222 283.743 44.0496C283.858 46.7082 283.627 47.5752 282.702 48.4999C281.931 49.2705 280.774 49.6558 279.232 49.6558C277.555 49.6558 276.572 49.309 274.316 46.9394L272.292 48.3265C270.731 49.3668 269.516 49.7136 267.087 49.6558C265.237 49.6558 263.039 49.2512 261.882 48.6155C260.379 47.9219 259.627 46.9972 259.107 45.3211C258.47 43.356 258.47 42.7203 259.222 40.8708C259.743 39.6571 260.726 38.27 261.478 37.8076C262.172 37.3452 264.89 36.6517 267.492 36.2471C270.442 35.7847 272.639 35.0912 273.275 34.4554C273.911 33.8775 274.316 32.6638 274.258 31.5656C274.201 30.3519 273.738 29.3694 272.813 28.6758C272.003 28.0979 270.442 27.6355 269.111 27.6355C267.723 27.6355 266.22 28.0979 265.352 28.7336C264.196 29.6584 264.022 30.0051 264.658 30.6409C265.005 31.1033 265.237 31.9124 265.063 32.4904C264.89 33.0105 264.311 33.5885 263.791 33.7619C263.213 33.9353 262.287 33.9353 261.767 33.7619C261.189 33.5885 260.552 32.8949 260.379 32.2014C260.205 31.45 260.437 30.1207 260.899 29.1382C261.362 28.1557 262.634 26.9997 263.791 26.4796C264.948 25.9594 266.336 25.4392 266.914 25.2659C267.492 25.0347 268.996 25.0347 270.268 25.2081ZM265.699 40.0039C264.427 40.4084 263.155 41.1598 262.808 41.68C262.345 42.3735 262.345 43.1826 262.75 44.2808C263.155 45.4367 263.907 46.0725 265.352 46.4192C266.451 46.7082 268.07 46.766 268.996 46.5348C269.863 46.3614 271.193 45.5523 272.003 44.7431C273.102 43.645 273.449 42.7203 273.449 40.6974C273.449 39.2525 273.275 38.1544 273.044 38.1544C272.755 38.2122 271.54 38.5012 270.268 38.7901C268.996 39.0791 266.914 39.6571 265.699 40.0039ZM301.381 25.1503C302.249 25.2659 303.868 25.786 304.967 26.2484C306.316 26.8264 307.28 27.7896 307.859 29.1382C308.495 30.5831 308.726 33.1839 308.726 38.2122C308.668 43.356 308.9 45.4945 309.42 46.0147C309.825 46.3614 310.981 46.766 311.907 46.8816C312.948 46.9972 313.642 47.4018 313.642 47.9219C313.642 48.6155 312.543 48.7889 307.569 48.9623C303.174 49.0201 301.381 48.9045 301.092 48.3843C300.861 47.9797 300.803 47.4596 300.977 47.1706C301.092 46.9394 301.902 46.766 302.827 46.766C303.695 46.8238 304.736 46.477 305.14 46.0725C305.661 45.4945 305.777 43.5294 305.487 37.9232C305.198 31.1611 305.025 30.4097 303.753 29.1382C302.712 28.0401 301.728 27.6933 299.936 27.6933C298.316 27.6355 296.871 28.0401 295.887 28.8492C294.962 29.485 293.979 30.9877 293.632 32.1436C293.343 33.3573 293.112 37.0563 293.401 46.477L295.598 46.5926C297.333 46.766 297.738 46.9972 297.738 47.9219C297.738 49.0201 297.333 49.0779 291.377 49.0779C285.42 49.0779 285.015 49.0201 285.015 47.9219C285.015 46.9972 285.42 46.766 287.039 46.766C288.485 46.766 289.237 46.4192 289.642 45.6101C289.989 44.9743 290.22 41.4488 290.22 37.8076C290.22 34.1665 289.989 30.5253 289.642 29.7162C289.179 28.5602 288.659 28.2713 287.039 28.2713C285.42 28.2713 285.015 28.0401 285.015 27.1153C285.015 26.075 285.42 25.9594 288.658 25.9594C291.377 26.0172 292.418 26.2484 292.938 26.9997C293.516 27.9245 293.632 27.9245 294.673 26.9997C295.251 26.4796 296.639 25.786 297.738 25.4392C298.837 25.1503 300.456 24.9769 301.381 25.1503Z" fill="white"/>
<path d="M177.159 35.0334C178.779 34.9177 177.217 34.8599 173.69 34.8599C170.162 34.8599 168.889 34.9177 170.798 35.0334C172.706 35.149 175.54 35.149 177.159 35.0334Z" fill="white"/>
</svg>
