<svg width="76" height="76" viewBox="0 0 76 76" fill="none" xmlns="http://www.w3.org/2000/svg">
<g filter="url(#filter0_dd_171_364)">
<circle cx="38" cy="38" r="25" fill="white"/>
<circle cx="38" cy="38" r="21.0644" stroke="white" strokeWidth="7.87124"/>
</g>
<g clip-path="url(#clip0_171_364)">
<path d="M36.7807 23.5403C32.9146 23.9552 29.4115 25.8047 26.9455 28.7432C25.2112 30.8059 24.1338 33.1451 23.6555 35.8877C23.5461 36.5157 23.5345 36.8211 23.5345 38.25C23.5345 39.6789 23.5461 39.9843 23.6555 40.6123C24.1971 43.7179 25.4993 46.2991 27.6484 48.5289C29.8552 50.8221 32.6381 52.274 35.8877 52.8444C36.5157 52.9539 36.8211 52.9654 38.25 52.9654C40.0534 52.9654 40.595 52.9078 42.0124 52.5448C47.0885 51.2312 51.2311 47.0885 52.5448 42.0124C52.9078 40.595 52.9654 40.0534 52.9654 38.25C52.9654 36.4466 52.9078 35.905 52.5448 34.4876C51.2311 29.4115 47.0942 25.2688 42.0124 23.9552C40.7045 23.621 40.088 23.5461 38.4804 23.5288C37.6738 23.5173 36.9075 23.523 36.7807 23.5403ZM35.9914 32.4076C36.1988 32.4768 37.0976 33.0933 39.2122 34.6259C40.8197 35.7955 42.2428 36.8672 42.3754 37.0112C43.061 37.743 43.061 38.757 42.3754 39.4888C42.1046 39.7826 36.5733 43.8273 36.1758 44.0232C35.784 44.2191 35.1098 44.2076 34.6719 44.006C34.2744 43.8158 33.9575 43.4989 33.7616 43.0898L33.6118 42.773V38.25V33.7271L33.7616 33.4102C34.0036 32.9146 34.4472 32.5286 34.9658 32.3673C35.2135 32.2924 35.6918 32.3097 35.9914 32.4076Z" fill="url(#paint0_linear_171_364)"/>
</g>
<defs>
<filter id="filter0_dd_171_364" x="0.835349" y="0.835349" width="74.3293" height="74.3293" filterUnits="userSpaceOnUse" color-interpolation-filters="sRGB">
<feFlood flood-opacity="0" result="BackgroundImageFix"/>
<feColorMatrix in="SourceAlpha" type="matrix" values="0 0 0 0 0 0 0 0 0 0 0 0 0 0 0 0 0 0 127 0" result="hardAlpha"/>
<feMorphology radius="9.30238" operator="dilate" in="SourceAlpha" result="effect1_dropShadow_171_364"/>
<feOffset/>
<feComposite in2="hardAlpha" operator="out"/>
<feColorMatrix type="matrix" values="0 0 0 0 1 0 0 0 0 0.611765 0 0 0 0 0 0 0 0 1 0"/>
<feBlend mode="normal" in2="BackgroundImageFix" result="effect1_dropShadow_171_364"/>
<feColorMatrix in="SourceAlpha" type="matrix" values="0 0 0 0 0 0 0 0 0 0 0 0 0 0 0 0 0 0 127 0" result="hardAlpha"/>
<feOffset/>
<feGaussianBlur stdDeviation="6.08233"/>
<feComposite in2="hardAlpha" operator="out"/>
<feColorMatrix type="matrix" values="0 0 0 0 0 0 0 0 0 0 0 0 0 0 0 0 0 0 0.3 0"/>
<feBlend mode="normal" in2="effect1_dropShadow_171_364" result="effect2_dropShadow_171_364"/>
<feBlend mode="normal" in="SourceGraphic" in2="effect2_dropShadow_171_364" result="shape"/>
</filter>
<linearGradient id="paint0_linear_171_364" x1="38.25" y1="52.9654" x2="38.25" y2="23.5228" gradientUnits="userSpaceOnUse">
<stop stop-color="#FA9013"/>
<stop offset="1" stop-color="#FEA800"/>
</linearGradient>
<clipPath id="clip0_171_364">
<rect width="29.5" height="29.5" fill="white" transform="translate(23.5 23.5)"/>
</clipPath>
</defs>
</svg>
