<svg width="278" height="70" viewBox="0 0 278 70" fill="none" xmlns="http://www.w3.org/2000/svg">
<path fill-rule="evenodd" clip-rule="evenodd" d="M35.5193 0.00208607C36.6474 -0.0142787 38.3312 0.0675452 39.2794 0.149369C40.2276 0.247558 41.8788 0.509394 42.9578 0.722136C44.0368 0.934878 45.688 1.37673 46.6362 1.68766C47.5844 1.98222 49.1538 2.60409 50.1511 3.02957C51.1483 3.47142 52.6851 4.27329 53.5842 4.81333C54.4834 5.35337 55.8403 6.23707 56.5923 6.7771C57.3444 7.31714 58.8974 8.64269 60.0255 9.73913C61.1535 10.8356 62.5595 12.3248 63.148 13.0612C63.7366 13.814 64.6357 15.0577 65.1589 15.8268C65.682 16.6123 66.6139 18.2815 67.2351 19.5416C67.8563 20.8017 68.6247 22.6018 68.9517 23.551C69.2786 24.5002 69.72 26.0057 69.9326 26.9058C70.1451 27.8058 70.4394 29.4096 70.5702 30.4733C70.7173 31.5206 70.8317 33.5499 70.8317 34.9736C70.8317 36.381 70.75 38.1648 70.6683 38.9339C70.5702 39.703 70.3413 41.094 70.1615 42.0432C69.9653 42.9924 69.4748 44.7925 69.0661 46.0526C68.6574 47.3127 67.8236 49.3419 67.2188 50.5529C66.5975 51.7639 65.682 53.4004 65.1589 54.1859C64.6357 54.9714 63.7529 56.1824 63.1971 56.8861C62.6576 57.5897 61.3333 59.0135 60.2544 60.0445C59.1917 61.0754 57.655 62.4174 56.8539 63.0229C56.0528 63.6283 54.6142 64.5775 53.666 65.1503C52.7178 65.7067 51.181 66.5249 50.2328 66.934C49.2846 67.3595 47.7152 67.965 46.7179 68.2923C45.7207 68.6196 44.0368 69.0778 42.9578 69.2906C41.8788 69.5033 40.1132 69.7815 39.0342 69.8797C37.8735 69.9942 36.0425 70.027 34.5384 69.9779C33.1488 69.9288 31.0889 69.716 29.9609 69.5197C28.8328 69.3397 27.0672 68.9142 26.0373 68.6032C25.0073 68.2923 23.6831 67.8505 23.0946 67.6213C22.506 67.3922 21.2636 66.8195 20.3154 66.3449C19.3672 65.8867 18.0756 65.183 17.4544 64.7902C16.8332 64.4138 15.607 63.5793 14.7569 62.941C13.9068 62.3028 12.2883 60.8463 11.1603 59.7172C10.0323 58.588 8.57726 56.9679 7.93967 56.1169C7.30209 55.2659 6.32119 53.7931 5.74899 52.844C5.19315 51.8948 4.37573 50.3565 3.95068 49.4074C3.54197 48.4582 2.92073 46.8544 2.59376 45.8562C2.2668 44.8416 1.85809 43.336 1.67826 42.5341C1.49843 41.7323 1.23685 40.1285 1.10606 38.983C0.975278 37.8211 0.86084 36.0864 0.86084 35.0882C0.86084 34.0899 0.942582 32.5189 1.04067 31.5697C1.12241 30.6206 1.35129 29.115 1.51477 28.215C1.69461 27.3149 2.11966 25.6621 2.47933 24.5329C2.83899 23.4037 3.49292 21.6854 3.93433 20.6872C4.37573 19.6889 5.19315 18.1179 5.76534 17.1687C6.32119 16.2196 7.30209 14.7468 7.93967 13.8958C8.57726 13.0448 10.0323 11.4247 11.1603 10.2955C12.2883 9.16636 13.9068 7.72626 14.7569 7.08804C15.607 6.44981 16.8332 5.61521 17.4544 5.22245C18.0756 4.8297 19.4816 4.07692 20.5606 3.53688C21.6396 2.99684 23.585 2.21133 24.8929 1.78585C26.2008 1.36036 28.0645 0.853055 29.0617 0.656677C30.059 0.4603 31.4486 0.247558 32.1679 0.165734C32.8872 0.08391 34.3913 0.0184509 35.5193 0.00208607ZM89.4688 20.9326H95.0273L94.9455 49.4892L89.4688 49.571V35.2518V20.9326ZM232.844 20.9326H227.449L227.482 35.2027L227.531 49.4892L232.844 49.571C232.844 48.0491 232.926 47.5745 233.007 47.5254C233.089 47.4763 233.498 47.7381 233.906 48.0982C234.315 48.4582 234.953 48.9164 235.329 49.1128C235.721 49.2928 236.408 49.5546 236.849 49.6692C237.291 49.8001 238.222 49.8983 238.893 49.8983C239.563 49.8983 240.56 49.7837 241.1 49.6365C241.639 49.5055 242.457 49.1946 242.898 48.9491C243.356 48.7037 244.206 48.0163 244.811 47.4109C245.628 46.5926 246.086 45.938 246.576 44.9561C246.92 44.2034 247.328 43.1233 247.459 42.5341C247.59 41.945 247.737 40.914 247.803 40.2431C247.868 39.5721 247.819 38.3611 247.721 37.5429C247.623 36.741 247.328 35.5137 247.083 34.8427C246.838 34.1717 246.364 33.1899 246.037 32.6826C245.71 32.1589 245.089 31.3897 244.664 30.9806C244.222 30.5551 243.552 30.0315 243.143 29.786C242.735 29.5569 241.999 29.2296 241.508 29.0823C241.018 28.9186 240.086 28.7386 239.465 28.6895C238.68 28.6241 237.977 28.6732 237.225 28.8532C236.604 29.0005 235.77 29.295 235.345 29.5078C234.904 29.7205 234.233 30.1951 233.825 30.5715C233.416 30.9315 233.04 31.177 232.958 31.1115C232.893 31.0461 232.844 28.7386 232.844 25.973V20.9326ZM250.516 20.9326H255.748V49.5874H250.516V35.2682V20.9326ZM199.673 22.4055H194.278V25.7602V29.115H182.998L182.916 41.7977C182.115 43.4997 181.641 44.1379 181.183 44.5634C180.774 44.9234 180.153 45.3162 179.793 45.4307C179.434 45.5453 178.862 45.6271 178.502 45.6271C178.142 45.6271 177.554 45.4962 177.194 45.3325C176.834 45.1689 176.377 44.8252 176.197 44.5634C176.001 44.3015 175.755 43.827 175.625 43.516C175.461 43.0578 175.396 41.3559 175.363 36.021L175.314 29.115H170.083C170.164 44.1215 170.181 44.4488 170.524 45.4798C170.72 46.0526 171.161 46.9363 171.521 47.4436C171.864 47.9345 172.437 48.5237 172.796 48.7528C173.14 48.9819 173.761 49.3092 174.17 49.4728C174.595 49.6365 175.51 49.8001 176.377 49.8492C177.423 49.8983 178.126 49.8492 178.829 49.6692C179.368 49.5219 180.202 49.1619 180.676 48.8673C181.167 48.5728 181.804 48.0163 182.115 47.64C182.409 47.2636 182.736 46.9854 182.834 47.0345C182.916 47.0672 182.998 47.6563 182.998 48.3436V49.571H188.229V33.3699H194.278L194.279 33.4561V33.4564V33.4567V33.4569V33.4572V33.4575V33.4579V33.4582V33.4585C194.36 45.7586 194.361 45.8909 194.736 46.7072C194.932 47.149 195.341 47.7709 195.635 48.0654C195.913 48.36 196.403 48.7364 196.73 48.9C197.041 49.0637 197.744 49.2928 198.283 49.391C198.856 49.5055 200.392 49.5546 202.044 49.5383L204.823 49.4892V45.0707C201.52 44.9234 200.458 44.8416 200.327 44.7761C200.18 44.7107 199.984 44.4816 199.869 44.2524C199.722 43.9415 199.673 42.4523 199.673 38.6066V33.3699H204.251V29.115L199.755 29.0332L199.673 22.4055ZM110.902 28.6404C111.294 28.6241 112.111 28.7223 112.7 28.8368C113.272 28.9677 114.073 29.2296 114.449 29.4096C114.825 29.606 115.446 30.0315 115.822 30.3751C116.182 30.7188 116.623 31.2261 117.114 32.0607L118.127 31.0133C118.7 30.4406 119.55 29.786 120.057 29.5405C120.547 29.295 121.577 28.9841 122.345 28.8205C123.522 28.5914 123.947 28.575 125.206 28.7386C126.187 28.8696 126.988 29.0823 127.659 29.4096C128.198 29.6714 128.852 30.146 129.13 30.4406C129.408 30.7351 129.817 31.3243 130.062 31.7334C130.307 32.1261 130.65 33.0589 130.83 33.7626C131.141 34.99 131.173 35.5628 131.173 49.5546H125.942L125.86 35.7264L125.402 34.7936C125.059 34.0572 124.814 33.779 124.307 33.5172C123.833 33.288 123.326 33.2062 122.542 33.2062C121.839 33.2062 121.201 33.3044 120.792 33.5008C120.433 33.6644 119.844 34.0899 119.484 34.4336C119.141 34.7936 118.7 35.4155 118.503 35.8082C118.193 36.5119 118.16 36.921 118.013 49.4728L112.7 49.5546L112.618 35.5628L112.193 34.7445C111.915 34.2045 111.555 33.8117 111.13 33.5662C110.575 33.239 110.313 33.1899 109.185 33.239C108.384 33.288 107.665 33.419 107.338 33.5826C107.043 33.7299 106.537 34.1227 106.21 34.4663C105.866 34.81 105.458 35.4155 105.261 35.8082C104.951 36.5119 104.918 36.921 104.771 49.4728L99.4577 49.5546V29.0987H104.853V30.326C104.853 31.0133 104.885 31.5534 104.918 31.5534C104.967 31.5534 105.392 31.177 105.866 30.7024C106.34 30.2278 107.092 29.6551 107.55 29.426C107.992 29.2132 108.76 28.9514 109.267 28.8368C109.757 28.7386 110.493 28.6404 110.902 28.6404ZM149.075 29.115C148.535 28.9186 147.505 28.7386 146.786 28.6895C145.92 28.6404 145.151 28.7059 144.53 28.8696C144.007 29.0005 143.222 29.295 142.781 29.5078C142.323 29.7369 141.62 30.2606 141.211 30.6533C140.803 31.0624 140.41 31.3897 140.312 31.3897C140.23 31.3897 140.165 30.8824 140.165 30.2442V29.0987H134.77L134.852 49.4728L140.165 49.5546C140.247 37.0192 140.263 36.6756 140.59 35.9719C140.77 35.5791 141.179 34.9573 141.473 34.5972C141.784 34.2536 142.405 33.7954 142.863 33.5826C143.435 33.3044 143.974 33.2062 144.694 33.2062C145.249 33.2062 145.952 33.3044 146.247 33.419C146.541 33.5499 146.933 33.8281 147.129 34.0408C147.342 34.2536 147.62 34.7281 147.783 35.0718C148.061 35.6773 148.094 36.4137 148.127 42.6487L148.176 49.5546H153.407C153.489 37.7393 153.538 36.7737 153.767 36.1355C153.93 35.7428 154.323 35.0882 154.666 34.6791C155.009 34.2699 155.631 33.7954 156.105 33.5826C156.677 33.3208 157.216 33.2062 157.936 33.2062C158.492 33.2062 159.162 33.2717 159.407 33.3699C159.652 33.4681 160.028 33.7135 160.241 33.9099C160.453 34.1063 160.748 34.5154 160.895 34.8263C161.124 35.3173 161.173 36.4137 161.254 42.436L161.336 49.4728H166.568C166.568 35.2682 166.535 34.499 166.257 33.599C166.094 33.0589 165.767 32.2571 165.521 31.8316C165.292 31.3897 164.704 30.6697 164.23 30.2278C163.592 29.6387 163.102 29.3605 162.35 29.1314C161.794 28.9514 160.846 28.755 160.273 28.7059C159.652 28.6404 158.671 28.6568 157.985 28.7714C157.216 28.8859 156.301 29.1641 155.565 29.5241C154.78 29.9005 154.094 30.3915 153.522 30.9806C153.048 31.4716 152.622 31.8807 152.59 31.897C152.541 31.897 152.279 31.6025 152.018 31.2261C151.74 30.8497 151.184 30.2933 150.791 29.9987C150.383 29.7042 149.614 29.295 149.075 29.115ZM215.858 28.7059C216.708 28.755 217.852 28.9023 218.392 29.0332C218.931 29.1805 219.798 29.5241 220.321 29.8187C220.86 30.0969 221.596 30.6697 221.972 31.0624C222.348 31.4716 222.855 32.1752 223.084 32.6171C223.313 33.0753 223.574 33.8772 223.689 34.4172C223.787 35.0227 223.885 38.2138 223.95 49.571L219.046 49.4892L218.915 48.6709C218.85 48.2127 218.752 47.7545 218.702 47.64C218.653 47.509 218.359 47.6563 217.852 48.0818C217.427 48.4255 216.79 48.8673 216.43 49.0637C216.07 49.2437 215.367 49.5055 214.877 49.6365C214.37 49.7837 213.422 49.8819 212.752 49.8819C212.065 49.8819 211.15 49.7837 210.708 49.6692C210.25 49.5546 209.482 49.2437 209.008 48.9819C208.517 48.72 207.798 48.1309 207.406 47.6891C206.997 47.2308 206.539 46.4781 206.359 46.0035C206.147 45.4471 206.049 44.727 206.033 43.9579C206.033 43.3033 206.163 42.3705 206.31 41.8796C206.458 41.3722 206.735 40.7177 206.932 40.4067C207.128 40.0794 207.586 39.5721 207.962 39.2612C208.321 38.9339 209.008 38.492 209.498 38.2466C209.972 38.0011 210.774 37.6902 211.28 37.5593C211.771 37.412 213.602 37.1665 218.555 36.7247L218.604 36.2337C218.637 35.9555 218.588 35.4809 218.49 35.17C218.392 34.8427 218.163 34.3845 217.983 34.139C217.803 33.8935 217.362 33.5499 217.002 33.3699C216.512 33.1244 216.021 33.0426 215.155 33.0426C214.256 33.0426 213.798 33.1244 213.242 33.4026C212.719 33.6644 212.408 33.9917 211.689 35.3173H209.024C206.572 35.3173 206.376 35.3009 206.441 35.0391C206.478 34.9158 206.534 34.6903 206.587 34.4747L206.606 34.3984L206.637 34.2699C206.686 33.9917 206.932 33.4026 207.161 32.9608C207.373 32.5025 207.896 31.7825 208.321 31.3406C208.73 30.9152 209.4 30.3424 209.809 30.0805C210.201 29.8187 210.986 29.4587 211.526 29.2623C212.065 29.0823 212.899 28.8532 213.406 28.7877C213.896 28.7059 214.991 28.6732 215.858 28.7059ZM270.298 28.8368C269.611 28.7223 268.663 28.6404 268.173 28.6404C267.666 28.6568 267.044 28.6895 266.783 28.7223C266.505 28.7714 265.884 28.9023 265.393 29.0496C264.887 29.1969 264.053 29.5241 263.513 29.8023C262.957 30.0805 262.075 30.7515 261.535 31.2915C260.979 31.8479 260.276 32.7807 259.949 33.3699C259.622 33.9426 259.197 34.9736 259.017 35.6609C258.821 36.3319 258.625 37.6247 258.576 38.5248C258.511 39.6539 258.56 40.6031 258.74 41.6341C258.919 42.6814 259.197 43.516 259.72 44.5797C260.244 45.6107 260.734 46.3308 261.421 47.0345C261.96 47.5581 262.794 48.2455 263.284 48.54C263.758 48.8346 264.609 49.2273 265.148 49.4237C265.835 49.6692 266.636 49.8001 267.927 49.8492C269.235 49.8983 270.02 49.8492 270.87 49.6528C271.491 49.5055 272.488 49.1455 273.077 48.8673C273.747 48.54 274.516 47.9673 275.219 47.2799C275.922 46.5762 276.461 45.8398 276.804 45.1525C277.082 44.5634 277.36 43.8433 277.442 43.5488L277.573 43.0087H272.341C271.949 43.827 271.72 44.2361 271.557 44.4488C271.393 44.6452 270.952 44.9725 270.576 45.1689C270.2 45.3653 269.48 45.5453 268.99 45.5944C268.418 45.6435 267.747 45.578 267.192 45.4143C266.587 45.2507 266.015 44.9234 265.491 44.4652C265.05 44.0724 264.511 43.4015 264.298 42.976C264.085 42.5505 263.889 41.9286 263.873 41.585L263.84 40.9795L277.736 40.8813C277.556 37.5265 277.393 36.1192 277.246 35.5791C277.115 35.0227 276.723 34.0408 276.379 33.3699C275.987 32.5516 275.448 31.7988 274.794 31.1443C274.14 30.4897 273.42 29.966 272.668 29.606C272.031 29.3114 270.968 28.9677 270.298 28.8368ZM35.9117 13.9285C36.8599 13.994 37.1869 14.174 41.8952 16.8905C44.6417 18.4615 47.1757 19.9998 47.519 20.3108C47.8787 20.6053 48.271 21.0963 48.3855 21.3908C48.549 21.8 48.598 23.4692 48.598 35.6609L47.7316 36.201C47.2738 36.5119 46.391 37.0192 45.7698 37.3465C45.0014 37.772 44.6581 37.8865 44.5927 37.7556C44.5436 37.6411 44.4946 34.3517 44.4292 23.3546L43.9387 22.9455C43.6772 22.7164 40.8326 21.0308 37.6446 19.198C34.4567 17.3651 31.8246 15.8104 31.7919 15.745C31.7756 15.6632 31.9227 15.5159 32.1189 15.385C32.3314 15.254 33.0344 14.8613 33.7047 14.5013C34.8327 13.9121 35.0125 13.863 35.9117 13.9285ZM29.0618 17.676C29.2416 17.676 29.6503 17.7579 29.9609 17.8724C30.2715 17.987 32.8055 19.3943 35.6011 20.9981C38.3967 22.6182 40.947 24.1074 41.8952 24.6965V26.9876C41.8952 29.0986 41.8788 29.2787 41.6009 29.1805C41.4538 29.1314 38.8871 27.6749 35.9281 25.9566C32.9527 24.2383 30.2715 22.7 29.9609 22.5364C29.6503 22.3727 29.2089 22.2418 28.98 22.2418C28.7511 22.2418 28.1953 22.4545 27.7539 22.7C27.2961 22.9619 24.566 24.5329 21.656 26.2184C18.7623 27.904 16.31 29.2787 16.2283 29.2787C16.1302 29.2787 16.0648 28.6895 16.0648 27.8549C16.0648 27.0531 16.1629 26.0548 16.2937 25.5966C16.4572 25.0893 16.7514 24.582 17.0784 24.271C17.3727 23.9928 18.1247 23.4692 18.7623 23.1091C18.9478 23.0016 19.2792 22.8109 19.7089 22.5635L19.7096 22.5632L19.7102 22.5628C20.7193 21.982 22.2701 21.0894 23.7485 20.2289C25.8575 19.0179 27.852 17.9542 28.1626 17.856C28.4732 17.7579 28.8819 17.6924 29.0618 17.676ZM51.4263 22.4218C51.5407 22.4218 52.2764 22.8473 53.0775 23.3546C54.2545 24.1074 54.6142 24.4347 54.9248 25.0238C55.3008 25.7602 55.3008 25.7766 55.3008 32.1098C55.3008 36.9701 55.2518 38.5739 55.0883 38.983C54.9739 39.2612 54.5815 39.7521 54.2218 40.0631C53.8785 40.3576 50.0857 42.616 45.8188 45.0707C41.5519 47.5418 38.0043 49.5219 37.9226 49.4728C37.8572 49.4401 37.8081 48.4091 37.8081 44.9889L38.2495 44.6943C38.5111 44.5306 41.323 42.8942 44.5109 41.0613C47.6989 39.2448 50.4944 37.5592 51.132 36.9701L51.1811 29.6878C51.2138 24.091 51.2628 22.4055 51.4263 22.4218ZM29.0127 25.0238C29.0944 25.0238 29.9936 25.4984 31.0236 26.0875C32.1025 26.693 32.8873 27.2331 32.8546 27.364C32.8219 27.4622 30.0753 29.115 26.7566 31.0297C23.4379 32.9444 20.626 34.6299 20.5116 34.7936C20.3644 35.0227 20.3154 36.2664 20.299 39.8339C20.299 44.1542 20.3317 44.6125 20.5933 44.9561C20.7568 45.1525 23.5687 46.8544 26.8547 48.7364C30.1407 50.602 33.018 52.3366 33.2633 52.5657C33.721 53.0076 33.721 53.0403 33.721 55.1023C33.721 56.2478 33.6883 57.2297 33.6393 57.3115C33.5902 57.377 32.2497 56.6569 30.6475 55.7405C29.0618 54.8077 25.5469 52.7621 22.8494 51.2238C20.1519 49.6692 17.6997 48.2127 17.4054 48C17.1275 47.7872 16.7188 47.2963 16.5062 46.9199C16.1466 46.2326 16.1466 46.1344 16.1466 33.4517L16.588 32.6825C16.9476 32.077 17.3236 31.7334 18.2228 31.177C18.8767 30.7842 21.5415 29.2459 24.1572 27.7404C26.7566 26.2512 28.9473 25.0238 29.0127 25.0238ZM26.822 34.0408C26.9692 34.0244 27.0182 34.81 27.0182 37.4283C27.0019 40.7504 27.0182 40.8158 27.3779 41.1759C27.5904 41.3722 29.0127 42.2396 30.5331 43.1069C32.0698 43.9906 33.4104 44.8252 33.5248 44.9725C33.6556 45.1525 33.721 45.9053 33.721 47.4108C33.721 48.7364 33.6556 49.571 33.5575 49.571C33.4758 49.571 31.0889 48.2454 28.2934 46.6253C25.4815 45.0052 23.0783 43.5488 22.9638 43.3851C22.8167 43.1887 22.7676 42.2232 22.7676 39.8339C22.7676 37.9684 22.8494 36.4628 22.9311 36.3155C23.0292 36.1846 23.8793 35.6118 24.8439 35.0554C25.8248 34.499 26.7076 34.0408 26.822 34.0408ZM55.1864 42.6978C55.2681 42.6978 55.3008 43.5651 55.2681 44.6288C55.2191 46.3962 55.1864 46.6253 54.794 47.2145C54.5161 47.6236 53.9276 48.1145 53.1592 48.5727C52.775 48.7979 51.7195 49.41 50.3898 50.1813L50.3864 50.1832C49.3969 50.7571 48.2559 51.4189 47.1267 52.0748C45.7495 52.8662 44.2486 53.7328 42.9641 54.4745L42.9627 54.4752C41.7776 55.1595 40.7768 55.7374 40.2277 56.0514C39.0669 56.7224 38.0697 57.2624 37.9716 57.2624C37.8735 57.2624 37.8408 56.4442 38.0043 52.6639L39.4266 51.7802C40.195 51.3057 44.0368 49.0637 47.9441 46.8053C51.8513 44.547 55.121 42.6978 55.1864 42.6978ZM239.71 33.501C238.974 33.1082 238.615 33.0264 237.666 33.0428C236.882 33.0428 236.326 33.1409 235.868 33.3537C235.508 33.5337 234.936 33.9756 234.609 34.3356C234.266 34.712 233.841 35.3011 233.661 35.6611C233.481 36.0211 233.22 36.7739 233.089 37.3467C232.958 37.9031 232.844 38.7868 232.844 39.3105C232.844 39.8178 232.925 40.636 233.024 41.1106C233.122 41.5688 233.383 42.338 233.579 42.7798C233.792 43.238 234.282 43.9253 234.675 44.3345C235.165 44.8581 235.656 45.1691 236.277 45.3818C236.947 45.6109 237.421 45.66 238.157 45.5945C238.827 45.5291 239.367 45.3491 239.857 45.0381C240.266 44.7927 240.822 44.2854 241.1 43.9253C241.378 43.5653 241.786 42.8289 241.999 42.2889C242.342 41.4379 242.391 41.0451 242.391 39.2614C242.391 37.4776 242.342 37.0849 241.999 36.2339C241.786 35.6939 241.378 34.9574 241.1 34.6138C240.838 34.2537 240.2 33.7464 239.71 33.501ZM269.922 33.3046C269.546 33.1409 268.81 33.0428 268.042 33.0428C266.979 33.0428 266.619 33.1082 265.884 33.4846C265.393 33.7464 264.821 34.1719 264.625 34.4338C264.412 34.6956 264.134 35.2029 264.004 35.5466C263.857 35.8739 263.742 36.2994 263.742 36.4794C263.742 36.7903 263.857 36.8067 268.074 36.8067H272.407C272.407 36.2339 272.227 35.7102 272.031 35.252C271.818 34.8102 271.393 34.2374 271.082 33.9919C270.772 33.7464 270.249 33.4355 269.922 33.3046ZM218.424 40.5869C218.555 40.5706 218.621 40.816 218.621 41.2742C218.621 41.6506 218.506 42.2889 218.375 42.698C218.245 43.1071 217.82 43.7617 217.444 44.1544C217.051 44.5636 216.414 45.0381 216.005 45.2018C215.596 45.3818 214.861 45.5618 214.37 45.6109C213.749 45.6764 213.226 45.6109 212.703 45.4309C212.163 45.2345 211.82 44.989 211.591 44.629C211.411 44.3345 211.264 43.8271 211.264 43.5162C211.264 43.2053 211.411 42.698 211.591 42.4198C211.771 42.1252 212.228 41.7161 212.621 41.5197C213.111 41.2742 213.994 41.0942 215.76 40.8815C217.117 40.7342 218.31 40.6033 218.424 40.5869Z" fill="white"/>
</svg>
