<svg width="252" height="187" viewBox="0 0 252 187" fill="none" xmlns="http://www.w3.org/2000/svg">
<path d="M119.129 0.806687C111.259 3.10469 107.069 12.7787 110.959 19.7707C111.759 21.2077 121.219 30.7857 131.879 41.0337L151.399 59.7107L156.379 54.9217C159.069 52.3357 161.959 48.8877 162.849 47.1637C164.749 43.3327 164.749 36.9157 162.949 33.5627C162.159 32.1267 154.589 24.3677 146.219 16.3227C129.089 0.0396786 126.799 -1.39631 119.129 0.806687Z" fill="white"/>
<path d="M89.2393 30.4024L79.2793 39.9804L83.6692 44.5774C85.9592 47.0684 102.489 63.3504 120.419 80.5914L152.789 112.007L162.949 102.141L173.109 92.2764L136.459 56.5504C116.339 37.0114 99.6993 20.9204 99.4993 20.9204C99.2093 20.9204 94.6193 25.2304 89.2393 30.4024Z" fill="white"/>
<path d="M67.9294 54.4427C60.7594 62.3927 59.6595 65.8408 62.2495 72.1628C68.7295 88.5408 93.1295 79.9208 87.7495 63.2548C86.7595 59.9028 76.4996 47.7388 74.7996 47.7388C74.3096 47.7388 71.2194 50.8037 67.9294 54.4427Z" fill="white"/>
<path d="M169.629 53.8683C166.239 56.8373 165.939 57.6033 165.539 63.2543C165.139 70.0553 165.339 70.3423 175.109 80.4953L178.589 83.9433L184.169 78.1963C191.139 71.0133 192.139 69.2893 192.239 64.6913C192.239 56.1673 186.759 50.6113 177.989 50.6113C174.009 50.6113 172.709 51.0903 169.629 53.8683Z" fill="white"/>
<path d="M92.8305 78.2924C81.9805 90.3604 82.6704 92.4674 103.29 113.156C111.66 121.68 119.83 129.151 121.32 129.821C129.89 133.461 139.15 128.576 140.94 119.381C142.24 112.868 139.35 109.133 118.23 89.5944L98.8105 71.5874L92.8305 78.2924Z" fill="white"/>
<path d="M81.1794 151.564C78.4894 153.383 79.9796 156.161 83.3696 155.778C86.6596 155.395 87.5496 152.713 84.8596 151.276C83.4696 150.606 82.4694 150.606 81.1794 151.564Z" fill="white"/>
<path d="M0 166.027V178H2.98999H5.97998V171.008V164.112L8.77002 168.135C10.26 170.433 12.15 172.253 12.95 172.253C13.75 172.253 15.6399 170.433 17.1299 168.135L19.9199 164.112V171.008V178H22.9099H25.8999V166.027V154.055H23.1101C20.8201 154.055 19.8199 155.013 17.1299 159.323C15.3399 162.196 13.5499 164.591 13.1499 164.591C12.7499 164.591 10.8601 162.196 9.06006 159.323C6.28006 154.917 5.27989 154.055 2.88989 154.055H0V166.027Z" fill="white"/>
<path d="M125.001 156.449C120.221 160.951 122.511 166.409 129.891 168.421C135.361 169.858 137.161 171.486 134.971 173.21C133.271 174.551 128.791 173.785 126.401 171.677C125.001 170.528 124.611 170.528 123.011 172.252C120.721 174.647 122.221 176.563 127.491 178.096C135.061 180.299 141.741 177.041 141.741 171.198C141.741 167.463 139.551 165.452 133.671 163.632C130.881 162.77 128.991 161.621 128.991 160.759C128.991 158.844 133.171 158.365 136.161 159.897C138.151 160.951 138.751 160.855 140.241 159.419C141.841 157.886 141.841 157.693 139.551 155.874C135.961 153.096 128.091 153.384 125.001 156.449Z" fill="white"/>
<path d="M33.3691 162.195C31.3791 164.015 30.8789 165.452 30.8789 169.187C30.8789 176.083 35.5589 180.01 41.6389 178.382C43.1289 177.999 45.8191 177.807 47.6091 177.903L50.7991 178.19V168.996V159.801H47.8091C46.2191 159.801 44.8191 160.28 44.8191 160.758C44.8191 161.429 44.219 161.429 42.929 160.758C39.639 159.13 35.8591 159.705 33.3691 162.195ZM43.6289 165.739C45.3189 167.367 45.1191 171.773 43.3291 173.21C41.1391 174.934 36.949 173.593 36.259 170.911C35.059 166.122 40.2389 162.482 43.6289 165.739Z" fill="white"/>
<path d="M57.2702 162.196C53.6902 165.548 53.5902 172.253 57.0702 175.893C58.9702 177.808 59.9602 178.096 64.0502 177.713C67.3302 177.425 68.7301 177.713 68.7301 178.479C68.7301 180.777 65.8401 182.118 61.7501 181.544C58.4701 181.161 57.5702 181.352 56.7702 182.789C55.8802 184.417 56.28 184.8 59.66 185.758C64.84 187.291 70.1201 186.141 72.7101 183.076C74.4001 180.969 74.7001 179.245 74.7001 170.242C74.7001 159.802 74.7002 159.802 72.3102 159.802C71.0202 159.802 69.7201 160.376 69.4201 160.951C69.0301 161.909 68.73 161.909 67.63 160.951C65.44 158.94 59.9602 159.514 57.2702 162.196ZM67.5302 165.74C69.2202 167.368 69.0301 171.774 67.2301 173.211C65.0401 174.935 60.86 173.594 60.16 170.912C58.97 166.123 64.1502 162.483 67.5302 165.74Z" fill="white"/>
<path d="M80.6797 168.9C80.6797 177.999 80.6797 177.999 83.1697 177.999C85.6597 177.999 85.6597 177.999 85.6597 168.9C85.6597 159.801 85.6597 159.801 83.1697 159.801C80.6797 159.801 80.6797 159.801 80.6797 168.9Z" fill="white"/>
<path d="M93.7307 162.291C91.1407 164.398 90.6406 165.452 90.6406 169.091C90.6406 176.754 97.7108 181.064 105.081 177.807C109.761 175.796 107.371 171.773 102.491 173.497C100.001 174.455 99.3107 174.264 97.5107 172.539C93.2307 168.517 98.0106 162.674 103.391 165.452C104.681 166.122 105.581 166.122 106.381 165.356C108.271 163.536 107.771 161.716 104.981 160.758C100.701 159.13 96.9207 159.705 93.7307 162.291Z" fill="white"/>
<path d="M148.71 161.237C145.72 163.249 144.33 168.421 145.52 172.731C146.82 177.233 152 179.915 156.38 178.286L159.37 177.233V182.022C159.37 186.619 159.47 186.715 162.16 186.428L164.85 186.14V173.21V160.28L162.16 159.992C160.56 159.801 159.37 160.184 159.37 160.758C159.37 161.429 158.77 161.525 157.48 160.758C154.69 159.418 151.2 159.609 148.71 161.237ZM158.77 166.697C160.46 169.379 158.37 173.593 155.08 173.976C152.99 174.263 152.2 173.785 151.2 171.869C149.51 168.134 151.5 164.398 155.08 164.781C156.48 164.973 158.17 165.835 158.77 166.697Z" fill="white"/>
<path d="M170.32 167.368C170.32 173.977 170.62 175.414 172.42 177.138C174.01 178.67 175.2 179.053 177.6 178.479C179.39 178.191 182.48 177.904 184.57 178H188.25V168.901V159.802H185.26H182.38L182.08 166.698C181.78 173.402 181.68 173.69 179.29 173.69C176.9 173.69 176.8 173.402 176.3 166.985C175.8 160.472 175.7 160.281 173.11 159.993L170.32 159.706V167.368Z" fill="white"/>
<path d="M196.12 161.046C191.24 164.59 190.84 172.061 195.23 176.275C197.81 178.669 198.81 179.052 201.5 178.574C203.29 178.19 206.38 177.999 208.47 177.999L212.16 178.095V168.9V159.801H209.17C207.48 159.801 206.18 160.28 206.18 160.95C206.18 161.812 205.88 161.812 204.99 160.95C203.49 159.513 198.21 159.513 196.12 161.046ZM205.09 165.931C208.17 169.474 204.19 175.796 200.5 173.593C198.41 172.348 197.81 170.145 198.61 166.888C199.31 164.207 203.19 163.728 205.09 165.931Z" fill="white"/>
<path d="M217.841 160.472C217.441 160.76 217.141 164.878 217.141 169.571V178H220.131C223.111 178 223.111 177.904 223.111 172.924C223.111 167.368 224.311 165.549 227.801 165.549C229.091 165.549 230.091 164.974 230.091 164.208C230.091 163.441 230.391 162.196 230.681 161.334C231.481 159.419 227.201 159.227 225.211 160.951C224.111 161.909 223.811 161.909 223.411 160.951C222.921 159.706 218.931 159.323 217.841 160.472Z" fill="white"/>
<path d="M235.96 162.578C230.29 168.133 233.17 177.424 241.04 178.574C245.63 179.244 250.31 177.616 249.81 175.317C249.51 174.072 248.61 173.785 245.43 173.976C242.44 174.168 240.94 173.785 239.55 172.252C237.76 170.336 237.76 170.336 244.83 170.336C249.11 170.336 252 169.953 252 169.379C252 167.08 249.01 161.812 247.22 160.854C243.43 158.939 239.05 159.609 235.96 162.578ZM245.82 166.218C246.02 167.08 244.93 167.463 242.04 167.463C238.35 167.463 237.96 167.271 239.05 165.931C240.55 164.302 245.13 164.494 245.82 166.218Z" fill="white"/>
</svg>
