<svg width="211" height="68" viewBox="0 0 211 68" fill="none" xmlns="http://www.w3.org/2000/svg">
<g clip-path="url(#clip0_1616_1576)">
<path d="M205.18 3.04712L87.8117 18.4668C86.0956 18.4685 84.4505 19.1513 83.2377 20.3653C82.0249 21.5792 81.3437 23.225 81.3437 24.9409L80.5469 47.6317C80.5469 51.2048 83.4478 51.9892 87.0147 51.9892L120.525 47.7125L119.989 63.2317C119.989 65.0993 121.34 65.5413 123.009 65.5413L177.336 58.6438C179.009 58.6438 180.354 57.1 180.354 55.2014L180.697 40.0307L202.958 37.1858C204.673 37.1792 206.315 36.4925 207.524 35.2764C208.734 34.0602 209.411 32.4141 209.407 30.6992L210.559 8.45053C210.584 4.8773 208.785 3.04712 205.18 3.04712ZM207.173 30.7926C207.169 31.7446 206.788 32.6567 206.114 33.3288C205.44 34.0008 204.527 34.3783 203.574 34.3782L179.178 37.6402C179.185 37.7502 179.185 37.8602 179.178 37.9702L178.338 54.4979C178.336 55.0736 178.106 55.6253 177.699 56.0323C177.293 56.4395 176.741 56.6688 176.165 56.6705L124.31 63.4247C124.025 63.4247 123.742 63.3686 123.479 63.2593C123.216 63.1499 122.977 62.9898 122.776 62.7881C122.574 62.5863 122.415 62.3467 122.306 62.0831C122.198 61.8196 122.142 61.5373 122.143 61.2522L122.361 49.1879C122.36 48.9015 122.414 48.6177 122.523 48.3526C122.631 48.0876 122.791 47.8467 122.993 47.6436C123.195 47.4405 123.435 47.2794 123.699 47.1694C123.964 47.0595 124.247 47.0029 124.534 47.0029L162.333 40.6283L86.3736 50.0718C85.4214 50.0703 84.5088 49.6912 83.8355 49.018C83.1623 48.3447 82.7833 47.4321 82.7818 46.4799L83.4042 24.2749C83.4059 23.3217 83.7856 22.408 84.4603 21.7347C85.1349 21.0612 86.0492 20.683 87.0023 20.683L204.931 5.61809C205.403 5.61727 205.87 5.70942 206.305 5.88925C206.741 6.06909 207.137 6.33307 207.471 6.66612C207.804 6.99916 208.069 7.39472 208.25 7.83015C208.43 8.2656 208.523 8.73238 208.523 9.20378L207.173 30.7926Z" fill="url(#paint0_linear_1616_1576)"/>
<path d="M94.1523 43.8018L95.793 23.2936L99.7897 22.8042L105.114 32.0737L112.13 21.2931L115.952 20.8252L114.311 41.3334L110.022 41.8585L110.585 34.8271C110.68 33.6357 110.788 32.5298 110.908 31.5093C111.028 30.489 111.175 29.5041 111.347 28.5546L105.573 37.1815L103.647 37.4173L99.2645 30.0922C99.2703 30.9811 99.2529 31.9213 99.2121 32.9126C99.1714 33.9039 99.1017 35.0148 99.0034 36.2454L98.4408 43.2766L94.1523 43.8018Z" fill="#130E3A"/>
<path d="M117.199 40.9796L126.833 19.4926L130.743 19.0139L137.066 38.5468L132.574 39.097L131.314 34.9868L123.495 35.9441L121.517 40.4509L117.199 40.9796ZM126.507 28.9899L125.092 32.2384L130.284 31.6025L129.344 28.5555C129.206 28.1082 129.033 27.5008 128.825 26.7334C128.636 25.9635 128.454 25.2315 128.279 24.5374C128.007 25.2863 127.715 26.0474 127.403 26.8205C127.09 27.5936 126.792 28.3168 126.507 28.9899Z" fill="#130E3A"/>
<path d="M148.706 37.4119C147.111 37.6071 145.683 37.5208 144.423 37.1531C143.164 36.7657 142.095 36.1519 141.22 35.3116C140.343 34.4712 139.693 33.4386 139.272 32.2139C138.869 30.9866 138.728 29.6211 138.848 28.1172C138.968 26.6132 139.342 25.1943 139.968 23.8605C140.616 22.5047 141.464 21.2985 142.512 20.2419C143.58 19.1634 144.797 18.2796 146.161 17.5902C147.525 16.901 148.995 16.4598 150.571 16.2669C152.205 16.0668 153.696 16.2034 155.045 16.6765C156.395 17.1301 157.439 17.8048 158.176 18.7009L155.233 21.9043C154.533 21.2746 153.771 20.8069 152.947 20.5016C152.125 20.1962 151.218 20.1042 150.226 20.2257C149.019 20.3733 147.907 20.7997 146.888 21.5046C145.889 22.1877 145.069 23.062 144.425 24.127C143.782 25.1727 143.412 26.3205 143.311 27.5706C143.214 28.8011 143.415 29.8884 143.918 30.8326C144.421 31.7574 145.145 32.4519 146.09 32.9165C147.036 33.3809 148.12 33.5381 149.347 33.3882C150.222 33.2809 151.031 33.0172 151.778 32.5971C152.525 32.1574 153.137 31.6184 153.612 30.9801C154.086 30.3417 154.352 29.671 154.408 28.9679L149.157 29.6108L149.45 25.9486L158.902 24.7913C158.914 25.1185 158.91 25.5349 158.889 26.0403C158.888 26.5434 158.875 26.9317 158.853 27.2051C158.711 28.9825 158.167 30.6059 157.221 32.0756C156.297 33.5233 155.093 34.7247 153.611 35.6799C152.131 36.6155 150.496 37.1928 148.706 37.4119Z" fill="#130E3A"/>
<path d="M161.232 35.5878L161.535 31.8083L164.947 31.3904L165.984 18.4409L162.57 18.8588L162.873 15.0795L174.075 13.7078L173.772 17.4872L170.36 17.9051L169.323 30.8546L172.737 30.4366L172.435 34.216L161.232 35.5878Z" fill="#130E3A"/>
<path d="M185.734 32.878C183.73 33.1232 181.986 32.8919 180.502 32.184C179.038 31.4736 177.922 30.3725 177.155 28.8805C176.408 27.386 176.118 25.6036 176.283 23.5333C176.404 22.0293 176.778 20.6104 177.405 19.2766C178.032 17.9232 178.861 16.7194 179.888 15.6652C180.918 14.5914 182.095 13.7123 183.422 13.0277C184.747 12.3432 186.159 11.9093 187.657 11.7259C189.116 11.5473 190.491 11.6786 191.784 12.1197C193.1 12.539 194.132 13.2247 194.885 14.177L191.898 17.5598C191.275 16.9205 190.581 16.4543 189.815 16.1613C189.07 15.8464 188.231 15.746 187.297 15.8604C186.188 15.9962 185.155 16.3935 184.197 17.0523C183.241 17.6915 182.452 18.5329 181.829 19.576C181.207 20.5998 180.847 21.7464 180.745 23.016C180.64 24.3246 180.812 25.4253 181.26 26.318C181.729 27.2084 182.418 27.8589 183.328 28.2696C184.259 28.6779 185.366 28.8034 186.649 28.6462C187.583 28.532 188.473 28.2392 189.319 27.7681C190.187 27.2751 190.938 26.6803 191.571 25.9838L193.456 29.1473C192.927 29.7343 192.247 30.2914 191.415 30.8187C190.584 31.346 189.672 31.7962 188.678 32.1691C187.707 32.5203 186.726 32.7565 185.734 32.878Z" fill="#130E3A"/>
<path d="M129.135 58.5165C128.395 58.6002 127.765 58.532 127.243 58.3118C126.722 58.0916 126.289 57.7338 125.943 57.2385L127.073 55.9618C127.418 56.4653 127.77 56.8004 128.129 56.9672C128.488 57.1339 128.904 57.1905 129.379 57.1368C129.789 57.0903 130.142 56.9625 130.44 56.7533C130.746 56.5352 130.913 56.277 130.939 55.9788C130.971 55.6323 130.831 55.3729 130.52 55.2007C130.217 55.0276 129.777 54.9178 129.201 54.8714C127.472 54.7162 126.669 53.9454 126.794 52.5592C126.837 52.0837 127.007 51.6497 127.305 51.257C127.612 50.8552 128 50.5242 128.469 50.2636C128.946 50.0022 129.462 49.8401 130.017 49.7772C130.725 49.6971 131.312 49.7583 131.779 49.9606C132.255 50.154 132.613 50.4726 132.851 50.9163L131.722 52.0613C131.291 51.3682 130.681 51.0662 129.893 51.1554C129.467 51.2036 129.113 51.3354 128.831 51.5509C128.55 51.7582 128.395 52.015 128.368 52.3213C128.339 52.6437 128.452 52.8821 128.709 53.0365C128.974 53.19 129.37 53.2926 129.899 53.3446C130.768 53.4216 131.437 53.6371 131.906 53.9907C132.384 54.3436 132.594 54.8423 132.536 55.4871C132.486 56.0351 132.311 56.5256 132.009 56.9586C131.716 57.3907 131.322 57.7424 130.828 58.0137C130.335 58.277 129.77 58.4446 129.135 58.5165Z" fill="#130E3A"/>
<path d="M137.661 57.5512C137.058 57.6195 136.509 57.5739 136.014 57.4145C135.519 57.2552 135.096 57.004 134.745 56.6608C134.402 56.3086 134.151 55.8785 133.99 55.3703C133.828 54.8621 133.776 54.2935 133.833 53.6649C133.889 53.0363 134.046 52.4442 134.303 51.8886C134.56 51.333 134.895 50.8404 135.307 50.4108C135.729 49.9722 136.207 49.615 136.741 49.3391C137.275 49.0632 137.844 48.8912 138.447 48.823C139.058 48.7537 139.611 48.7988 140.105 48.9581C140.601 49.1175 141.019 49.3732 141.362 49.7254C141.705 50.0775 141.956 50.5077 142.117 51.0159C142.279 51.5161 142.332 52.0805 142.275 52.7091C142.213 53.3942 142.028 54.0414 141.719 54.6508C141.418 55.2513 141.029 55.7699 140.551 56.2069L141.441 57.4583L140.182 58.4624L139.205 57.1132C138.714 57.3441 138.2 57.4902 137.661 57.5512ZM137.796 56.0521C137.981 56.0312 138.164 55.9906 138.344 55.9303L137.357 54.5581L138.649 53.5983L139.712 55.0574C139.984 54.7794 140.204 54.4553 140.373 54.0852C140.541 53.7071 140.646 53.3085 140.683 52.8894C140.732 52.3414 140.66 51.867 140.465 51.4663C140.279 51.0566 140.001 50.749 139.629 50.5438C139.257 50.3385 138.818 50.2647 138.312 50.3219C137.805 50.3793 137.344 50.5552 136.927 50.8496C136.511 51.136 136.171 51.5096 135.907 51.9703C135.643 52.4229 135.487 52.9272 135.437 53.4833C135.387 54.0395 135.454 54.5223 135.641 54.932C135.827 55.3337 136.106 55.6371 136.478 55.8424C136.85 56.0395 137.289 56.1095 137.796 56.0521Z" fill="#130E3A"/>
<path d="M146.964 56.4504C146.296 56.5259 145.714 56.4522 145.216 56.2292C144.72 55.9983 144.341 55.6502 144.081 55.1852C143.83 54.7112 143.732 54.1557 143.789 53.519L144.259 48.2967L145.839 48.1177L145.379 53.2314C145.346 53.6021 145.4 53.9271 145.542 54.2062C145.693 54.4843 145.9 54.6961 146.165 54.8416C146.438 54.9861 146.749 55.0388 147.095 54.9996C147.464 54.9578 147.805 54.8313 148.119 54.6203C148.432 54.4093 148.687 54.1453 148.882 53.828C149.087 53.5097 149.206 53.1652 149.239 52.7946L149.699 47.6809L151.218 47.5088L150.748 52.7313C150.691 53.368 150.486 53.9574 150.135 54.4998C149.794 55.0332 149.348 55.4745 148.799 55.8237C148.251 56.165 147.639 56.3739 146.964 56.4504Z" fill="#130E3A"/>
<path d="M151.451 55.8705L155.505 47.0356L156.976 46.8689L159.483 54.9612L157.856 55.1455L157.307 53.2933L153.929 53.6755L153.019 55.693L151.451 55.8705ZM155.258 50.7131L154.559 52.2521L156.911 51.9859L156.479 50.5389C156.448 50.4468 156.405 50.3001 156.352 50.0987C156.306 49.8964 156.255 49.679 156.196 49.4463C156.137 49.2055 156.086 48.9881 156.04 48.7939C155.916 49.111 155.782 49.4492 155.637 49.8086C155.495 50.1598 155.368 50.4613 155.258 50.7131Z" fill="#130E3A"/>
<path d="M160.814 54.8106L161.575 46.3483L165.242 45.9332C165.749 45.8759 166.196 45.9409 166.585 46.1282C166.982 46.3146 167.287 46.5992 167.499 46.982C167.712 47.3567 167.796 47.802 167.748 48.3177C167.701 48.8496 167.509 49.35 167.173 49.819C166.836 50.2879 166.42 50.6539 165.927 50.9172L167.567 54.0581L165.71 54.2562L164.254 51.3461L162.625 51.5303L162.346 54.6372L160.814 54.8106ZM162.749 50.1643L164.895 49.9212C165.24 49.8821 165.529 49.7298 165.76 49.4643C165.998 49.198 166.133 48.8875 166.165 48.5329C166.2 48.1461 166.096 47.8468 165.853 47.6351C165.609 47.4152 165.275 47.3295 164.849 47.3777L162.98 47.5894L162.749 50.1643Z" fill="#130E3A"/>
<path d="M169.223 53.8586L169.985 45.3964L175.509 44.771L175.38 46.1975L171.412 46.6468L171.232 48.6535L174.585 48.2739L174.458 49.6762L171.105 50.0558L170.907 52.256L174.923 51.8014L174.795 53.2279L169.223 53.8586Z" fill="#130E3A"/>
<path d="M37.1533 2.84138C34.3735 0.159644 29.865 0.159644 27.0838 2.84138C24.3028 5.52311 24.3028 9.86906 27.0838 12.5508L46.1318 30.918L50.6102 26.5997C53.6987 23.6229 53.6987 18.7939 50.6102 15.8159L37.1533 2.84138Z" fill="url(#paint1_linear_1616_1576)"/>
<path d="M19.9013 11.0872L57.1151 47.5337L46.8505 57.5867L9.63672 21.1402L19.9013 11.0872Z" fill="url(#paint2_linear_1616_1576)"/>
<path d="M19.9162 37.0723L38.9739 55.0655C41.752 57.8327 41.752 62.3189 38.9739 65.0847C36.197 67.8519 31.6934 67.8519 28.9154 65.0847L15.4429 51.5202C12.3576 48.447 12.3576 44.6013 15.4429 41.5281L19.9162 37.0723Z" fill="url(#paint3_linear_1616_1576)"/>
<path d="M64.8456 28.2048C62.1172 25.4402 57.6973 25.4402 54.9701 28.2048C52.2443 30.9705 52.2443 35.4531 54.9701 38.2188L59.908 43.2267L64.8456 38.2188C67.5716 35.4531 67.5716 30.9705 64.8456 28.2048Z" fill="url(#paint4_linear_1616_1576)"/>
<path d="M7.54285 24.7634L12.4794 29.7699C15.2067 32.536 15.2067 37.0186 12.4794 39.7844C9.75352 42.5503 5.33236 42.5503 2.60499 39.7844C-0.120933 37.0186 -0.120933 32.536 2.60499 29.7699L7.54285 24.7634Z" fill="url(#paint5_linear_1616_1576)"/>
</g>
<defs>
<linearGradient id="paint0_linear_1616_1576" x1="80.5469" y1="34.2848" x2="210.584" y2="34.2848" gradientUnits="userSpaceOnUse">
<stop stop-color="#F170A8"/>
<stop offset="0.47" stop-color="#D561CE"/>
<stop offset="1" stop-color="#6EBFFA"/>
</linearGradient>
<linearGradient id="paint1_linear_1616_1576" x1="47.8615" y1="13.1332" x2="14.0323" y2="51.4315" gradientUnits="userSpaceOnUse">
<stop stop-color="#F170A8"/>
<stop offset="0.473958" stop-color="#D561CE"/>
<stop offset="1" stop-color="#6EBFFA"/>
</linearGradient>
<linearGradient id="paint2_linear_1616_1576" x1="47.8608" y1="13.1331" x2="14.0316" y2="51.4314" gradientUnits="userSpaceOnUse">
<stop stop-color="#F170A8"/>
<stop offset="0.473958" stop-color="#D561CE"/>
<stop offset="1" stop-color="#6EBFFA"/>
</linearGradient>
<linearGradient id="paint3_linear_1616_1576" x1="47.8621" y1="13.1331" x2="14.0327" y2="51.4315" gradientUnits="userSpaceOnUse">
<stop stop-color="#F170A8"/>
<stop offset="0.473958" stop-color="#D561CE"/>
<stop offset="1" stop-color="#6EBFFA"/>
</linearGradient>
<linearGradient id="paint4_linear_1616_1576" x1="47.8608" y1="13.1333" x2="14.0315" y2="51.4315" gradientUnits="userSpaceOnUse">
<stop stop-color="#F170A8"/>
<stop offset="0.473958" stop-color="#D561CE"/>
<stop offset="1" stop-color="#6EBFFA"/>
</linearGradient>
<linearGradient id="paint5_linear_1616_1576" x1="47.8616" y1="13.1331" x2="14.0323" y2="51.4314" gradientUnits="userSpaceOnUse">
<stop stop-color="#F170A8"/>
<stop offset="0.473958" stop-color="#D561CE"/>
<stop offset="1" stop-color="#6EBFFA"/>
</linearGradient>
<clipPath id="clip0_1616_1576">
<rect width="209.999" height="66.33" fill="white" transform="translate(0.560547 0.830078)"/>
</clipPath>
</defs>
</svg>
