
<svg width="1507" height="476" viewBox="0 0 1507 476" fill="none" xmlns="http://www.w3.org/2000/svg">
<path d="M1468.4 15.9097L626.134 126.565C613.819 126.577 602.013 131.477 593.31 140.189C584.607 148.9 579.718 160.711 579.718 173.025L574 335.859C574 361.501 594.818 367.13 620.415 367.13L860.891 336.439L857.049 447.809C857.049 461.211 866.743 464.383 878.715 464.383L1268.58 414.885C1280.59 414.885 1290.24 403.806 1290.24 390.181L1292.7 281.313L1452.45 260.897C1464.76 260.85 1476.54 255.922 1485.22 247.195C1493.9 238.467 1498.76 226.654 1498.73 214.348L1507 54.6859C1507.18 29.0435 1494.27 15.9097 1468.4 15.9097ZM1482.7 215.018C1482.67 221.85 1479.94 228.395 1475.1 233.218C1470.26 238.041 1463.71 240.75 1456.87 240.749L1281.8 264.158C1281.85 264.947 1281.85 265.737 1281.8 266.526L1275.77 385.133C1275.76 389.264 1274.11 393.223 1271.19 396.144C1268.27 399.066 1264.31 400.712 1260.18 400.724L888.052 449.194C886.007 449.194 883.982 448.791 882.092 448.007C880.203 447.222 878.488 446.073 877.043 444.625C875.599 443.177 874.455 441.458 873.676 439.566C872.898 437.675 872.5 435.649 872.506 433.603L874.069 347.027C874.058 344.972 874.452 342.935 875.23 341.033C876.009 339.131 877.155 337.402 878.604 335.945C880.053 334.487 881.776 333.331 883.673 332.542C885.571 331.753 887.605 331.347 889.66 331.347L1160.92 285.601L615.814 353.37C608.981 353.359 602.432 350.639 597.6 345.808C592.769 340.976 590.049 334.427 590.038 327.594L594.505 168.245C594.517 161.405 597.242 154.848 602.084 150.016C606.925 145.183 613.486 142.469 620.326 142.469L1466.61 34.3596C1470 34.3537 1473.35 35.015 1476.47 36.3055C1479.6 37.5961 1482.44 39.4905 1484.84 41.8805C1487.23 44.2705 1489.13 47.1091 1490.43 50.2339C1491.72 53.3588 1492.39 56.7085 1492.39 60.0914L1482.7 215.018Z" fill="url(#paint0_linear_793_238)"/>
<path d="M671.633 308.375L683.407 161.203L712.088 157.691L750.3 224.211L800.645 146.847L828.07 143.489L816.296 290.661L785.521 294.429L789.558 243.97C790.242 235.42 791.015 227.484 791.878 220.161C792.74 212.839 793.789 205.771 795.025 198.957L753.587 260.866L739.77 262.558L708.319 209.991C708.361 216.37 708.236 223.117 707.943 230.231C707.651 237.345 707.151 245.317 706.445 254.148L702.408 304.606L671.633 308.375Z" fill="#130E3A"/>
<path d="M837.032 288.122L906.169 133.926L934.222 130.491L979.602 270.664L947.362 274.612L938.32 245.116L882.213 251.986L868.017 284.328L837.032 288.122ZM903.826 202.081L893.669 225.393L930.934 220.83L924.184 198.964C923.197 195.754 921.956 191.395 920.462 185.888C919.107 180.363 917.8 175.11 916.54 170.129C914.59 175.503 912.495 180.965 910.254 186.513C908.014 192.061 905.871 197.251 903.826 202.081Z" fill="#130E3A"/>
<path d="M1063.12 262.519C1051.68 263.92 1041.43 263.301 1032.39 260.662C1023.35 257.882 1015.68 253.477 1009.4 247.447C1003.11 241.416 998.447 234.006 995.419 225.217C992.53 216.41 991.517 206.611 992.381 195.818C993.244 185.025 995.924 174.843 1000.42 165.271C1005.07 155.542 1011.15 146.886 1018.67 139.303C1026.34 131.564 1035.07 125.221 1044.86 120.274C1054.65 115.328 1065.2 112.162 1076.51 110.778C1088.23 109.342 1098.93 110.322 1108.61 113.717C1118.3 116.972 1125.79 121.814 1131.08 128.245L1109.96 151.233C1104.94 146.714 1099.47 143.358 1093.56 141.167C1087.66 138.975 1081.15 138.315 1074.03 139.187C1065.37 140.246 1057.39 143.306 1050.08 148.365C1042.91 153.267 1037.02 159.541 1032.4 167.184C1027.79 174.688 1025.13 182.925 1024.41 191.896C1023.71 200.726 1025.15 208.529 1028.76 215.305C1032.37 221.941 1037.57 226.925 1044.35 230.259C1051.14 233.592 1058.92 234.72 1067.72 233.644C1074 232.874 1079.81 230.982 1085.17 227.967C1090.53 224.812 1094.92 220.944 1098.33 216.363C1101.73 211.782 1103.64 206.969 1104.04 201.923L1066.36 206.537L1068.46 180.256L1136.29 171.951C1136.38 174.299 1136.35 177.287 1136.2 180.914C1136.19 184.524 1136.1 187.311 1135.94 189.273C1134.92 202.028 1131.02 213.678 1124.23 224.225C1117.6 234.614 1108.96 243.235 1098.32 250.09C1087.7 256.804 1075.97 260.947 1063.12 262.519Z" fill="#130E3A"/>
<path d="M1153.02 249.43L1155.19 222.308L1179.68 219.309L1187.12 126.38L1162.62 129.379L1164.79 102.258L1245.18 92.4139L1243.01 119.536L1218.52 122.535L1211.08 215.464L1235.58 212.464L1233.41 239.586L1153.02 249.43Z" fill="#130E3A"/>
<path d="M1328.84 229.983C1314.46 231.743 1301.95 230.083 1291.3 225.003C1280.79 219.905 1272.78 212.003 1267.28 201.296C1261.92 190.571 1259.84 177.78 1261.02 162.923C1261.89 152.13 1264.57 141.948 1269.07 132.376C1273.57 122.664 1279.52 114.025 1286.89 106.46C1294.28 98.7542 1302.73 92.4453 1312.25 87.5329C1321.76 82.6206 1331.89 79.5064 1342.64 78.1905C1353.11 76.9087 1362.98 77.8508 1372.26 81.0166C1381.7 84.0252 1389.11 88.9465 1394.51 95.7805L1373.08 120.056C1368.61 115.468 1363.63 112.123 1358.13 110.02C1352.78 107.76 1346.76 107.04 1340.06 107.861C1332.1 108.835 1324.69 111.686 1317.81 116.414C1310.95 121.001 1305.29 127.039 1300.82 134.525C1296.36 141.872 1293.77 150.1 1293.04 159.211C1292.29 168.602 1293.52 176.501 1296.74 182.907C1300.1 189.297 1305.05 193.965 1311.58 196.912C1318.26 199.842 1326.2 200.743 1335.41 199.615C1342.11 198.795 1348.5 196.694 1354.57 193.313C1360.8 189.775 1366.19 185.507 1370.73 180.509L1384.26 203.211C1380.46 207.423 1375.58 211.421 1369.61 215.205C1363.65 218.989 1357.1 222.22 1349.97 224.896C1343 227.416 1335.96 229.111 1328.84 229.983Z" fill="#130E3A"/>
<path d="M922.683 413.972C917.375 414.573 912.85 414.083 909.108 412.503C905.367 410.923 902.257 408.355 899.778 404.801L907.885 395.639C910.358 399.252 912.883 401.657 915.46 402.854C918.036 404.05 921.027 404.456 924.431 404.071C927.374 403.737 929.912 402.82 932.046 401.319C934.243 399.754 935.438 397.901 935.63 395.761C935.854 393.274 934.851 391.413 932.621 390.177C930.448 388.935 927.292 388.147 923.153 387.814C910.745 386.7 904.989 381.169 905.884 371.221C906.191 367.809 907.414 364.694 909.553 361.876C911.754 358.993 914.538 356.617 917.904 354.747C921.329 352.871 925.031 351.708 929.013 351.257C934.09 350.682 938.306 351.121 941.659 352.573C945.075 353.961 947.639 356.247 949.352 359.431L941.245 367.648C938.151 362.674 933.777 360.507 928.123 361.147C925.065 361.493 922.524 362.439 920.5 363.985C918.481 365.473 917.373 367.316 917.175 369.514C916.967 371.827 917.784 373.538 919.626 374.646C921.526 375.748 924.372 376.484 928.165 376.857C934.398 377.41 939.199 378.956 942.569 381.494C945.996 384.026 947.502 387.605 947.085 392.232C946.731 396.165 945.472 399.685 943.308 402.792C941.201 405.893 938.375 408.417 934.83 410.364C931.291 412.253 927.242 413.456 922.683 413.972Z" fill="#130E3A"/>
<path d="M983.871 407.045C979.543 407.535 975.603 407.208 972.051 406.064C968.499 404.921 965.463 403.118 962.943 400.655C960.486 398.128 958.679 395.041 957.523 391.394C956.366 387.747 955.991 383.667 956.397 379.156C956.803 374.645 957.927 370.396 959.771 366.409C961.615 362.422 964.018 358.887 966.98 355.804C970.004 352.656 973.433 350.093 977.267 348.113C981.1 346.133 985.181 344.899 989.508 344.409C993.893 343.912 997.862 344.236 1001.41 345.379C1004.97 346.523 1007.97 348.358 1010.43 350.885C1012.89 353.412 1014.69 356.499 1015.85 360.146C1017.01 363.736 1017.39 367.786 1016.98 372.297C1016.54 377.213 1015.21 381.858 1012.99 386.231C1010.83 390.54 1008.04 394.262 1004.61 397.398L1011 406.378L1001.96 413.584L994.948 403.902C991.429 405.559 987.737 406.607 983.871 407.045ZM984.839 396.287C986.166 396.137 987.477 395.846 988.773 395.413L981.692 385.566L990.964 378.678L998.589 389.149C1000.54 387.154 1002.12 384.828 1003.33 382.172C1004.54 379.459 1005.29 376.598 1005.56 373.591C1005.91 369.658 1005.39 366.254 1003.99 363.378C1002.66 360.438 1000.66 358.231 997.992 356.758C995.326 355.285 992.175 354.755 988.54 355.166C984.905 355.578 981.593 356.84 978.604 358.953C975.621 361.008 973.181 363.689 971.284 366.995C969.392 370.243 968.267 373.862 967.908 377.853C967.549 381.844 968.036 385.309 969.371 388.249C970.711 391.132 972.714 393.309 975.38 394.782C978.051 396.197 981.204 396.699 984.839 396.287Z" fill="#130E3A"/>
<path d="M1050.63 399.144C1045.84 399.686 1041.66 399.157 1038.09 397.557C1034.53 395.9 1031.81 393.402 1029.94 390.065C1028.14 386.663 1027.44 382.677 1027.85 378.108L1031.22 340.631L1042.56 339.347L1039.26 376.044C1039.02 378.704 1039.41 381.036 1040.43 383.039C1041.51 385.035 1043 386.555 1044.9 387.599C1046.86 388.636 1049.09 389.014 1051.57 388.733C1054.22 388.433 1056.67 387.525 1058.92 386.011C1061.17 384.497 1063 382.602 1064.4 380.325C1065.87 378.041 1066.72 375.569 1066.96 372.909L1070.26 336.212L1081.16 334.977L1077.79 372.455C1077.38 377.024 1075.91 381.254 1073.39 385.146C1070.94 388.974 1067.74 392.141 1063.8 394.647C1059.87 397.096 1055.48 398.595 1050.63 399.144Z" fill="#130E3A"/>
<path d="M1082.83 394.983L1111.92 331.581L1122.48 330.385L1140.47 388.457L1128.79 389.78L1124.85 376.488L1100.61 379.231L1094.08 393.709L1082.83 394.983ZM1110.15 357.972L1105.13 369.016L1122.01 367.106L1118.91 356.722C1118.69 356.061 1118.38 355.008 1118 353.563C1117.67 352.111 1117.3 350.551 1116.88 348.881C1116.46 347.153 1116.09 345.593 1115.76 344.199C1114.87 346.475 1113.91 348.902 1112.87 351.481C1111.85 354.001 1110.94 356.165 1110.15 357.972Z" fill="#130E3A"/>
<path d="M1150.02 387.377L1155.48 326.65L1181.79 323.671C1185.43 323.26 1188.64 323.726 1191.43 325.07C1194.28 326.408 1196.47 328.45 1197.99 331.197C1199.52 333.886 1200.12 337.082 1199.78 340.783C1199.44 344.6 1198.06 348.191 1195.65 351.556C1193.23 354.921 1190.25 357.548 1186.71 359.437L1198.48 381.977L1185.15 383.399L1174.7 362.515L1163.01 363.837L1161.01 386.133L1150.02 387.377ZM1163.9 354.034L1179.3 352.29C1181.78 352.009 1183.85 350.916 1185.51 349.011C1187.22 347.1 1188.19 344.872 1188.42 342.327C1188.67 339.551 1187.92 337.403 1186.18 335.884C1184.43 334.306 1182.03 333.691 1178.97 334.037L1165.56 335.556L1163.9 354.034Z" fill="#130E3A"/>
<path d="M1210.36 380.545L1215.83 319.818L1255.47 315.33L1254.55 325.567L1226.07 328.791L1224.78 343.192L1248.84 340.468L1247.93 350.531L1223.87 353.255L1222.45 369.044L1251.27 365.782L1250.35 376.019L1210.36 380.545Z" fill="#130E3A"/>
<path d="M262.596 14.4336C242.648 -4.81119 210.294 -4.81119 190.335 14.4336C170.378 33.6783 170.378 64.8659 190.335 84.1106L327.028 215.918L359.166 184.929C381.33 163.567 381.33 128.913 359.166 107.542L262.596 14.4336Z" fill="url(#paint1_linear_793_238)"/>
<path d="M138.796 73.6079L405.851 335.157L332.19 407.3L65.1348 145.751L138.796 73.6079Z" fill="url(#paint2_linear_793_238)"/>
<path d="M138.901 260.082L275.663 389.206C295.6 409.064 295.6 441.258 275.663 461.106C255.736 480.964 223.417 480.964 203.481 461.106L106.799 363.764C84.6583 341.71 84.6583 314.112 106.799 292.058L138.901 260.082Z" fill="url(#paint3_linear_793_238)"/>
<path d="M461.323 196.447C441.743 176.608 410.025 176.608 390.454 196.447C370.893 216.295 370.893 248.463 390.454 268.31L425.889 304.248L461.323 268.31C480.885 248.463 480.885 216.295 461.323 196.447Z" fill="url(#paint4_linear_793_238)"/>
<path d="M50.1067 171.751L85.5329 207.679C105.104 227.529 105.104 259.697 85.5329 279.545C65.971 299.394 34.2437 299.394 14.6714 279.545C-4.89046 259.697 -4.89046 227.529 14.6714 207.679L50.1067 171.751Z" fill="url(#paint5_linear_793_238)"/>
<defs>
<linearGradient id="paint0_linear_793_238" x1="574" y1="240.079" x2="1507.18" y2="240.079" gradientUnits="userSpaceOnUse">
<stop stop-color="#F170A8"/>
<stop offset="0.47" stop-color="#D561CE"/>
<stop offset="1" stop-color="#6EBFFA"/>
</linearGradient>
<linearGradient id="paint1_linear_793_238" x1="339.441" y1="88.2902" x2="96.6744" y2="363.128" gradientUnits="userSpaceOnUse">
<stop stop-color="#F170A8"/>
<stop offset="0.473958" stop-color="#D561CE"/>
<stop offset="1" stop-color="#6EBFFA"/>
</linearGradient>
<linearGradient id="paint2_linear_793_238" x1="339.44" y1="88.2904" x2="96.6735" y2="363.128" gradientUnits="userSpaceOnUse">
<stop stop-color="#F170A8"/>
<stop offset="0.473958" stop-color="#D561CE"/>
<stop offset="1" stop-color="#6EBFFA"/>
</linearGradient>
<linearGradient id="paint3_linear_793_238" x1="339.447" y1="88.2891" x2="96.6796" y2="363.127" gradientUnits="userSpaceOnUse">
<stop stop-color="#F170A8"/>
<stop offset="0.473958" stop-color="#D561CE"/>
<stop offset="1" stop-color="#6EBFFA"/>
</linearGradient>
<linearGradient id="paint4_linear_793_238" x1="339.436" y1="88.2905" x2="96.6686" y2="363.128" gradientUnits="userSpaceOnUse">
<stop stop-color="#F170A8"/>
<stop offset="0.473958" stop-color="#D561CE"/>
<stop offset="1" stop-color="#6EBFFA"/>
</linearGradient>
<linearGradient id="paint5_linear_793_238" x1="339.444" y1="88.289" x2="96.6765" y2="363.127" gradientUnits="userSpaceOnUse">
<stop stop-color="#F170A8"/>
<stop offset="0.473958" stop-color="#D561CE"/>
<stop offset="1" stop-color="#6EBFFA"/>
</linearGradient>
</defs>
</svg>
