<svg width="457" height="126" viewBox="0 0 457 126" fill="none" xmlns="http://www.w3.org/2000/svg">
<path d="M153.615 2.52889C152.865 4.00189 151.345 6.86186 150.215 8.96486C149.115 11.0259 147.265 14.5599 146.085 16.7469C144.905 18.9339 143.305 21.9629 142.465 23.4769C140.535 27.0939 138.095 31.7209 134.515 38.6199C132.875 41.7329 130.895 45.3919 130.135 46.7379C129.335 48.0839 128.705 49.3879 128.705 49.6399C128.705 49.8929 128.455 50.4399 128.115 50.7759C127.785 51.1549 126.345 53.7209 124.915 56.4969C123.485 59.2729 121.725 62.6799 120.965 64.0679C118.735 68.2749 115.405 74.4579 114.185 76.6869C113.555 77.8229 112.335 80.0939 111.535 81.7349C110.735 83.3329 109.725 85.1839 109.305 85.8149C107.585 88.2129 107.705 88.2549 116.625 88.2549H124.755L125.715 86.4459C126.225 85.4789 126.855 84.3009 127.105 83.8379C127.355 83.3749 127.735 82.7019 127.905 82.3659C130.385 77.6549 132.915 72.8169 134.005 70.7979C134.765 69.4099 135.945 67.1389 136.655 65.7509C138.305 62.5119 143.185 53.2579 145.495 49.0519C149.075 42.4479 151.015 38.7459 152.775 35.1289C154.255 32.1839 154.755 31.4689 155.425 31.5529C155.895 31.6369 156.315 32.0579 156.435 32.4789C156.525 32.9409 157.025 33.9929 157.535 34.8759C158.455 36.2639 160.105 39.3349 166.375 51.4069C167.545 53.7629 169.145 56.7489 169.865 58.0529C170.575 59.3569 171.335 60.7869 171.545 61.2079C171.755 61.6289 172.345 62.7219 172.855 63.6479C173.355 64.5729 174.245 66.2559 174.825 67.4329C175.415 68.5689 176.805 71.2189 177.905 73.3219C178.995 75.3829 180.885 78.9169 182.025 81.1039C183.205 83.2909 184.505 85.7729 184.975 86.5719L185.815 88.0439L193.855 88.1709C200.625 88.2549 201.935 88.1709 201.935 87.6659C201.935 87.3289 201.215 85.7729 200.285 84.1749C199.405 82.6179 197.685 79.4209 196.465 77.1079C195.235 74.7939 194.105 72.7329 193.895 72.5229C193.685 72.2709 193.515 71.7659 193.515 71.3869C193.515 70.9669 193.345 70.5879 193.175 70.5039C192.965 70.4199 191.835 68.4009 190.565 65.9609C189.345 63.5209 187.955 60.8709 187.495 60.0719C187.035 59.2729 185.605 56.6229 184.385 54.1829C183.115 51.7439 181.315 48.3369 180.345 46.6119C176.515 39.5869 174.915 36.6009 173.865 34.4129C173.275 33.1519 172.645 32.0159 172.515 31.8899C172.385 31.7629 171.255 29.7019 169.985 27.2629C168.765 24.8229 167.085 21.6259 166.245 20.1119C162.875 13.8439 160.855 10.0589 159.305 6.86187C158.375 5.01087 157.405 3.20186 157.115 2.86586C156.815 2.52886 156.485 1.72987 156.315 1.05687C155.895 -0.710128 155.095 -0.289112 153.615 2.52889Z" fill="white"/>
<path d="M0.144851 15.5685C0.0148515 15.8625 -0.0251534 32.3095 0.0148466 52.0795L0.144851 88.0435L7.25484 88.1705C12.6848 88.2545 14.4548 88.1285 14.7448 87.7495C14.9148 87.4555 15.0849 75.5515 15.0349 61.3335C15.0349 33.1935 14.9948 33.4035 17.2648 36.8525C17.8548 37.7355 19.3748 39.6705 20.6348 41.1855C22.7448 43.7095 23.8348 45.0975 26.4448 48.5045C28.7548 51.5325 36.3748 61.1655 36.9648 61.7965C37.3048 62.1325 38.8148 64.0255 40.3348 65.9605C41.8448 67.8955 44.3249 71.0925 45.9249 73.0695C47.4849 75.0465 48.7448 76.8125 48.7448 76.9815C48.7448 77.9065 50.3848 77.0655 51.5648 75.5095C52.3248 74.5415 54.2149 72.1015 55.7749 70.0825C57.3349 68.1055 59.5648 65.2455 60.6948 63.7735C61.8348 62.3435 62.9748 60.9125 63.2248 60.7025C63.4748 60.4505 64.7349 58.9355 66.0449 57.3375C73.0749 48.4205 75.0948 45.9805 75.2648 45.7705C75.3848 45.6435 76.4348 44.3395 77.5748 42.8255C78.7148 41.3115 80.0148 39.7125 80.4348 39.2505C80.8548 38.7875 81.7848 37.5675 82.4948 36.6005C83.2148 35.5485 83.9249 34.9175 84.1449 35.1285C84.3549 35.3385 84.5648 47.3265 84.6048 61.7545L84.7248 88.0435H92.0948H99.4548L99.5848 52.5005C99.6248 32.9405 99.5848 16.5355 99.4548 15.9895C99.2448 15.0635 99.2048 15.0635 90.8748 15.0635H82.4948L79.8448 18.5125C78.3748 20.4055 76.5649 22.6355 75.8949 23.4345C74.4649 25.1165 65.7448 36.0535 63.4748 39.0395C62.6748 40.0915 61.9248 41.0165 61.7548 41.1435C61.3348 41.4795 52.8348 52.1635 51.4848 54.0565C50.7648 55.0665 50.0948 55.8655 49.8848 55.8655C49.7148 55.8655 49.2548 55.4445 48.8348 54.9825C48.4548 54.4775 47.9048 53.8885 47.6948 53.5935C46.9348 52.7945 42.5649 47.2425 40.2849 44.2135C39.0649 42.6575 37.9748 41.2695 37.8448 41.1435C37.6848 41.0165 36.3748 39.4185 34.9848 37.5675C33.5548 35.7165 30.8648 32.3095 28.9648 29.9965C27.0748 27.6825 23.8749 23.7285 21.8949 21.2055C19.8749 18.6395 17.9049 16.2415 17.5249 15.8205C16.8449 15.1475 15.9248 15.0635 8.55476 15.0635C2.37476 15.0635 0.264851 15.1895 0.144851 15.5685Z" fill="white"/>
<path d="M185.945 15.8205C185.945 16.2835 186.275 17.0825 186.695 17.6295C187.495 18.7655 188.005 19.6485 190.655 24.7385C191.705 26.7155 193.175 29.4495 193.935 30.8375C194.655 32.2255 195.785 34.2865 196.375 35.4645C197.005 36.6005 197.595 37.6515 197.725 37.7785C197.845 37.9045 198.485 39.0395 199.115 40.3015C199.785 41.5635 201.135 44.1295 202.145 45.9805C203.155 47.8315 204.705 50.7755 205.635 52.5005C206.565 54.2245 207.825 56.5805 208.455 57.7585C209.085 58.8935 210.345 61.2915 211.275 63.0165C212.205 64.7405 213.465 67.0125 214.005 68.0635C214.595 69.1155 215.945 71.5555 216.995 73.5325C218.005 75.5095 219.355 77.9485 219.945 79.0005C220.495 80.0515 221.545 81.9445 222.215 83.2065C222.935 84.4685 223.855 86.1515 224.325 86.8665L225.165 88.2545H232.655C238.375 88.2545 240.225 88.1285 240.605 87.7075C240.855 87.3705 241.705 85.8985 242.455 84.4265C243.765 81.9865 244.775 80.0935 248.775 72.6905C252.225 66.2975 253.025 64.9095 253.355 64.7825C253.525 64.6985 253.695 64.4045 253.695 64.1095C253.695 63.8155 254.155 62.7215 254.705 61.7125C255.295 60.7025 256.425 58.5155 257.315 56.9165C258.155 55.2765 258.995 53.7625 259.165 53.5515C259.335 53.2995 260.465 51.2385 261.695 48.9245C262.915 46.6115 264.425 43.7515 265.055 42.6155C266.275 40.3435 270.025 33.4455 270.735 32.1835C270.995 31.8055 272.215 29.4075 273.515 26.9255C274.825 24.4015 276.675 21.0365 277.635 19.3545C278.565 17.7135 279.365 16.0735 279.365 15.7365C279.365 15.1475 278.355 15.0635 271.455 15.0635C264.295 15.0635 263.415 15.1475 262.825 15.8205C262.405 16.2415 262.115 16.7465 262.115 16.8725C262.115 17.0405 261.645 17.8825 261.105 18.7655C260.555 19.6485 259.165 22.1725 257.985 24.3595C256.855 26.5475 255.545 28.9865 255.085 29.7855C252.475 34.4555 245.275 47.9155 245.275 48.1255C245.275 48.2095 244.855 49.0095 244.305 49.8925C243.765 50.7335 242.375 53.2575 241.195 55.4445C240.055 57.6325 238.625 60.2825 238.035 61.3335C237.455 62.3855 236.105 64.8665 235.005 66.8855C233.915 68.9475 232.865 70.5875 232.735 70.5875C232.355 70.5875 232.025 69.9985 229.705 65.7505C228.735 63.8995 226.805 60.4085 225.495 57.9685C224.195 55.5285 222.465 52.4165 221.715 51.0285C220.955 49.6395 219.185 46.3165 217.795 43.6665C216.405 41.0165 215.015 38.5355 214.685 38.1565C214.385 37.8205 214.135 37.1895 214.135 36.8105C214.135 36.4325 213.965 36.0535 213.755 35.9275C213.545 35.8015 212.875 34.7075 212.245 33.4875C210.935 30.9635 208.205 25.8745 206.645 23.0555C206.055 22.0045 204.875 19.8165 204.035 18.2185L202.435 15.2745L194.185 15.1475C186.365 15.0635 185.945 15.1055 185.945 15.8205Z" fill="white"/>
<path d="M287.365 15.9895C287.365 18.8915 287.365 87.2865 287.365 87.7075C287.365 88.4645 362.685 88.5065 363.445 87.7495C363.785 87.4125 363.955 85.3095 363.955 81.0195C363.955 77.6125 363.905 74.7515 363.865 74.7095C363.785 74.6255 349.935 74.4995 333.025 74.3735L302.295 74.1625L302.175 66.0025C302.085 59.7355 302.215 57.7585 302.595 57.4635C302.885 57.2955 311.935 57.1275 322.665 57.1275C333.605 57.1695 342.365 57.0015 342.575 56.7905C342.785 56.5805 343.625 54.5195 344.425 52.2475C345.225 49.9765 346.155 47.2845 346.525 46.2745C346.865 45.2655 347.115 44.2555 347.035 44.0035C346.905 43.7085 340.135 43.5825 325.315 43.6245C310.465 43.7085 303.525 43.5825 302.935 43.2465C302.135 42.8255 302.085 42.4055 302.085 36.3475C302.085 31.4685 302.215 29.7855 302.635 29.4075C303.055 29.0705 311.605 28.9025 332.015 28.8605L360.795 28.7345V22.0045V15.2745L324.095 15.1475L287.365 15.0635V15.9895Z" fill="white"/>
<path d="M374.266 15.5685C374.136 15.8625 374.096 32.3095 374.136 52.0795L374.266 88.0435L381.376 88.1705C385.286 88.2125 388.656 88.1285 388.866 87.9175C389.076 87.7075 389.246 75.6775 389.206 61.2075C389.206 34.3705 389.246 33.0245 390.716 35.0435C391.016 35.4225 391.896 36.4745 392.656 37.3155C393.456 38.1565 395.096 39.9655 396.316 41.3535C397.576 42.7415 400.606 45.9805 403.046 48.5465C407.126 52.7945 412.686 58.7255 419.546 66.1705C421.016 67.7695 423.836 70.7975 425.816 72.9015C427.796 74.9625 430.446 77.8225 431.706 79.1685C432.966 80.5565 435.406 83.1645 437.136 84.9735L440.246 88.2545L448.496 88.1705L456.746 88.0435V51.6595V15.2745L449.846 15.1475C446.016 15.1055 442.776 15.1895 442.566 15.4005C442.396 15.5685 442.226 27.5985 442.226 42.0685C442.186 61.0815 442.056 68.5265 441.726 68.7365C441.466 68.9055 440.886 68.5685 440.416 68.0215C439.996 67.4745 438.566 65.8765 437.266 64.4885C432.046 58.8515 424.556 50.8175 420.976 47.0325C418.916 44.8025 416.136 41.9005 414.916 40.5125C411.466 36.7685 407.216 32.2255 402.456 27.2625C400.146 24.8225 396.656 21.0785 394.676 18.9335L391.136 15.0635H382.806C376.496 15.0635 374.386 15.1895 374.266 15.5685Z" fill="white"/>
<path d="M155.214 109.833C151.054 111.221 149.154 113.661 149.154 117.489C149.154 120.686 150.044 122.41 152.564 124.009C156.394 126.448 161.784 126.575 165.654 124.303C168.014 122.957 168.434 122.158 166.964 121.695C166.374 121.485 165.784 121.695 165.194 122.242C163.804 123.546 162.204 124.009 159.174 124.009C156.064 124.009 154.044 123.125 152.144 120.98C151.094 119.76 150.964 119.34 151.134 117.447C151.304 114.755 152.604 113.03 155.304 111.852C158.414 110.464 162.034 110.801 165.064 112.778C166.284 113.577 167.464 113.619 167.714 112.82C167.924 112.189 165.024 110.296 162.964 109.749C160.854 109.16 157.114 109.202 155.214 109.833Z" fill="white"/>
<path d="M368.075 109.539C367.945 109.665 364.125 109.749 359.615 109.749C351.495 109.707 350.145 109.96 351.285 111.095C351.575 111.39 353.055 111.516 354.985 111.474C356.755 111.432 358.435 111.6 358.735 111.852C359.115 112.147 359.235 114.04 359.195 118.583C359.195 122.915 359.325 125.018 359.655 125.355C360.835 126.533 361.135 124.976 361.045 118.414C360.965 110.885 360.625 111.39 365.675 111.39C368.705 111.39 369.005 111.306 369.005 110.59C369.005 109.749 368.455 109.118 368.075 109.539Z" fill="white"/>
<path d="M442.435 110.128C440.205 111.263 439.285 112.441 439.285 114.124C439.285 116.227 440.885 117.279 444.545 117.573C450.815 118.078 452.955 118.54 453.925 119.634C454.935 120.812 454.815 121.485 453.165 122.957C452.365 123.672 451.655 123.798 447.955 123.798C444.285 123.798 443.445 123.672 441.845 122.831C440.035 121.863 439.915 121.863 439.405 122.621C438.905 123.252 438.945 123.462 439.575 123.925C442.225 125.859 449.925 126.448 453.255 124.976C456.745 123.42 457.715 120.349 455.395 118.078C454.225 116.9 453.845 116.774 448.665 116.227C442.775 115.638 441.385 115.133 441.385 113.577C441.385 112.82 441.805 112.399 443.365 111.726C445.635 110.717 448.535 110.843 452.245 112.063C453.925 112.609 454.555 112.694 454.935 112.315C456.195 111.053 452.795 109.749 447.695 109.455C444.665 109.286 443.865 109.371 442.435 110.128Z" fill="white"/>
<path d="M178.404 110.422C178.194 110.843 177.524 112.105 176.894 113.283C176.264 114.418 174.954 116.816 174.074 118.54C173.144 120.265 171.924 122.494 171.334 123.504C170.454 125.018 170.414 125.313 171.004 125.523C172.014 125.944 172.644 125.481 173.524 123.756C173.984 122.831 174.404 122.032 174.494 121.948C174.534 121.821 177.184 121.779 180.344 121.821L186.064 121.863L186.614 123.041C187.414 124.766 188.254 125.691 189.054 125.691C190.234 125.691 190.024 125.06 186.614 118.751C183.544 112.946 181.984 110.338 181.564 110.044C180.674 109.455 178.824 109.707 178.404 110.422ZM180.934 112.525C181.264 112.946 182.024 114.292 182.574 115.47C183.124 116.69 183.704 117.699 183.914 117.699C184.134 117.699 184.254 118.204 184.174 118.835L184.044 120.013H180.514C175.624 120.013 175.414 119.802 177.314 116.437C178.194 114.923 179.034 113.283 179.244 112.736C179.664 111.6 180.134 111.558 180.934 112.525Z" fill="white"/>
<path d="M193.304 110.212C193.174 110.506 193.134 114.082 193.224 118.12C193.304 125.187 193.344 125.481 194.144 125.481C194.904 125.481 194.984 125.144 195.114 122.41C195.194 119.887 195.364 119.382 195.954 119.382C196.334 119.382 199.154 119.298 202.144 119.256C208.324 119.171 209.844 118.625 210.684 116.269C211.354 114.46 211.314 113.787 210.474 112.315C209.124 109.96 208.204 109.707 200.504 109.707C195.284 109.707 193.434 109.833 193.304 110.212ZM207.194 111.894C208.954 112.694 209.424 116.017 207.824 116.858C206.724 117.447 196.084 117.489 195.494 116.9C194.734 116.143 195.074 112.525 195.914 111.894C196.834 111.221 205.674 111.221 207.194 111.894Z" fill="white"/>
<path d="M215.395 117.699V125.733L216.365 125.607C217.295 125.481 217.295 125.439 217.295 117.699C217.295 109.96 217.295 109.917 216.365 109.791L215.395 109.665V117.699Z" fill="white"/>
<path d="M221.035 110.17C220.495 111.053 221.585 111.39 225.165 111.432C228.445 111.474 228.825 111.558 229.035 112.357C229.155 112.82 229.205 115.848 229.115 119.045C229.035 123.588 229.115 124.976 229.585 125.355C230.805 126.364 231.095 125.06 231.015 119.256C230.965 116.143 231.055 113.114 231.225 112.483C231.475 111.348 231.515 111.348 234.965 111.432C238.715 111.516 239.465 111.306 239.095 110.338C238.925 109.791 237.405 109.707 230.125 109.707C224.235 109.707 221.245 109.875 221.035 110.17Z" fill="white"/>
<path d="M245.576 110.002C245.446 110.212 244.476 112.021 243.386 114.124C242.286 116.185 240.526 119.55 239.426 121.569C237.996 124.345 237.616 125.355 237.996 125.733C238.626 126.364 239.256 125.944 240.696 123.672L241.916 121.737L247.466 121.863C250.536 121.906 253.106 122.116 253.186 122.326C253.606 123.588 255.336 125.481 256.006 125.481C256.976 125.481 257.276 124.682 256.516 123.967C256.216 123.63 255.336 122.116 254.576 120.56C253.826 119.003 253.026 117.615 252.816 117.489C252.596 117.321 252.436 116.942 252.436 116.648C252.436 116.311 251.546 114.629 250.496 112.862C248.726 109.96 248.476 109.707 247.176 109.707C246.376 109.707 245.656 109.833 245.576 110.002ZM249.526 114.965C251.756 119.003 251.716 118.877 251.466 119.55C251.256 120.055 248.306 120.181 243.506 119.844C242.876 119.76 243.216 118.288 244.146 116.858C244.686 116.059 245.486 114.586 245.906 113.577C246.416 112.525 246.966 111.81 247.296 111.894C247.636 111.979 248.646 113.325 249.526 114.965Z" fill="white"/>
<path d="M260.846 117.447V125.271L265.816 125.355C276.206 125.523 275.366 125.565 275.366 124.64C275.366 123.84 275.036 123.798 269.186 123.672C264.676 123.588 262.916 123.42 262.866 123.041C262.786 122.789 262.746 119.676 262.746 116.227C262.746 110.002 262.746 109.917 261.816 109.791L260.846 109.665V117.447Z" fill="white"/>
<path d="M287.955 110.254C287.865 110.548 287.825 114.082 287.865 118.12C287.995 125.144 288.035 125.481 288.835 125.481C289.595 125.481 289.675 125.144 289.805 122.41L289.925 119.382L292.115 119.298C293.335 119.256 296.195 119.213 298.555 119.171C303.475 119.087 304.745 118.498 305.455 115.933C306.045 113.913 305.665 112.567 304.155 110.969L302.935 109.707H295.565C289.925 109.707 288.115 109.833 287.955 110.254ZM302.425 112.231C304.065 113.24 304.195 114.629 302.805 116.227C301.875 117.321 301.795 117.363 296.325 117.363C293.295 117.363 290.605 117.237 290.345 117.11C289.675 116.69 289.755 111.937 290.435 111.684C290.685 111.558 293.215 111.432 295.985 111.432C300.325 111.39 301.245 111.516 302.425 112.231Z" fill="white"/>
<path d="M314.886 110.044C314.636 110.212 313.246 112.61 311.766 115.386C307.896 122.789 307.606 123.294 307.016 124.135C306.596 124.724 306.636 124.934 307.136 125.271C308.066 125.86 308.486 125.607 309.666 123.63L310.716 121.821H316.316C319.386 121.821 321.996 121.906 322.036 121.948C322.126 122.032 322.586 122.915 323.086 123.883C323.676 125.06 324.266 125.691 324.816 125.691C326.116 125.691 326.206 124.892 325.106 123.252C324.566 122.41 323.726 120.938 323.256 120.013C318.926 111.179 317.956 109.707 316.436 109.707C315.856 109.707 315.136 109.875 314.886 110.044ZM317.876 113.619C318.166 114.502 318.926 115.975 319.516 116.858C320.736 118.667 320.906 119.634 320.106 119.886C319.636 120.013 313.996 120.013 312.616 119.844C311.856 119.76 312.146 118.456 313.456 116.353C314.166 115.26 314.716 114.166 314.716 113.998C314.716 113.24 316.106 111.768 316.696 111.894C317.026 111.979 317.576 112.736 317.876 113.619Z" fill="white"/>
<path d="M329.864 109.791C329.694 111.39 329.864 124.934 330.074 125.229C330.454 125.86 331.544 125.817 331.584 125.144C331.634 124.892 331.634 123.672 331.544 122.494C331.464 120.181 332.344 118.709 333.524 119.129C333.864 119.256 335.624 119.382 337.434 119.382H340.724L342.534 121.99C344.384 124.766 345.304 125.649 346.194 125.691C347.034 125.691 347.244 124.556 346.524 123.714C343.584 120.391 343.244 119.802 343.754 119.171C344.044 118.835 344.594 118.54 345.014 118.54C346.194 118.54 347.244 116.984 347.454 114.839C347.624 112.988 347.494 112.61 346.364 111.348L345.094 109.917L337.484 109.791C333.274 109.707 329.864 109.707 329.864 109.791ZM344.254 112.231C345.774 113.409 345.984 115.344 344.714 116.521C343.794 117.405 343.374 117.447 338.024 117.363C334.914 117.321 332.174 117.194 331.964 117.068C331.424 116.732 331.544 112.567 332.054 111.894C332.344 111.558 334.074 111.39 337.864 111.39C342.574 111.39 343.334 111.474 344.254 112.231Z" fill="white"/>
<path d="M373.046 110.044C372.956 110.212 372.836 113.619 372.836 117.573C372.786 123.336 372.916 124.85 373.426 125.271C374.646 126.28 374.896 125.271 374.896 118.919C374.896 111.768 374.976 111.6 377.626 114.46C378.556 115.428 381.206 118.288 383.476 120.77C387.356 124.934 387.816 125.271 389.246 125.271H390.806V117.447C390.806 109.665 390.806 109.665 389.916 109.791C389.036 109.917 388.996 110.086 388.906 116.227C388.866 120.391 388.696 122.579 388.366 122.663C387.896 122.831 387.436 122.326 380.236 114.46C376.496 110.296 375.776 109.707 374.596 109.707C373.886 109.707 373.166 109.875 373.046 110.044Z" fill="white"/>
<path d="M396.146 110.044C395.726 110.338 395.516 124.598 395.936 125.018C396.066 125.102 399.766 125.271 404.146 125.355C411.886 125.481 412.136 125.439 412.136 124.64C412.136 123.84 411.846 123.798 405.446 123.714C401.746 123.672 398.506 123.546 398.166 123.42C397.326 123.083 397.406 118.709 398.296 118.372C398.676 118.246 400.816 118.12 403.136 118.12C407.006 118.12 407.296 118.078 407.296 117.279C407.296 116.521 406.966 116.437 402.586 116.353L397.826 116.227V113.913V111.6L404.356 111.474C407.926 111.432 411.126 111.306 411.376 111.179C411.676 111.095 411.806 110.717 411.676 110.338C411.466 109.791 410.286 109.707 403.976 109.707C399.896 109.707 396.356 109.875 396.146 110.044Z" fill="white"/>
<path d="M417.145 110.254C417.065 110.548 417.015 114.082 417.065 118.12C417.185 125.144 417.225 125.481 418.025 125.481C418.785 125.481 418.875 125.144 418.995 122.452C419.085 120.602 419.295 119.382 419.625 119.256C419.925 119.171 421.945 119.213 424.135 119.34L428.125 119.592L429.435 121.611C431.245 124.387 432.545 125.691 433.475 125.691C434.655 125.691 434.355 124.598 432.545 122.284C431.625 121.106 430.865 119.971 430.865 119.76C430.865 119.55 431.365 119.129 432.045 118.793C433.935 117.825 434.775 116.563 434.735 114.881C434.655 112.778 434.025 111.306 432.845 110.548C431.575 109.665 417.485 109.413 417.145 110.254ZM431.665 112.399C432.215 112.904 432.545 113.703 432.545 114.586C432.545 116.858 431.535 117.194 425.055 117.321C421.985 117.363 419.415 117.321 419.295 117.236C419.205 117.11 419.085 115.933 419.035 114.586C418.955 112.862 419.125 112.063 419.545 111.768C419.885 111.558 422.535 111.432 425.435 111.474C429.985 111.6 430.905 111.726 431.665 112.399Z" fill="white"/>
</svg>
