<!-- Generator: Adobe Illustrator 26.0.1, SVG Export Plug-In . SVG Version: 6.00 Build 0)  -->
<svg version="1.1" id="Layer_1" xmlns="http://www.w3.org/2000/svg" xmlns:xlink="http://www.w3.org/1999/xlink" x="0px" y="0px"
	 viewBox="0 0 1247.16 452.53" style="enable-background:new 0 0 1247.16 452.53;" xml:space="preserve">
<g>
	<path class="st0" d="M104.87,260.79c-0.18,0.38-0.27,0.49-0.27,0.6c-0.25,5.49-1.12,10.94-0.46,16.48
		c0.44,3.71,0.39,7.46,0.32,11.2c-0.06,3.25,0.04,6.5,0.03,9.75c-0.01,3.55-0.06,7.11-0.08,10.66c-0.01,2.94-0.01,5.88,0.01,8.82
		c0.02,2.64,0.1,5.27,0.1,7.91c-0.01,2.82,0.03,5.64-0.04,8.45c-0.08,3.31,0.1,6.62-0.05,9.93c-0.25,5.57-0.16,11.16-0.2,16.74
		c-0.02,2.77-0.17,2.9-3.03,3.22c-0.91,0.1-1.65-0.06-2.43-0.53c-3.83-2.33-7.47-4.96-11.22-7.4c-3.91-2.55-7.73-5.22-11.66-7.74
		c-4.44-2.84-8.77-5.87-13.15-8.81c-1.22-0.82-2.45-1.64-3.71-2.4c-1.06-0.65-1.52-1.55-1.43-2.77c0.04-0.49,0-0.98,0-1.47
		c0-49.52,0-99.04,0-148.56c0-0.55,0.03-1.11,0-1.66c-0.05-0.99,0.31-1.77,1.02-2.46c0.8-0.76,1.58-1.54,2.28-2.41
		c0.75-0.93,1.08-0.93,2.19-0.21c2.88,1.87,5.76,3.75,8.63,5.63c5.24,3.43,10.42,6.92,15.71,10.27c4.46,2.82,8.73,5.94,13.21,8.73
		c4.95,3.09,9.67,6.51,14.62,9.6c3.22,2,6.4,4.09,9.56,6.21c2.85,1.91,5.78,3.7,8.66,5.56c2.68,1.73,5.34,3.5,8.02,5.23
		c2.63,1.7,5.27,3.37,7.91,5.05c0.67,0.43,1.32,0.89,1.99,1.32c7.82,4.98,15.64,9.95,23.45,14.95c2.53,1.62,4.98,3.37,7.51,4.99
		c2.64,1.69,5.35,3.26,7.98,4.94c3.36,2.14,6.68,4.36,10.03,6.51c2.12,1.36,4.28,2.64,6.4,4c2.53,1.62,5.04,3.27,7.56,4.91
		c0.98,0.64,1.96,1.27,2.94,1.9c1.87,1.22,1.99,1.21,3.77,0.03c3.17-2.1,6.35-4.2,9.53-6.29c6.2-4.07,12.41-8.15,18.62-12.21
		c6.06-3.96,12.03-8.05,18.1-11.99c4.84-3.14,9.66-6.31,14.49-9.47c4.47-2.93,8.98-5.79,13.38-8.81c4.6-3.16,9.33-6.13,14-9.19
		c3.08-2.02,6.15-4.05,9.24-6.06c3.19-2.08,6.39-4.12,9.57-6.22c4.35-2.88,8.65-5.81,13-8.68c3.9-2.57,7.84-5.07,11.73-7.64
		c2.76-1.82,5.48-3.71,8.24-5.53c3.95-2.6,7.93-5.14,11.88-7.74c0.77-0.51,1.35-0.43,1.93,0.23c0.08,0.09,0.17,0.17,0.26,0.26
		c4.03,4.07,3.5,2.59,3.51,8.26c0.01,48.23,0.01,96.46,0.01,144.69c0,0.61-0.05,1.23,0.01,1.84c0.25,2.5-0.93,4.26-2.89,5.58
		c-2.14,1.44-4.32,2.81-6.51,4.19c-6.86,4.32-13.66,8.7-20.25,13.42c-3.79,2.72-7.77,5.16-11.65,7.76
		c-0.78,0.52-1.42,0.49-2.18-0.05c-2.32-1.65-2.34-1.62-2.34-4.61c0-32.07,0-64.14,0-96.22c0-0.61,0.03-1.23-0.02-1.84
		c-0.09-0.99-0.4-1.14-1.32-0.65c-0.54,0.29-1.09,0.59-1.58,0.94c-4.44,3.18-9.2,5.88-13.68,9c-2.31,1.61-4.79,2.98-7.17,4.51
		c-4.95,3.19-9.89,6.4-14.83,9.6c-4.69,3.03-9.37,6.06-14.06,9.1c-3.6,2.34-7.18,4.71-10.79,7.03c-4.96,3.18-10.03,6.21-14.88,9.54
		c-3.65,2.5-7.44,4.77-11.05,7.31c-2.16,1.51-4.45,2.83-6.67,4.26c-6.04,3.89-12.07,7.79-18.1,11.68c-2.11,1.36-2.79,1.3-4.83-0.08
		c-5.75-3.89-11.53-7.72-17.29-11.6c-2.54-1.71-5.09-3.41-7.57-5.22c-2.03-1.48-4.19-2.78-6.29-4.17c-2.76-1.84-5.52-3.67-8.26-5.53
		c-3.7-2.52-7.41-5.02-11.16-7.46c-3.4-2.2-6.68-4.58-10.04-6.83c-4.64-3.11-9.33-6.13-13.94-9.28c-3.29-2.25-6.56-4.55-9.92-6.7
		c-2.95-1.88-5.81-3.89-8.72-5.83c-3.11-2.08-6.22-4.16-9.28-6.33C109.24,263.48,107.2,262.02,104.87,260.79z"/>
	<path class="st0" d="M57.62,119.64c0-7.5,0.03-14.99-0.02-22.49c-0.01-1.92,0.51-3.36,2.35-4.16c0.27-0.12,0.51-0.34,0.74-0.54
		c1.58-1.31,1.71-1.36,3.56-0.36c5.29,2.87,10.85,5.19,16.24,7.85c3.3,1.63,6.66,3.14,9.93,4.83c3.43,1.78,6.99,3.3,10.48,4.97
		c3.21,1.54,6.39,3.13,9.6,4.67c5.04,2.41,10.03,4.91,15.07,7.31c5.26,2.51,10.55,4.98,15.75,7.63c3.21,1.64,6.49,3.22,9.83,4.59
		c1.66,0.68,3.16,1.64,4.76,2.41c3.59,1.73,7.27,3.25,10.74,5.23c1.54,0.88,3.2,1.56,4.83,2.27c4.95,2.16,9.69,4.77,14.64,6.93
		c1.67,0.73,3.28,1.66,4.94,2.45c4.26,2.05,8.53,4.08,12.78,6.14c3.15,1.53,6.27,3.1,9.42,4.63c2.7,1.31,5.44,2.55,8.14,3.87
		c0.92,0.45,1.72,0.29,2.63-0.08c2.34-0.95,4.44-2.36,6.68-3.49c2.41-1.22,4.83-2.41,7.27-3.56c1.45-0.68,2.74-1.63,4.16-2.36
		c4.85-2.51,9.78-4.86,14.59-7.46c5.45-2.96,11.08-5.57,16.6-8.38c4.92-2.51,9.79-5.11,14.7-7.64c2.94-1.52,5.92-2.99,8.87-4.5
		c4.92-2.52,9.82-5.07,14.74-7.58c3.23-1.65,6.52-3.16,9.7-4.9c3.07-1.68,6.24-3.17,9.33-4.81c3.2-1.7,6.45-3.31,9.66-4.97
		c5.12-2.65,10.23-5.34,15.37-7.97c2.79-1.43,5.63-2.74,8.42-4.16c2.4-1.23,4.76-2.54,7.15-3.81c0.49-0.26,0.97-0.57,1.49-0.72
		c0.94-0.28,1.78-1.23,2.91-0.39c1.4,1.04,2.81,2.04,2.89,4.02c0.02,0.43,0.02,0.86,0.02,1.29c0,14.68,0,29.37-0.01,44.05
		c0,0.73-0.04,1.47-0.13,2.2c-0.08,0.61-0.25,1.25-0.74,1.65c-2.9,2.36-5.05,5.5-8.18,7.63c-2.79,1.9-5.67,3.65-8.51,5.47
		c-4.03,2.59-8.02,5.23-12.16,7.64c-3.88,2.25-7.45,4.98-11.36,7.19c-2.35,1.33-4.51,2.97-6.78,4.44
		c-3.92,2.53-7.86,5.01-11.77,7.55c-4.89,3.18-9.72,6.44-14.62,9.59c-4.64,2.99-9.17,6.15-13.85,9.09
		c-4.46,2.81-8.68,6.01-13.16,8.78c-4.54,2.81-8.86,5.95-13.37,8.81c-4.76,3.03-9.38,6.29-14.09,9.41
		c-3.53,2.34-7.11,4.6-10.65,6.93c-2.72,1.79-5.39,3.63-8.09,5.45c-2.24,1.5-4.47,3.02-6.74,4.48c-1.15,0.74-2.5,1-3.81,1.35
		c-0.88,0.24-1.79,0.34-2.58,0.92c-0.78,0.57-1.51,0.14-2.2-0.32c-2.14-1.43-4.29-2.87-6.43-4.3c-6.49-4.31-12.95-8.68-19.5-12.91
		c-6.29-4.06-12.54-8.18-18.77-12.32c-6.18-4.11-12.38-8.2-18.59-12.26c-4.52-2.95-9.09-5.82-13.6-8.79
		c-3.69-2.43-7.28-4.99-10.97-7.41c-4.56-3.01-9.18-5.93-13.75-8.91c-2.67-1.74-5.24-3.64-7.97-5.3c-3.46-2.11-6.69-4.55-10.13-6.7
		c-3.65-2.28-7.21-4.68-10.81-7.03c-2.52-1.64-5.08-3.22-7.53-4.95c-4.82-3.39-9.94-6.32-14.71-9.79c-1.24-0.9-2.55-1.71-3.88-2.47
		c-1.15-0.66-1.54-1.58-1.53-2.88C57.64,135,57.62,127.32,57.62,119.64z"/>
	<path class="st0" d="M555.62,151.72c0,19.05,0,38.09,0,57.14c0,3.04,0,3.04-3.06,3.04c-3.69,0-7.37,0.01-11.06-0.01
		c-1.94-0.01-2.13-0.19-2.14-2.1c-0.02-3.75-0.01-7.5-0.01-11.24c0-21.81,0-43.62-0.01-65.43c0-0.61,0-1.23-0.02-1.84
		c-0.02-0.5-0.07-1.01-0.69-1.15c-0.52-0.12-0.98,0.02-1.33,0.44c-0.23,0.28-0.45,0.59-0.64,0.9c-1.93,3.06-3.77,6.18-5.81,9.17
		c-2.62,3.86-5.02,7.86-7.38,11.87c-2.39,4.08-4.93,8.07-7.23,12.2c-1.46,2.62-3.23,5.08-4.73,7.68c-2.42,4.2-5.23,8.16-7.6,12.4
		c-1.52,2.73-3.33,5.29-4.98,7.95c-0.84,1.35-1.63,2.74-2.44,4.12c-0.16,0.26-0.29,0.54-0.44,0.81c-0.93,1.69-2.2,2.68-4.3,2.41
		c-1.27-0.17-2.58-0.07-3.87-0.02c-1.11,0.04-1.84-0.41-2.4-1.36c-2.95-5.03-5.92-10.04-8.92-15.05c-1.64-2.74-3.43-5.39-4.99-8.17
		c-1.41-2.52-2.99-4.93-4.45-7.42c-1.89-3.23-3.86-6.41-5.82-9.59c-2.99-4.86-5.82-9.82-8.72-14.73c-2.19-3.7-4.39-7.39-6.59-11.07
		c-0.35-0.58-0.7-1.17-1.27-1.56c-0.8-0.53-1.46-0.26-1.59,0.69c-0.09,0.66-0.06,1.35-0.06,2.02c0,24.45,0,48.91,0,73.36
		c0,0.74,0.03,1.48-0.04,2.21c-0.16,1.52-1.13,2.45-2.67,2.49c-2.09,0.06-4.18,0.02-6.27,0.02c-3.32,0-6.64,0.02-9.96-0.01
		c-1.72-0.02-2.06-0.36-2.09-2.05c-0.03-2.03-0.03-4.05,0.19-6.07c0.11-1.03,0.13-2.08,0.13-3.13c0.01-8.66-0.27-17.34,0.09-25.99
		c0.44-10.56-0.11-21.13,0.36-31.68c0.44-9.89-0.06-19.78,0.36-29.65c0.3-6.82,0.2-13.63,0.3-20.44c0.03-1.81,0.22-2.02,2.02-2.03
		c3.81-0.02,7.62,0,11.43-0.01c1.1,0,2.16,0.21,2.76,1.17c1.21,1.94,2.93,3.47,4.1,5.43c2.52,4.21,5.09,8.39,7.5,12.67
		c1.75,3.1,3.64,6.12,5.4,9.22c2.3,4.05,4.82,7.97,7.13,12.01c3.68,6.44,7.61,12.74,11.41,19.12c3.02,5.06,5.98,10.15,8.99,15.21
		c1.66,2.79,3.36,5.56,5.08,8.32c0.81,1.3,1,1.29,1.8-0.07c2.17-3.7,4.27-7.45,6.31-11.24c2.47-4.59,5.08-9.1,7.63-13.64
		c1.35-2.41,2.7-4.81,4.05-7.22c2.88-5.14,5.65-10.34,8.61-15.44c2.86-4.94,5.5-10,8.27-14.99c2.5-4.51,5.05-8.99,7.57-13.48
		c0.96-1.71,1.95-3.41,2.81-5.16c0.64-1.3,1.49-1.95,3.01-1.93c4.49,0.06,8.97,0.01,13.46,0.03c2.36,0.01,2.78,0.43,2.78,2.82
		c0.01,10.01,0.01,20.03,0.01,30.04C555.62,133.05,555.62,142.38,555.62,151.72z"/>
	<path class="st0" d="M1040.73,177.38c0.32-0.85,0.18-1.65,0.18-2.44c0.01-27.95,0.01-55.91,0.01-83.86c0-3.24,0-3.24,3.24-3.24
		c3.87,0,7.74-0.01,11.61,0c2.15,0.01,3.38,1.17,3.57,3.34c0.05,0.61,0.03,1.23,0.03,1.84c0,38.15,0,76.3,0,114.45
		c0,0.8,0.03,1.61-0.11,2.39c-0.25,1.44-0.92,2.02-2.38,2.03c-4.12,0.03-8.23,0-12.35,0.02c-0.94,0.01-1.64-0.33-2.22-1.06
		c-2.33-2.93-4.67-5.85-7.03-8.76c-3.47-4.29-7.09-8.47-10.4-12.88c-2.91-3.88-6.22-7.43-9.09-11.34c-2.21-3.01-4.69-5.83-7.03-8.75
		c-3.37-4.22-6.71-8.47-10.08-12.68c-3.53-4.4-7.09-8.78-10.63-13.17c-3.11-3.87-6.2-7.76-9.31-11.64
		c-1.65-2.06-3.28-4.13-4.96-6.16c-0.4-0.49-0.71-1.13-1.48-1.39c-0.38,0.83-0.23,1.63-0.23,2.4c-0.01,26.72-0.01,53.45-0.01,80.17
		c0,0.98,0.05,1.97-0.04,2.95c-0.15,1.65-0.84,2.29-2.49,2.3c-5.16,0.02-10.32,0.03-15.49,0c-1.59-0.01-1.91-0.38-1.99-1.98
		c-0.03-0.55-0.01-1.11-0.01-1.66c0-39.01,0-78.02,0-117.03c0-3.38,0-3.38,3.3-3.38c3.81,0,7.62,0.04,11.43-0.02
		c1.28-0.02,2.23,0.4,3.04,1.37c1.58,1.88,3.03,3.87,4.59,5.76c2.11,2.56,4.14,5.18,6.22,7.76c2.42,3.01,4.83,6.03,7.24,9.05
		c4.44,5.55,8.92,11.08,13.31,16.67c2.88,3.66,5.88,7.24,8.66,10.98c1.83,2.46,3.89,4.75,5.8,7.15c4.47,5.61,8.9,11.26,13.37,16.87
		c3.59,4.51,7.21,9,10.82,13.5C1040.01,177.15,1040.23,177.37,1040.73,177.38z"/>
	<path class="st0" d="M833.68,149.86c0-19.66,0-39.33,0-58.99c0-3.03,0-3.04,3.08-3.04c27.23,0,54.46,0,81.69,0
		c2.69,0,3.51,0.76,3.72,3.54c0.07,0.98,0.03,1.97,0.03,2.95c0,2.64-0.11,5.29,0.04,7.92c0.12,2.05-1.49,3.51-3.54,3.49
		c-12.05-0.09-24.09-0.04-36.14-0.04c-8.3,0-16.6,0-24.89,0c-0.55,0-1.11,0.01-1.66,0.02c-0.74,0.01-1.14,0.37-1.16,1.12
		c-0.01,0.49-0.02,0.98-0.02,1.47c0,9.77,0,19.54,0,29.31c0,2.68,0.01,2.69,2.62,2.69c17.46,0,34.91,0,52.37,0
		c0.68,0,1.35-0.02,2.03,0.02c1.93,0.12,3.24,1.35,3.33,3.26c0.08,1.53,0.16,3.09-0.04,4.6c-0.25,1.9-0.23,3.8-0.26,5.7
		c0,0.43,0,0.86-0.05,1.29c-0.24,1.87-0.88,2.47-2.74,2.48c-3.87,0.02-7.74,0.01-11.62,0.01c-14.14,0-28.27,0-42.41,0
		c-0.18,0-0.37,0-0.55,0c-2.64,0.01-2.68,0.04-2.68,2.67c0,10.75,0,21.51,0,32.26c0,0.37-0.01,0.74,0.02,1.11
		c0.1,1.14,0.3,1.35,1.47,1.44c0.55,0.04,1.11,0.02,1.66,0.02c20.96,0,41.92,0,62.88,0c0.74,0,1.48-0.02,2.21,0.07
		c1.81,0.22,2.5,0.96,2.51,2.75c0.03,3.81,0.03,7.62,0,11.43c-0.02,2.03-0.47,2.48-2.53,2.48c-8.73,0.01-17.46,0.01-26.18,0.01
		c-20.04,0-40.07,0-60.11,0c-3.05,0-3.05,0-3.05-3.05C833.68,189.19,833.68,169.53,833.68,149.86z"/>
	<path class="st0" d="M664.55,361.14c-2.83,0-5.65-0.02-8.48,0.01c-1.12,0.01-1.73-0.37-2.17-1.5c-1.82-4.69-3.74-9.34-5.69-13.98
		c-1.52-3.62-2.98-7.27-4.36-10.95c-1.12-2.97-3.56-4.1-6.55-4.15c-4.12-0.06-8.25,0.21-12.35-0.07c-8.78-0.6-17.57-0.34-26.35-0.23
		c-5.4,0.07-10.8,0.15-16.2,0.32c-3.08,0.1-5.41,1.54-6.91,4.41c-2.36,4.54-3.94,9.38-5.83,14.11c-1.23,3.07-2.24,6.23-3.63,9.24
		c-0.89,1.93-2.12,2.91-4.41,2.84c-4.85-0.15-9.71-0.04-14.57-0.05c-2.69-0.01-2.94-0.53-1.75-2.89c1.14-2.24,2.1-4.57,3.14-6.85
		c1.77-3.91,3.53-7.83,5.32-11.73c0.71-1.56,1.42-3.13,2.06-4.71c1.74-4.27,3.89-8.35,5.69-12.59c1.08-2.54,2.18-5.07,3.32-7.59
		c2.53-5.59,5.16-11.13,7.6-16.76c0.85-1.97,1.82-3.88,2.61-5.88c0.89-2.28,2.07-4.45,3.07-6.69c1.76-3.92,3.37-7.91,5.24-11.77
		c1.88-3.87,3.39-7.89,5.34-11.72c1.66-3.28,3-6.72,4.5-10.08c1.8-4.04,3.61-8.07,5.42-12.1c0.18-0.39,0.44-0.76,0.54-1.17
		c0.39-1.67,1.41-2.17,3.09-2.14c5.1,0.09,10.2,0.08,15.3,0.01c1.48-0.02,2.28,0.47,2.97,1.84c2.39,4.78,4.51,9.67,6.61,14.57
		c0.63,1.46,1.44,2.84,2.09,4.3c2.43,5.43,5.07,10.77,7.44,16.23c2.84,6.53,5.9,12.95,8.89,19.41c2.16,4.68,4.24,9.4,6.4,14.09
		c2.31,5.02,4.78,9.96,7.01,15.01c1.04,2.35,2.08,4.71,3.13,7.05c1.17,2.63,2.47,5.21,3.65,7.84c2.53,5.66,5.06,11.32,7.55,17
		c0.64,1.46,1.16,2.97,1.84,4.42c0.83,1.77,0.11,2.85-1.9,2.89C670.33,361.18,667.44,361.14,664.55,361.14z M610.71,257.56
		c-0.36,0.05-0.47,0.36-0.64,0.61c-0.92,1.39-1.5,2.94-2.14,4.47c-1.19,2.82-2.52,5.59-3.79,8.38c-1.58,3.46-3.16,6.92-4.75,10.37
		c-1.59,3.46-3.2,6.9-4.77,10.36c-0.38,0.83-0.62,1.73-1,2.57c-1.38,3.01-2.79,6-4.18,9.01c-1.46,3.17-2.85,6.38-4.35,9.53
		c-1.18,2.46-1.2,2.49,1.47,2.49c15.48,0,30.95,0,46.43-0.01c0.43,0,0.86,0.02,1.29-0.01c1.16-0.09,1.36-0.34,0.96-1.36
		c-1.88-4.73-3.71-9.48-5.7-14.16c-3.31-7.79-6.7-15.54-10.1-23.29c-2.66-6.06-5.38-12.1-8.08-18.15
		C611.22,258.05,611.16,257.65,610.71,257.56z"/>
	<path class="st0" d="M638.57,88.2c2.58,0,5.16,0.03,7.74-0.01c1.58-0.03,2.62,0.53,3.29,2.08c1.75,3.99,3.73,7.88,5.47,11.87
		c2.26,5.17,4.72,10.25,6.97,15.42c1.61,3.71,3.49,7.31,5.12,11.02c2.25,5.11,4.74,10.1,6.94,15.23c1.47,3.43,3.18,6.77,4.73,10.18
		c2.53,5.59,5.24,11.1,7.61,16.77c0.71,1.69,1.65,3.28,2.38,4.98c1.18,2.76,2.4,5.52,3.72,8.21c1.68,3.42,3.2,6.9,4.76,10.37
		c1.78,3.98,3.46,8,5.19,11.99c0.24,0.56,0.46,1.15,0.8,1.65c0.78,1.14,0.44,2.26-0.06,3.32c-0.47,0.99-1.39,1.3-2.46,1.29
		c-2.64-0.02-5.29,0-7.93,0c-2.58,0-5.16-0.03-7.74,0.01c-1.18,0.02-1.9-0.33-2.36-1.54c-2.55-6.78-5.6-13.36-8.12-20.15
		c-0.64-1.72-1.5-3.36-2.17-5.07c-0.95-2.45-3.13-3.3-5.5-3.76c-0.42-0.08-0.86-0.04-1.29-0.04c-14.07-0.03-28.15-0.07-42.22-0.09
		c-3.93,0-7.87,0.07-11.8,0.08c-3.19,0.01-5.46,1.57-7.11,4.16c-1.97,3.09-2.89,6.62-4.24,9.98c-1.12,2.79-2.21,5.59-3.31,8.38
		c-0.85,2.17-1.75,4.33-2.5,6.53c-0.39,1.14-1.06,1.53-2.19,1.52c-5.72-0.02-11.43,0.01-17.15-0.02c-1.69-0.01-1.98-0.51-1.3-2.05
		c2.58-5.84,5.15-11.68,7.84-17.46c3.06-6.57,5.9-13.23,8.95-19.8c1.73-3.72,3.3-7.54,5-11.27c3.06-6.7,6.05-13.44,9.1-20.14
		c2.39-5.25,4.7-10.53,7.06-15.79c0.93-2.07,1.92-4.12,2.85-6.19c1.82-4.02,3.61-8.06,5.42-12.08c1.61-3.58,3.24-7.16,4.85-10.75
		c1.05-2.35,2.1-4.7,3.1-7.07c0.66-1.55,0.85-1.74,2.61-1.75C633.29,88.19,635.93,88.2,638.57,88.2z M639.67,108.95
		c-0.51,0.06-0.66,0.34-0.78,0.62c-2.04,4.46-4.08,8.92-6.11,13.38c-2.18,4.8-4.33,9.61-6.53,14.4c-1.8,3.9-3.59,7.8-5.37,11.7
		c-2.34,5.13-4.63,10.28-6.91,15.44c-0.98,2.21-0.95,2.32,1.51,2.32c15.66,0.01,31.32,0,46.98,0c0.43,0,0.86,0,1.29-0.04
		c0.56-0.05,0.73-0.41,0.59-0.91c-0.1-0.35-0.25-0.69-0.41-1.02c-1.08-2.13-1.81-4.42-2.76-6.61c-2.17-5-4-10.15-6.27-15.12
		c-3.44-7.53-6.75-15.12-10-22.74c-0.87-2.03-1.89-3.98-2.7-6.04C641.46,112.47,640.6,110.67,639.67,108.95z"/>
	<path class="st0" d="M1073.45,361.92c-2.7,0-5.41-0.06-8.11,0.02c-1.48,0.04-2.33-0.4-2.9-1.89c-1.98-5.15-4.11-10.25-6.21-15.35
		c-1.33-3.23-2.7-6.45-3.9-9.74c-0.4-1.11-1.36-1.73-2.29-2.31c-1.43-0.89-2.99-1.38-4.72-1.33c-1.97,0.06-3.94,0.07-5.9,0
		c-10.44-0.39-20.89-0.45-31.33-0.28c-5.59,0.09-11.18,0.19-16.76,0.35c-3.15,0.09-5.55,1.8-7.07,4.6c-1.85,3.41-3.04,7.1-4.45,10.7
		c-1.79,4.57-3.42,9.2-5.37,13.71c-0.46,1.07-1.07,1.52-2.21,1.52c-5.72-0.02-11.43-0.01-17.15-0.01c-0.25,0-0.5,0-0.74-0.04
		c-0.9-0.16-1.16-0.56-0.8-1.43c0.37-0.91,0.86-1.76,1.27-2.66c1.83-4.02,3.65-8.04,5.46-12.07c1.56-3.47,3.08-6.95,4.62-10.43
		c0.75-1.68,1.49-3.37,2.25-5.05c3.12-6.88,6.31-13.72,9.34-20.63c2.44-5.56,5.05-11.04,7.38-16.65c1.58-3.79,3.54-7.42,5.15-11.21
		c1.53-3.62,3.38-7.1,4.73-10.79c0.61-1.67,1.49-3.23,2.21-4.86c2.32-5.28,4.82-10.48,7.2-15.73c1.6-3.52,3.19-7.05,4.65-10.62
		c0.63-1.55,1.58-2.16,3.21-2.14c5.1,0.05,10.2,0.04,15.3,0.01c1.51-0.01,2.43,0.51,3.16,1.95c1.49,2.96,2.77,6.01,4.09,9.04
		c0.59,1.35,1.18,2.7,1.84,4.01c2.72,5.37,4.88,10.99,7.59,16.37c1.71,3.39,3.1,6.94,4.68,10.4c1.73,3.8,3.53,7.57,5.27,11.36
		c1.66,3.62,3.28,7.27,4.95,10.89c0.97,2.11,1.98,4.21,3.02,6.29c0.83,1.65,1.46,3.38,2.24,5.05c2.39,5.05,4.64,10.16,6.96,15.24
		c1.68,3.68,3.42,7.35,5.09,11.04c1.85,4.08,3.7,8.16,5.36,12.33c0.91,2.28,2,4.48,3.06,6.7c1.35,2.83,0.88,3.61-2.24,3.62
		C1078.73,361.92,1076.09,361.92,1073.45,361.92z M1019.49,258.34c-0.54,0.28-0.66,0.71-0.83,1.09c-2.35,5.12-4.69,10.25-7.02,15.37
		c-1.88,4.13-3.68,8.31-5.63,12.41c-2.42,5.1-4.56,10.32-7.03,15.4c-1.85,3.8-3.45,7.73-5.18,11.59c-0.8,1.79-0.76,1.88,1.23,1.91
		c0.25,0,0.49,0,0.74,0c15.24,0,30.48,0,45.72,0c0.49,0,0.99,0.02,1.47-0.03c1.17-0.11,1.36-0.44,0.91-1.56
		c-1.57-3.93-3.14-7.86-4.75-11.77c-1.71-4.14-3.33-8.33-5.23-12.39c-2.5-5.34-4.64-10.82-7.13-16.16c-1.77-3.78-3.45-7.6-5-11.47
		C1021.15,261.22,1020.27,259.83,1019.49,258.34z"/>
	<path class="st0" d="M690.13,299.96c0-19.66,0-39.32,0-58.98c0-3,0-3,2.92-3c18.31,0,36.63,0.01,54.94-0.02
		c2.23,0,4.42,0.21,6.58,0.69c6.81,1.52,13.37,3.68,19.31,7.47c6.95,4.43,12,10.38,14.84,18.18c1.96,5.37,2.93,10.87,2.94,16.58
		c0.01,3.82-0.16,7.6-1.06,11.33c-1.09,4.53-2.98,8.67-5.62,12.51c-3.61,5.22-8.04,9.59-13.38,13c-4.04,2.58-8.46,4.18-13.25,4.72
		c-4.09,0.46-8.2,0.51-12.3,0.83c-4.71,0.37-9.44,0.28-14.14,0.76c-2.76,0.29-5.53,0.08-8.27,0.36c-4.3,0.44-8.59,0.19-12.89,0.29
		c-1.93,0.04-2.08,0.17-2.08,2.14c-0.01,10.08,0,20.15-0.01,30.23c0,0.8-0.01,1.6-0.14,2.39c-0.34,2.08-0.81,2.48-2.91,2.48
		c-4.42,0.02-8.85,0.01-13.27,0.01c-0.25,0-0.49,0.01-0.74-0.02c-1.12-0.12-1.36-0.34-1.45-1.48c-0.05-0.61-0.02-1.23-0.02-1.84
		C690.13,339.03,690.13,319.5,690.13,299.96z M708.66,285c0,2.09,0,4.18,0,6.27c0,5.47,0.01,10.93-0.01,16.4
		c-0.01,2.3,0.45,2.01,1.92,1.91c3.06-0.22,6.13-0.18,9.19-0.4c4.28-0.32,8.58-0.23,12.87-0.34c7.31-0.2,14.59-0.51,21.83-1.54
		c2.99-0.43,5.94-1.06,8.54-2.7c3.75-2.36,5.97-5.96,7.6-9.92c1.79-4.36,2.55-8.95,2.57-13.66c0.01-2.39-0.11-4.78-0.28-7.17
		c-0.42-5.77-2.41-10.84-6.19-15.22c-2.21-2.56-5.04-4.18-8.24-4.96c-6.22-1.52-12.56-2.09-18.98-2.07
		c-9.28,0.02-18.55,0.35-27.83,0.04c-0.43-0.01-0.86-0.02-1.29,0.04c-1.13,0.14-1.53,0.54-1.5,1.67c0.13,3.87-0.17,7.72-0.18,11.59
		C708.65,271.61,708.66,278.31,708.66,285z"/>
	<path class="st0" d="M704.22,87.84c2.83,0,5.65,0.03,8.48-0.02c1.21-0.02,1.93,0.43,2.4,1.56c1.97,4.69,4.15,9.29,6.08,14.01
		c1.55,3.8,3.38,7.5,5.02,11.27c2.33,5.34,4.6,10.71,6.9,16.07c0.97,2.26,1.95,4.5,2.94,6.75c0.89,2.02,1.82,4.02,2.69,6.05
		c1.98,4.63,4.14,9.18,6.04,13.83c2.2,5.4,4.8,10.62,6.9,16.06c1.02,2.63,2.31,5.15,3.44,7.74c0.76,1.74,1.4,3.53,2.31,5.21
		c0.18,0.32,0.31,0.72,0.76,0.67c0.34-0.04,0.42-0.39,0.55-0.67c1.42-3.26,2.84-6.53,4.26-9.79c2.25-5.17,4.52-10.34,6.76-15.53
		c1.77-4.11,3.44-8.27,5.29-12.35c1.92-4.25,3.53-8.63,5.58-12.83c0.78-1.6,1.47-3.25,2.12-4.9c1.76-4.45,3.68-8.83,5.71-13.17
		c0.91-1.94,1.55-4,2.44-5.96c2.55-5.65,4.91-11.38,7.37-17.07c0.68-1.58,1.46-3.11,2.12-4.69c0.47-1.14,1.28-1.4,2.44-1.53
		c3.43-0.4,6.86-0.26,10.29-0.4c1.59-0.07,3.16-0.39,4.77-0.31c0.73,0.04,1.71-0.13,1.94,0.68c0.28,0.98,1.29,1.84,0.58,3.07
		c-0.77,1.32-1.32,2.75-1.92,4.17c-2,4.75-4.1,9.46-6.18,14.18c-1.74,3.93-3.52,7.84-5.25,11.77c-1.44,3.25-2.84,6.53-4.26,9.79
		c-1.94,4.44-3.89,8.88-5.81,13.33c-1.68,3.89-3.45,7.73-5.05,11.66c-1.36,3.35-2.97,6.6-4.43,9.91c-1.86,4.21-3.58,8.47-5.53,12.64
		c-1.85,3.95-3.34,8.04-5.3,11.94c-1.24,2.46-2.14,5.09-3.24,7.62c-1.74,3.99-3.54,7.95-5.28,11.94c-0.47,1.07-1.18,1.62-2.35,1.76
		c-4.05,0.49-8.09,0.48-12.11-0.16c-1.17-0.19-2.32-0.26-3.48-0.21c-1.2,0.05-1.97-0.38-2.47-1.49c-1.04-2.35-2.15-4.68-3.22-7.02
		c-1.14-2.51-2.38-4.98-3.38-7.55c-1.54-3.95-3.52-7.7-5.16-11.6c-1.05-2.48-2.17-4.94-3.37-7.36c-1.61-3.24-2.89-6.64-4.34-9.95
		c-1.08-2.47-2.21-4.92-3.32-7.38c-1.76-3.92-3.45-7.86-5.28-11.74c-1.79-3.77-3.28-7.66-5.13-11.41c-1.6-3.24-2.98-6.6-4.44-9.91
		c-2.04-4.6-4.04-9.21-6.1-13.8c-2.63-5.87-5.3-11.73-7.96-17.59c-0.74-1.62-1.38-3.28-2.18-4.87c-0.86-1.71-0.39-2.37,1.54-2.39
		C698.32,87.82,701.27,87.84,704.22,87.84z"/>
	<path class="st0" d="M489.4,236.21c9.28-0.57,18.1,1.56,26.74,4.52c3.35,1.15,6.44,2.98,9.5,4.84c3.31,2.01,5.96,4.71,8.66,7.39
		c1.48,1.47,1.47,2.84,0.01,4.32c-2.46,2.49-4.94,4.96-7.42,7.42c-1.19,1.18-3.15,1.36-4.56,0.43c-0.46-0.3-0.88-0.67-1.28-1.05
		c-4.73-4.34-10.18-7.48-16.27-9.45c-6.01-1.94-12.19-2.94-18.5-2.46c-4.64,0.36-9.22,1.21-13.72,2.56
		c-5.27,1.58-9.96,4.2-14.29,7.43c-3.59,2.68-6.62,6.03-9.17,9.75c-1.87,2.74-3.64,5.53-4.92,8.61c-1.94,4.67-3.52,9.41-3.96,14.49
		c-0.14,1.59-0.36,3.16-0.35,4.76c0.05,4.76,0.8,9.41,2.22,13.94c1.61,5.12,3.94,9.92,7.17,14.23c2.33,3.1,5.16,5.76,8.03,8.35
		c3.41,3.07,7.4,5.27,11.58,7.07c4.35,1.87,8.86,3.23,13.61,3.7c2.32,0.23,4.64,0.39,6.98,0.37c3.7-0.02,7.4-0.46,10.92-1.41
		c4.55-1.22,9-2.85,13.14-5.24c2.93-1.69,5.69-3.6,8.3-5.74c1.3-1.06,3.72-1.23,4.98-0.19c3.04,2.49,5.92,5.15,8.62,8.02
		c1.03,1.1,0.96,1.13-0.05,2.24c-4.31,4.73-9.4,8.53-15.04,11.4c-7.86,4-16.14,6.81-25.09,7.37c-3.44,0.21-6.87,0.31-10.3,0.25
		c-4.85-0.09-9.66-0.46-14.4-1.75c-3.62-0.99-7.23-1.95-10.66-3.48c-3.76-1.68-7.49-3.41-10.84-5.82c-3.08-2.22-6.15-4.43-8.88-7.14
		c-5.54-5.48-9.62-11.87-12.86-18.9c-2.62-5.7-3.97-11.72-4.92-17.86c-0.5-3.22-0.71-6.46-0.67-9.72c0.05-4.37,0.64-8.66,1.41-12.96
		c1.42-8.05,4.59-15.39,8.83-22.3c2.12-3.46,4.8-6.5,7.66-9.4c2.34-2.36,4.71-4.64,7.44-6.54c3.29-2.29,6.82-4.15,10.47-5.76
		c5.88-2.59,12.06-4.15,18.36-5.31C480.36,236.34,484.87,235.94,489.4,236.21z"/>
	<path class="st0" d="M896.75,307.09c0-17.26,0-34.52,0-51.79c0-2.82,0-2.83-2.85-2.83c-12.17,0-24.33,0-36.5,0
		c-3.09,0-3.07,0-3.05-3c0.02-3.44,0-6.88,0.01-10.32c0.01-2.73,0.25-2.98,2.91-2.99c2.15-0.01,4.3,0,6.45,0
		c30.36,0,60.71,0,91.07,0c0.8,0,1.6-0.03,2.39,0.05c1.33,0.14,1.92,0.69,1.93,2c0.05,3.81,0.05,7.62,0,11.43
		c-0.02,1.37-0.95,2.26-2.31,2.42c-0.61,0.07-1.23,0.04-1.84,0.04c-11.55,0-23.1,0-34.66,0c-2.83,0-2.84,0.01-2.84,2.87
		c0,34.28,0,68.56,0,102.84c0,0.74,0.03,1.48-0.04,2.21c-0.12,1.17-0.71,1.74-1.9,1.87c-0.49,0.06-0.98,0.03-1.47,0.03
		c-4.73,0-9.46,0-14.19,0c-3.1,0-3.11-0.01-3.11-3.04c0-14.62,0-29.24,0-43.86C896.75,312.37,896.75,309.73,896.75,307.09z"/>
	<path class="st0" d="M1101.75,298.62c0-19.78,0-39.57,0-59.35c0-3.07,0.04-3.11,3.06-3.11c5.04,0,10.08,0,15.12,0
		c0.61,0,1.23,0,1.84,0.07c0.97,0.12,1.56,0.72,1.67,1.69c0.09,0.79,0.08,1.59,0.08,2.39c0,33.73,0,67.46,0,101.19
		c0,3.07,0,3.07,3.03,3.07c18.87,0,37.73,0,56.6,0c1.23,0,2.45,0.09,3.66,0.34c0.94,0.2,1.46,0.7,1.87,1.56
		c0.63,1.31,0.93,2.63,0.89,4.08c-0.07,2.33-0.01,4.67-0.02,7c0,0.61-0.01,1.24-0.14,1.83c-0.5,2.13-1.2,2.75-3.36,2.48
		c-2.71-0.34-5.39,0.08-8.09,0.07c-23.97-0.03-47.93-0.02-71.9-0.02c-3.97,0-4.3-0.34-4.3-4.31
		C1101.75,337.94,1101.75,318.28,1101.75,298.62z"/>
	<path class="st0" d="M815.94,299.04c0-19.9,0-39.81,0-59.71c0-3.16,0.01-3.17,3.19-3.17c4.73,0,9.46-0.01,14.19,0
		c2.99,0.01,3.69,0.69,3.7,3.7c0.01,13.76,0.01,27.52,0.01,41.28c0,25.13,0,50.25,0,75.38c0,1.17,0.02,2.33-0.38,3.46
		c-0.43,1.23-1.19,1.95-2.57,1.95c-5.41-0.02-10.81,0.01-16.22-0.02c-1.51-0.01-1.82-0.36-1.9-1.86c-0.03-0.61-0.01-1.23-0.01-1.84
		C815.94,338.48,815.94,318.76,815.94,299.04z"/>
</g>
</svg>
