<svg width="138" height="35" viewBox="0 0 138 35" fill="none" xmlns="http://www.w3.org/2000/svg">
<path d="M6.62143 21.652C6.59978 21.6977 6.58896 21.7109 6.58896 21.7241C6.5589 22.3843 6.45427 23.0397 6.53364 23.706C6.58656 24.1521 6.58054 24.6031 6.57212 25.0528C6.56491 25.4437 6.57694 25.8345 6.57573 26.2253C6.57453 26.6523 6.56852 27.0804 6.56611 27.5073C6.56491 27.8608 6.56491 28.2144 6.56731 28.568C6.56972 28.8854 6.57934 29.2017 6.57934 29.5192C6.57814 29.8583 6.58295 30.1974 6.57453 30.5354C6.56491 30.9334 6.58656 31.3315 6.56852 31.7295C6.53845 32.3993 6.54928 33.0716 6.54447 33.7426C6.54206 34.0757 6.52402 34.0914 6.18009 34.1298C6.07065 34.1419 5.98166 34.1226 5.88786 34.0661C5.42728 33.7859 4.98954 33.4696 4.53858 33.1762C4.06837 32.8696 3.60899 32.5485 3.13638 32.2454C2.60243 31.9039 2.08172 31.5395 1.55499 31.186C1.40828 31.0873 1.26036 30.9887 1.10884 30.8973C0.981367 30.8192 0.926049 30.7109 0.936872 30.5642C0.941682 30.5053 0.936872 30.4464 0.936872 30.3874C0.936872 24.4323 0.936872 18.4772 0.936872 12.522C0.936872 12.4559 0.94048 12.3885 0.936872 12.3224C0.930859 12.2034 0.974152 12.1095 1.05953 12.0266C1.15574 11.9352 1.24954 11.8414 1.33372 11.7368C1.42391 11.6249 1.4636 11.6249 1.59708 11.7115C1.94343 11.9364 2.28977 12.1625 2.6349 12.3885C3.26505 12.801 3.88798 13.2207 4.52415 13.6236C5.06049 13.9627 5.57399 14.3379 6.11274 14.6734C6.70802 15.045 7.27563 15.4563 7.8709 15.8279C8.25813 16.0684 8.64055 16.3198 9.02056 16.5747C9.3633 16.8044 9.71565 17.0197 10.062 17.2433C10.3843 17.4514 10.7042 17.6642 11.0265 17.8723C11.3427 18.0767 11.6602 18.2775 11.9777 18.4796C12.0583 18.5313 12.1364 18.5866 12.217 18.6383C13.1574 19.2372 14.0978 19.8349 15.037 20.4362C15.3413 20.631 15.6359 20.8414 15.9402 21.0362C16.2576 21.2395 16.5835 21.4283 16.8998 21.6303C17.3039 21.8877 17.7031 22.1546 18.106 22.4132C18.3609 22.5767 18.6207 22.7307 18.8756 22.8942C19.1799 23.089 19.4817 23.2875 19.7848 23.4847C19.9026 23.5616 20.0205 23.6374 20.1383 23.7132C20.3632 23.8599 20.3777 23.8587 20.5917 23.7168C20.9729 23.4642 21.3553 23.2117 21.7378 22.9604C22.4834 22.4709 23.2302 21.9803 23.977 21.492C24.7057 21.0158 25.4236 20.5239 26.1536 20.0501C26.7357 19.6725 27.3153 19.2913 27.8961 18.9113C28.4337 18.5589 28.976 18.215 29.5052 17.8518C30.0584 17.4718 30.6272 17.1147 31.1888 16.7467C31.5592 16.5037 31.9284 16.2596 32.3 16.0179C32.6836 15.7678 33.0684 15.5224 33.4508 15.2699C33.9739 14.9236 34.491 14.5712 35.0142 14.2261C35.4832 13.917 35.957 13.6164 36.4248 13.3073C36.7567 13.0884 37.0838 12.8612 37.4157 12.6423C37.8907 12.3296 38.3693 12.0242 38.8444 11.7115C38.937 11.6502 39.0067 11.6598 39.0765 11.7392C39.0861 11.75 39.0969 11.7596 39.1077 11.7704C39.5924 12.2599 39.5286 12.0819 39.5298 12.7637C39.531 18.5638 39.531 24.3638 39.531 30.1638C39.531 30.2371 39.525 30.3117 39.5322 30.385C39.5623 30.6857 39.4204 30.8973 39.1847 31.0561C38.9273 31.2292 38.6652 31.394 38.4018 31.5599C37.5768 32.0795 36.7591 32.6062 35.9666 33.1738C35.5108 33.5009 35.0322 33.7943 34.5656 34.107C34.4718 34.1695 34.3948 34.1659 34.3034 34.101C34.0244 33.9026 34.022 33.9062 34.022 33.5466C34.022 29.69 34.022 25.8333 34.022 21.9755C34.022 21.9021 34.0256 21.8275 34.0196 21.7542C34.0088 21.6351 33.9715 21.6171 33.8609 21.676C33.796 21.7109 33.7298 21.747 33.6709 21.7891C33.1369 22.1715 32.5645 22.4962 32.0258 22.8714C31.748 23.065 31.4497 23.2297 31.1635 23.4137C30.5683 23.7973 29.9742 24.1834 29.3801 24.5682C28.8161 24.9326 28.2533 25.297 27.6893 25.6625C27.2564 25.9439 26.8258 26.229 26.3917 26.5079C25.7952 26.8904 25.1855 27.2547 24.6023 27.6552C24.1634 27.9558 23.7076 28.2288 23.2734 28.5343C23.0137 28.7159 22.7383 28.8746 22.4713 29.0466C21.745 29.5144 21.0198 29.9834 20.2947 30.4512C20.0409 30.6147 19.9592 30.6075 19.7138 30.4416C19.0224 29.9738 18.3273 29.5132 17.6346 29.0466C17.3291 28.8409 17.0225 28.6365 16.7242 28.4188C16.4801 28.2409 16.2204 28.0845 15.9678 27.9174C15.6359 27.6961 15.304 27.476 14.9745 27.2523C14.5295 26.9493 14.0834 26.6486 13.6324 26.3552C13.2236 26.0907 12.8291 25.8044 12.425 25.5339C11.8671 25.1599 11.303 24.7967 10.7487 24.4179C10.353 24.1473 9.95977 23.8707 9.55571 23.6122C9.20095 23.3861 8.85701 23.1444 8.50706 22.9111C8.13306 22.6609 7.75906 22.4108 7.39108 22.1498C7.14695 21.9755 6.90163 21.7999 6.62143 21.652Z" fill="white"/>
<path d="M0.939922 4.67775C0.939922 3.77582 0.94353 2.8751 0.937517 1.97317C0.936314 1.74227 0.998848 1.5691 1.22012 1.4729C1.25259 1.45847 1.28145 1.43201 1.30911 1.40796C1.49912 1.25042 1.51475 1.24441 1.73723 1.36467C2.37339 1.7098 3.04202 1.9888 3.6902 2.30869C4.08705 2.5047 4.49112 2.68629 4.88436 2.88953C5.29684 3.10358 5.72496 3.28638 6.14466 3.48721C6.53068 3.6724 6.9131 3.86361 7.29912 4.04881C7.90522 4.33863 8.5053 4.63927 9.1114 4.92789C9.74395 5.22973 10.3801 5.52677 11.0055 5.84545C11.3915 6.04267 11.7859 6.23268 12.1876 6.39743C12.3872 6.47921 12.5676 6.59465 12.76 6.68725C13.1917 6.8953 13.6343 7.07809 14.0516 7.3162C14.2368 7.42202 14.4364 7.5038 14.6324 7.58918C15.2277 7.84894 15.7977 8.16281 16.393 8.42256C16.5938 8.51035 16.7874 8.62219 16.987 8.71719C17.4993 8.96372 18.0128 9.20784 18.5239 9.45557C18.9027 9.63956 19.2779 9.82837 19.6568 10.0124C19.9815 10.1699 20.311 10.319 20.6357 10.4778C20.7463 10.5319 20.8425 10.5126 20.9519 10.4681C21.2333 10.3539 21.4859 10.1843 21.7552 10.0484C22.0451 9.90173 22.3361 9.75862 22.6295 9.62032C22.8039 9.53855 22.959 9.4243 23.1298 9.33652C23.713 9.03467 24.3059 8.75207 24.8843 8.4394C25.5397 8.08344 26.2168 7.76956 26.8806 7.43164C27.4723 7.1298 28.0579 6.81713 28.6484 6.51288C29.0019 6.33009 29.3603 6.15331 29.7151 5.97172C30.3067 5.66867 30.896 5.36202 31.4877 5.06017C31.8761 4.86175 32.2717 4.68016 32.6542 4.47091C33.0233 4.26888 33.4046 4.08969 33.7762 3.89247C34.161 3.68804 34.5518 3.49442 34.9378 3.29479C35.5536 2.97611 36.1681 2.65262 36.7862 2.33634C37.1217 2.16438 37.4632 2.00684 37.7988 1.83607C38.0874 1.68816 38.3712 1.53062 38.6586 1.37789C38.7175 1.34663 38.7752 1.30935 38.8378 1.29131C38.9508 1.25764 39.0518 1.14339 39.1877 1.24441C39.3561 1.36948 39.5257 1.48973 39.5353 1.72784C39.5377 1.77955 39.5377 1.83126 39.5377 1.88297C39.5377 3.64835 39.5377 5.41493 39.5365 7.1803C39.5365 7.26809 39.5317 7.35708 39.5208 7.44487C39.5112 7.51823 39.4908 7.59519 39.4319 7.6433C39.0831 7.9271 38.8246 8.30471 38.4481 8.56086C38.1126 8.78935 37.7663 8.9998 37.4248 9.21866C36.9401 9.53013 36.4603 9.84761 35.9624 10.1374C35.4958 10.408 35.0665 10.7363 34.5963 11.0021C34.3137 11.162 34.054 11.3592 33.781 11.536C33.3096 11.8403 32.8357 12.1385 32.3655 12.444C31.7775 12.8264 31.1966 13.2184 30.6074 13.5972C30.0494 13.9568 29.5046 14.3368 28.9418 14.6904C28.4055 15.0283 27.898 15.4131 27.3592 15.7462C26.8133 16.0841 26.2938 16.4618 25.7514 16.8057C25.179 17.1701 24.6234 17.5621 24.057 17.9373C23.6325 18.2187 23.2019 18.4905 22.7762 18.7707C22.4491 18.986 22.128 19.2072 21.8033 19.4261C21.534 19.6065 21.2658 19.7893 20.9928 19.9648C20.8545 20.0538 20.6922 20.0851 20.5346 20.1272C20.4288 20.1561 20.3194 20.1681 20.2244 20.2378C20.1306 20.3064 20.0428 20.2547 19.9598 20.1994C19.7025 20.0274 19.4439 19.8542 19.1866 19.6822C18.4061 19.1639 17.6292 18.6384 16.8415 18.1297C16.0851 17.6415 15.3335 17.146 14.5843 16.6482C13.8411 16.1539 13.0955 15.662 12.3487 15.1738C11.8052 14.819 11.2556 14.4739 10.7132 14.1167C10.2695 13.8245 9.83775 13.5167 9.394 13.2256C8.84563 12.8637 8.29004 12.5125 7.74047 12.1541C7.41938 11.9449 7.11032 11.7164 6.78202 11.5168C6.36593 11.263 5.9775 10.9696 5.56381 10.7111C5.12487 10.4369 4.69676 10.1483 4.26383 9.86565C3.96078 9.66843 3.65293 9.47842 3.3583 9.27038C2.77866 8.8627 2.16294 8.51035 1.58931 8.09306C1.44019 7.98482 1.28266 7.88742 1.12271 7.79602C0.984417 7.71665 0.937517 7.60602 0.93872 7.44968C0.942327 6.5249 0.939922 5.60133 0.939922 4.67775Z" fill="white"/>
<path d="M60.8274 8.53563C60.8274 10.8265 60.8274 13.1162 60.8274 15.4071C60.8274 15.7727 60.8274 15.7727 60.4594 15.7727C60.0156 15.7727 59.5731 15.7739 59.1293 15.7715C58.896 15.7703 58.8732 15.7487 58.872 15.519C58.8696 15.068 58.8708 14.617 58.8708 14.1673C58.8708 11.5445 58.8708 8.92166 58.8696 6.29885C58.8696 6.22549 58.8696 6.15093 58.8672 6.07757C58.8648 6.01745 58.8588 5.95612 58.7842 5.93928C58.7217 5.92485 58.6663 5.94169 58.6242 5.99219C58.5966 6.02587 58.5701 6.06314 58.5473 6.10042C58.3152 6.46841 58.0939 6.84361 57.8486 7.20318C57.5335 7.66738 57.2449 8.1484 56.9611 8.63064C56.6737 9.12128 56.3682 9.60111 56.0916 10.0978C55.9161 10.4128 55.7032 10.7087 55.5228 11.0213C55.2318 11.5264 54.8939 12.0026 54.6089 12.5125C54.4261 12.8408 54.2084 13.1487 54.01 13.4686C53.909 13.6309 53.814 13.7981 53.7165 13.964C53.6973 13.9953 53.6817 14.029 53.6636 14.0615C53.5518 14.2647 53.3991 14.3837 53.1465 14.3513C52.9938 14.3308 52.8363 14.3429 52.6811 14.3489C52.5477 14.3537 52.4599 14.2996 52.3925 14.1853C52.0378 13.5804 51.6806 12.9779 51.3198 12.3754C51.1226 12.0459 50.9073 11.7273 50.7197 11.3929C50.5502 11.0899 50.3602 10.8001 50.1846 10.5006C49.9573 10.1122 49.7204 9.72979 49.4847 9.34737C49.1251 8.76292 48.7848 8.16644 48.4361 7.57598C48.1727 7.13103 47.9081 6.68728 47.6436 6.24473C47.6015 6.17498 47.5594 6.10403 47.4908 6.05713C47.3946 5.99339 47.3153 6.02586 47.2996 6.14011C47.2888 6.21948 47.2924 6.30246 47.2924 6.38303C47.2924 9.32332 47.2924 12.2648 47.2924 15.2051C47.2924 15.2941 47.296 15.3831 47.2876 15.4709C47.2684 15.6537 47.1517 15.7655 46.9665 15.7703C46.7152 15.7775 46.4638 15.7727 46.2125 15.7727C45.8132 15.7727 45.414 15.7751 45.0147 15.7715C44.8079 15.7691 44.767 15.7282 44.7634 15.525C44.7598 15.2809 44.7598 15.0379 44.7863 14.795C44.7995 14.6712 44.8019 14.5449 44.8019 14.4186C44.8031 13.3772 44.7694 12.3334 44.8127 11.2931C44.8656 10.0232 44.7995 8.7521 44.856 7.48338C44.9089 6.29404 44.8488 5.10469 44.8993 3.91776C44.9354 3.0976 44.9233 2.27865 44.9354 1.4597C44.939 1.24203 44.9618 1.21678 45.1783 1.21558C45.6365 1.21317 46.0947 1.21558 46.5528 1.21437C46.6851 1.21437 46.8126 1.23963 46.8847 1.35507C47.0302 1.58837 47.2371 1.77237 47.3778 2.00807C47.6808 2.51435 47.9899 3.01703 48.2797 3.53173C48.4902 3.90453 48.7175 4.2677 48.9291 4.6405C49.2057 5.12754 49.5088 5.59895 49.7865 6.08479C50.2291 6.85925 50.7017 7.61687 51.1587 8.38411C51.5219 8.99261 51.8778 9.60472 52.2398 10.2132C52.4394 10.5487 52.6439 10.8819 52.8507 11.2138C52.9481 11.3701 52.971 11.3689 53.0672 11.2053C53.3281 10.7604 53.5807 10.3094 53.826 9.85365C54.123 9.30167 54.4369 8.75931 54.7435 8.21334C54.9059 7.92352 55.0682 7.63491 55.2306 7.34509C55.5769 6.72696 55.91 6.10163 56.266 5.48831C56.6099 4.89424 56.9274 4.28574 57.2605 3.68566C57.5612 3.1433 57.8678 2.60455 58.1709 2.06459C58.2863 1.85895 58.4054 1.65451 58.5088 1.44406C58.5858 1.28773 58.688 1.20956 58.8708 1.21197C59.4107 1.21918 59.9495 1.21317 60.4894 1.21558C60.7732 1.21678 60.8238 1.26729 60.8238 1.5547C60.825 2.75848 60.825 3.96345 60.825 5.16723C60.8274 6.29043 60.8274 7.41243 60.8274 8.53563Z" fill="white"/>
<path d="M119.164 11.6214C119.203 11.5192 119.186 11.423 119.186 11.328C119.187 7.96679 119.187 4.6044 119.187 1.24321C119.187 0.853579 119.187 0.853579 119.577 0.853579C120.042 0.853579 120.508 0.852376 120.973 0.853579C121.232 0.854781 121.38 0.99428 121.402 1.25524C121.408 1.3286 121.406 1.40315 121.406 1.47651C121.406 6.06432 121.406 10.6521 121.406 15.24C121.406 15.3362 121.41 15.4336 121.393 15.5274C121.363 15.7005 121.282 15.7703 121.107 15.7715C120.611 15.7751 120.117 15.7715 119.621 15.7739C119.508 15.7751 119.424 15.7342 119.354 15.6464C119.074 15.2941 118.793 14.9429 118.509 14.593C118.092 14.0771 117.656 13.5744 117.258 13.0441C116.908 12.5775 116.51 12.1505 116.165 11.6803C115.899 11.3184 115.601 10.9792 115.32 10.6281C114.915 10.1206 114.513 9.60951 114.108 9.10322C113.683 8.57409 113.255 8.04737 112.829 7.51944C112.455 7.05404 112.084 6.58624 111.71 6.11964C111.511 5.87191 111.315 5.62298 111.113 5.37886C111.065 5.31993 111.028 5.24297 110.935 5.2117C110.89 5.31151 110.908 5.40772 110.908 5.50032C110.906 8.71359 110.906 11.9281 110.906 15.1413C110.906 15.2592 110.912 15.3782 110.902 15.4961C110.884 15.6945 110.801 15.7715 110.602 15.7727C109.982 15.7751 109.361 15.7763 108.739 15.7727C108.548 15.7715 108.51 15.727 108.5 15.5346C108.496 15.4684 108.499 15.4011 108.499 15.335C108.499 10.6437 108.499 5.95249 108.499 1.26125C108.499 0.854782 108.499 0.854782 108.896 0.854782C109.354 0.854782 109.812 0.859592 110.27 0.852377C110.424 0.849972 110.538 0.900479 110.636 1.01713C110.826 1.24321 111 1.48252 111.188 1.70981C111.442 2.01767 111.686 2.33274 111.936 2.64301C112.227 3.00498 112.517 3.36816 112.806 3.73133C113.34 4.39876 113.879 5.06378 114.407 5.73602C114.753 6.17616 115.114 6.60668 115.449 7.05645C115.669 7.35228 115.916 7.62767 116.146 7.91629C116.684 8.59093 117.216 9.27038 117.754 9.94503C118.186 10.4874 118.621 11.0273 119.055 11.5685C119.078 11.5938 119.104 11.6202 119.164 11.6214Z" fill="white"/>
<path d="M94.2656 8.31185C94.2656 5.94759 94.2656 3.58213 94.2656 1.21788C94.2656 0.853498 94.2656 0.852295 94.636 0.852295C97.9106 0.852295 101.185 0.852295 104.46 0.852295C104.783 0.852295 104.882 0.943691 104.907 1.27801C104.916 1.39586 104.911 1.51491 104.911 1.63276C104.911 1.95024 104.898 2.26892 104.916 2.5852C104.93 2.83173 104.736 3.0073 104.49 3.0049C103.041 2.99408 101.593 3.00009 100.144 3.00009C99.1457 3.00009 98.1475 3.00009 97.1506 3.00009C97.0845 3.00009 97.0171 3.00129 96.951 3.00249C96.862 3.0037 96.8139 3.04699 96.8115 3.13718C96.8103 3.19611 96.8091 3.25503 96.8091 3.31396C96.8091 4.48887 96.8091 5.66379 96.8091 6.8387C96.8091 7.16099 96.8103 7.16219 97.1241 7.16219C99.2238 7.16219 101.322 7.16219 103.422 7.16219C103.504 7.16219 103.584 7.15979 103.666 7.1646C103.898 7.17903 104.056 7.32694 104.067 7.55663C104.076 7.74063 104.086 7.92823 104.062 8.10982C104.032 8.33831 104.034 8.5668 104.031 8.79528C104.031 8.84699 104.031 8.8987 104.025 8.95042C103.996 9.1753 103.919 9.24745 103.695 9.24865C103.23 9.25106 102.764 9.24986 102.298 9.24986C100.597 9.24986 98.8979 9.24986 97.1975 9.24986C97.1759 9.24986 97.153 9.24986 97.1314 9.24986C96.8139 9.25106 96.8091 9.25467 96.8091 9.57094C96.8091 10.8637 96.8091 12.1577 96.8091 13.4504C96.8091 13.4949 96.8079 13.5394 96.8115 13.5839C96.8235 13.721 96.8475 13.7463 96.9883 13.7571C97.0544 13.7619 97.1217 13.7595 97.1879 13.7595C99.7085 13.7595 102.229 13.7595 104.75 13.7595C104.839 13.7595 104.928 13.7571 105.015 13.7679C105.233 13.7944 105.316 13.8834 105.317 14.0986C105.321 14.5568 105.321 15.015 105.317 15.4732C105.315 15.7173 105.261 15.7714 105.013 15.7714C103.963 15.7726 102.913 15.7726 101.865 15.7726C99.4547 15.7726 97.046 15.7726 94.636 15.7726C94.2692 15.7726 94.2692 15.7726 94.2692 15.4058C94.2656 13.0416 94.2656 10.6773 94.2656 8.31185Z" fill="white"/>
<path d="M73.9262 33.7199C73.5859 33.7199 73.2468 33.7175 72.9064 33.7211C72.7718 33.7223 72.6984 33.6766 72.6455 33.5407C72.4266 32.9767 72.1957 32.4175 71.9612 31.8595C71.7784 31.4242 71.6029 30.9853 71.4369 30.5427C71.3022 30.1856 71.0088 30.0497 70.6492 30.0437C70.1538 30.0364 69.6571 30.0689 69.164 30.0352C68.1082 29.9631 67.0511 29.9943 65.9953 30.0076C65.3459 30.016 64.6965 30.0256 64.0471 30.0461C63.6767 30.0581 63.3965 30.2313 63.2161 30.5764C62.9323 31.1224 62.7423 31.7044 62.515 32.2732C62.3671 32.6424 62.2456 33.0224 62.0785 33.3844C61.9715 33.6165 61.8235 33.7343 61.5481 33.7259C60.9649 33.7079 60.3804 33.7211 59.796 33.7199C59.4725 33.7187 59.4424 33.6562 59.5855 33.3724C59.7226 33.103 59.8381 32.8228 59.9632 32.5486C60.176 32.0784 60.3877 31.607 60.6029 31.138C60.6883 30.9504 60.7737 30.7616 60.8507 30.5716C61.0599 30.0581 61.3185 29.5674 61.5349 29.0575C61.6648 28.7521 61.7971 28.4478 61.9342 28.1448C62.2384 27.4726 62.5547 26.8063 62.8481 26.1293C62.9503 25.8924 63.067 25.6627 63.162 25.4222C63.269 25.148 63.4109 24.887 63.5312 24.6176C63.7428 24.1462 63.9365 23.6664 64.1613 23.2022C64.3874 22.7368 64.569 22.2534 64.8035 21.7928C65.0031 21.3984 65.1643 20.9847 65.3447 20.5806C65.5611 20.0948 65.7788 19.6101 65.9965 19.1255C66.0181 19.0786 66.0494 19.0341 66.0614 18.9848C66.1083 18.784 66.231 18.7238 66.433 18.7274C67.0463 18.7383 67.6596 18.7371 68.2729 18.7286C68.4509 18.7262 68.5471 18.7852 68.6301 18.9499C68.9175 19.5248 69.1725 20.1128 69.425 20.7021C69.5008 20.8776 69.5982 21.0436 69.6763 21.2192C69.9686 21.8722 70.286 22.5143 70.5711 23.171C70.9126 23.9562 71.2806 24.7283 71.6401 25.5051C71.8999 26.0679 72.15 26.6356 72.4098 27.1996C72.6876 27.8033 72.9846 28.3973 73.2528 29.0046C73.3779 29.2872 73.5029 29.571 73.6292 29.8524C73.7699 30.1687 73.9262 30.479 74.0681 30.7953C74.3724 31.4759 74.6766 32.1566 74.9761 32.8396C75.053 33.0152 75.1156 33.1968 75.1973 33.3712C75.2972 33.584 75.2106 33.7139 74.9689 33.7187C74.6213 33.7247 74.2738 33.7199 73.9262 33.7199ZM67.4516 21.2637C67.4083 21.2697 67.3951 21.307 67.3746 21.337C67.264 21.5042 67.1942 21.6906 67.1173 21.8746C66.9742 22.2137 66.8142 22.5468 66.6615 22.8823C66.4715 23.2984 66.2815 23.7145 66.0903 24.1294C65.8991 24.5455 65.7054 24.9592 65.5166 25.3753C65.4709 25.4751 65.4421 25.5833 65.3964 25.6843C65.2304 26.0463 65.0609 26.4059 64.8937 26.7678C64.7181 27.1491 64.551 27.5351 64.3706 27.9139C64.2287 28.2097 64.2263 28.2133 64.5474 28.2133C66.4089 28.2133 68.2693 28.2133 70.1309 28.2121C70.1826 28.2121 70.2343 28.2145 70.286 28.2109C70.4255 28.2001 70.4496 28.17 70.4015 28.0474C70.1754 27.4786 69.9553 26.9073 69.716 26.3445C69.318 25.4077 68.9103 24.4757 68.5014 23.5437C68.1815 22.815 67.8544 22.0886 67.5297 21.3611C67.5129 21.3226 67.5057 21.2745 67.4516 21.2637Z" fill="white"/>
<path d="M70.8018 0.896847C71.1121 0.896847 71.4223 0.900455 71.7326 0.895645C71.9226 0.892037 72.0477 0.95938 72.1282 1.14578C72.3387 1.62561 72.5768 2.09341 72.786 2.57323C73.0578 3.19496 73.3537 3.80587 73.6242 4.4276C73.8179 4.87375 74.0439 5.30668 74.24 5.75283C74.5105 6.36735 74.81 6.96743 75.0745 7.58435C75.2513 7.99683 75.457 8.39849 75.6434 8.80857C75.9476 9.48081 76.2735 10.1434 76.5585 10.8253C76.6439 11.0285 76.7569 11.2197 76.8447 11.4242C76.9866 11.7561 77.1333 12.088 77.2921 12.4115C77.4941 12.8228 77.6769 13.2413 77.8645 13.6585C78.0786 14.1372 78.2806 14.6206 78.4886 15.1004C78.5175 15.1678 78.544 15.2387 78.5848 15.2989C78.6786 15.4359 78.6378 15.5706 78.5776 15.6981C78.5211 15.8172 78.4105 15.8544 78.2818 15.8532C77.9643 15.8508 77.6456 15.8532 77.3282 15.8532C77.0179 15.8532 76.7076 15.8496 76.3974 15.8544C76.2555 15.8568 76.1689 15.8148 76.1136 15.6692C75.8069 14.8539 75.4401 14.0626 75.1371 13.2461C75.0601 13.0392 74.9567 12.842 74.8761 12.6364C74.7619 12.3417 74.4997 12.2395 74.2147 12.1842C74.1642 12.1746 74.1113 12.1794 74.0596 12.1794C72.3675 12.1758 70.6743 12.171 68.9823 12.1686C68.5097 12.1686 68.0359 12.177 67.5633 12.1782C67.1797 12.1794 66.9067 12.367 66.7083 12.6784C66.4713 13.05 66.3607 13.4745 66.1984 13.8786C66.0637 14.2141 65.9326 14.5509 65.8003 14.8864C65.6981 15.1473 65.5899 15.4071 65.4997 15.6716C65.4528 15.8087 65.3722 15.8556 65.2363 15.8544C64.5484 15.852 63.8618 15.8556 63.1739 15.852C62.9707 15.8508 62.9358 15.7907 63.0176 15.6055C63.3278 14.9032 63.6369 14.2009 63.9604 13.5058C64.3284 12.7157 64.6699 11.9148 65.0367 11.1247C65.2447 10.6774 65.4335 10.218 65.638 9.76942C66.0059 8.9637 66.3655 8.15317 66.7323 7.34744C67.0197 6.71609 67.2975 6.08114 67.5813 5.44858C67.6932 5.19965 67.8122 4.95312 67.924 4.70419C68.1429 4.22076 68.3582 3.73492 68.5758 3.25148C68.7695 2.82096 68.9655 2.39044 69.1591 1.95872C69.2854 1.67611 69.4116 1.39351 69.5319 1.1085C69.6113 0.922101 69.6341 0.899252 69.8458 0.898049C70.1668 0.895644 70.4843 0.896847 70.8018 0.896847ZM70.9341 3.39218C70.8728 3.3994 70.8547 3.43307 70.8403 3.46674C70.595 4.00309 70.3496 4.53944 70.1055 5.07578C69.8434 5.65302 69.5848 6.23146 69.3202 6.80749C69.1038 7.27649 68.8885 7.7455 68.6745 8.2145C68.3931 8.83142 68.1177 9.45074 67.8435 10.0713C67.7256 10.337 67.7292 10.3503 68.0251 10.3503C69.9083 10.3515 71.7915 10.3503 73.6747 10.3503C73.7265 10.3503 73.7782 10.3503 73.8299 10.3455C73.8972 10.3394 73.9177 10.2962 73.9008 10.236C73.8888 10.1939 73.8708 10.153 73.8515 10.1134C73.7216 9.85721 73.6339 9.58182 73.5196 9.31846C73.2587 8.71717 73.0386 8.09785 72.7656 7.50017C72.3519 6.59463 71.9539 5.68188 71.563 4.76552C71.4584 4.5214 71.3357 4.2869 71.2383 4.03917C71.1493 3.81549 71.0459 3.59903 70.9341 3.39218Z" fill="white"/>
<path d="M123.101 33.8137C122.776 33.8137 122.45 33.8065 122.126 33.8161C121.948 33.8209 121.845 33.768 121.777 33.5888C121.539 32.9695 121.283 32.3562 121.03 31.7429C120.87 31.3545 120.705 30.9672 120.561 30.5716C120.513 30.4381 120.398 30.3635 120.286 30.2938C120.114 30.1868 119.926 30.1278 119.718 30.1338C119.481 30.1411 119.244 30.1423 119.009 30.1338C117.753 30.0869 116.496 30.0797 115.241 30.1002C114.569 30.111 113.896 30.123 113.225 30.1423C112.847 30.1531 112.558 30.3587 112.375 30.6954C112.153 31.1055 112.01 31.5493 111.84 31.9822C111.625 32.5318 111.429 33.0886 111.194 33.6309C111.139 33.7596 111.066 33.8137 110.929 33.8137C110.241 33.8113 109.554 33.8125 108.866 33.8125C108.836 33.8125 108.806 33.8125 108.777 33.8077C108.669 33.7885 108.638 33.7404 108.681 33.6357C108.725 33.5263 108.784 33.4241 108.834 33.3159C109.054 32.8324 109.273 32.349 109.49 31.8643C109.678 31.4471 109.861 31.0286 110.046 30.6101C110.136 30.408 110.225 30.2048 110.316 30.0028C110.692 29.1754 111.075 28.3528 111.44 27.5219C111.733 26.8532 112.047 26.1942 112.327 25.5196C112.517 25.0638 112.753 24.6273 112.946 24.1715C113.13 23.7362 113.353 23.3177 113.515 22.8739C113.589 22.6731 113.694 22.4855 113.781 22.2895C114.06 21.6545 114.361 21.0292 114.647 20.3978C114.839 19.9745 115.03 19.55 115.206 19.1207C115.282 18.9343 115.396 18.8609 115.592 18.8633C116.205 18.8694 116.819 18.8681 117.432 18.8645C117.614 18.8633 117.724 18.9259 117.812 19.099C117.991 19.455 118.145 19.8218 118.304 20.1862C118.375 20.3485 118.446 20.5109 118.525 20.6684C118.852 21.3142 119.112 21.99 119.438 22.637C119.644 23.0447 119.811 23.4716 120.001 23.8877C120.209 24.3447 120.425 24.798 120.634 25.2538C120.834 25.6891 121.029 26.1281 121.23 26.5634C121.346 26.8172 121.468 27.0697 121.593 27.3198C121.693 27.5183 121.769 27.7263 121.862 27.9271C122.15 28.5344 122.42 29.1489 122.699 29.7598C122.901 30.2024 123.111 30.6437 123.311 31.0875C123.534 31.5781 123.756 32.0688 123.956 32.5703C124.065 32.8444 124.196 33.109 124.324 33.376C124.486 33.7163 124.43 33.8101 124.055 33.8113C123.736 33.8137 123.418 33.8137 123.101 33.8137ZM116.612 21.3575C116.547 21.3911 116.532 21.4429 116.512 21.4886C116.229 22.1043 115.948 22.7212 115.668 23.3369C115.442 23.8336 115.225 24.3362 114.991 24.8293C114.7 25.4426 114.442 26.0704 114.145 26.6813C113.923 27.1382 113.731 27.6108 113.522 28.075C113.426 28.2903 113.431 28.3011 113.67 28.3047C113.7 28.3047 113.729 28.3047 113.759 28.3047C115.592 28.3047 117.425 28.3047 119.258 28.3047C119.316 28.3047 119.377 28.3071 119.434 28.3011C119.575 28.2879 119.598 28.2482 119.544 28.1135C119.355 27.6409 119.166 27.1683 118.973 26.6981C118.767 26.2002 118.572 25.6964 118.344 25.2081C118.043 24.5659 117.786 23.9069 117.486 23.2648C117.273 22.8102 117.071 22.3508 116.885 21.8854C116.811 21.7038 116.706 21.5367 116.612 21.3575Z" fill="white"/>
<path d="M77.003 26.3624C77.003 23.9982 77.003 21.6339 77.003 19.2697C77.003 18.9089 77.003 18.9089 77.3542 18.9089C79.5561 18.9089 81.7592 18.9101 83.9611 18.9065C84.2293 18.9065 84.4926 18.9317 84.7524 18.9895C85.5714 19.1723 86.3602 19.432 87.0746 19.8878C87.9104 20.4205 88.5176 21.1361 88.8592 22.0741C89.0949 22.7198 89.2115 23.3813 89.2127 24.0679C89.2139 24.5273 89.1935 24.9819 89.0853 25.4304C88.9542 25.9752 88.7269 26.4731 88.4094 26.9349C87.9753 27.5626 87.4425 28.0881 86.8004 28.4982C86.3145 28.8085 85.783 29.0009 85.207 29.0658C84.7151 29.1211 84.2209 29.1272 83.7278 29.1656C83.1614 29.2101 82.5926 29.1993 82.0274 29.257C81.6955 29.2919 81.3624 29.2667 81.0328 29.3003C80.5157 29.3532 79.9998 29.3232 79.4827 29.3352C79.2506 29.34 79.2326 29.3556 79.2326 29.5926C79.2314 30.8047 79.2326 32.0157 79.2314 33.2279C79.2314 33.3241 79.2302 33.4203 79.2146 33.5153C79.1737 33.7655 79.1171 33.8136 78.8646 33.8136C78.3331 33.816 77.8003 33.8148 77.2688 33.8148C77.2387 33.8148 77.2099 33.816 77.1798 33.8124C77.0451 33.7979 77.0163 33.7715 77.0054 33.6344C76.9994 33.561 77.003 33.4865 77.003 33.4131C77.003 31.0609 77.003 28.7123 77.003 26.3624ZM79.2314 24.5634C79.2314 24.8147 79.2314 25.0661 79.2314 25.3174C79.2314 25.9752 79.2326 26.6318 79.2302 27.2896C79.229 27.5662 79.2843 27.5313 79.4611 27.5193C79.8291 27.4929 80.1983 27.4977 80.5662 27.4712C81.0809 27.4327 81.5981 27.4436 82.114 27.4303C82.993 27.4063 83.8685 27.369 84.7392 27.2451C85.0987 27.1934 85.4535 27.1177 85.7662 26.9204C86.2171 26.6366 86.4841 26.2037 86.6801 25.7275C86.8954 25.2032 86.9868 24.6512 86.9892 24.0848C86.9904 23.7974 86.976 23.5099 86.9555 23.2225C86.905 22.5286 86.6657 21.9189 86.2111 21.3922C85.9454 21.0844 85.605 20.8895 85.2202 20.7957C84.4722 20.6129 83.7098 20.5444 82.9377 20.5468C81.8217 20.5492 80.7069 20.5889 79.591 20.5516C79.5393 20.5504 79.4875 20.5492 79.4358 20.5564C79.2999 20.5733 79.2518 20.6214 79.2554 20.7573C79.2711 21.2226 79.235 21.6856 79.2338 22.151C79.2302 22.9531 79.2314 23.7589 79.2314 24.5634Z" fill="white"/>
<path d="M78.6978 0.853555C79.0382 0.853555 79.3773 0.857164 79.7176 0.851151C79.8631 0.848746 79.9497 0.902861 80.0062 1.03875C80.2432 1.60276 80.5053 2.15594 80.7374 2.72356C80.9238 3.18053 81.1439 3.62549 81.3411 4.07886C81.6213 4.72103 81.8943 5.36681 82.1709 6.01139C82.2875 6.28317 82.4054 6.55255 82.5244 6.82312C82.6315 7.06604 82.7433 7.30656 82.8479 7.55068C83.086 8.10747 83.3458 8.65464 83.5743 9.21384C83.8388 9.86323 84.1515 10.491 84.4041 11.1452C84.5267 11.4614 84.6818 11.7645 84.8177 12.076C84.9091 12.2852 84.9861 12.5005 85.0955 12.7025C85.1172 12.741 85.1328 12.7891 85.1869 12.7831C85.2278 12.7783 85.2374 12.7362 85.2531 12.7025C85.4238 12.3105 85.5946 11.9172 85.7654 11.5252C86.0359 10.9035 86.3089 10.2817 86.5783 9.65759C86.7912 9.16333 86.992 8.66306 87.2145 8.17241C87.4454 7.66132 87.639 7.13459 87.8855 6.62951C87.9793 6.4371 88.0623 6.23867 88.1404 6.04025C88.3521 5.50511 88.583 4.97838 88.8271 4.45646C88.9365 4.22316 89.0135 3.97543 89.1205 3.73973C89.4272 3.06028 89.711 2.3712 90.0068 1.68694C90.0886 1.49693 90.1824 1.31294 90.2618 1.12293C90.3183 0.985839 90.4157 0.954572 90.5552 0.938939C90.9677 0.890836 91.3802 0.907672 91.7927 0.890836C91.9839 0.882418 92.1727 0.843935 92.3663 0.853555C92.4541 0.858366 92.5719 0.837922 92.5996 0.93533C92.6333 1.05318 92.7547 1.1566 92.6693 1.30452C92.5767 1.46326 92.5106 1.63523 92.4384 1.80599C92.1979 2.37722 91.9454 2.94363 91.6952 3.51124C91.486 3.98385 91.2719 4.45406 91.0639 4.92667C90.8907 5.3175 90.7224 5.71195 90.5516 6.10399C90.3183 6.63793 90.0838 7.17187 89.8529 7.70702C89.6509 8.17482 89.438 8.6366 89.2456 9.10921C89.0821 9.51208 88.8884 9.90291 88.7129 10.301C88.4892 10.8072 88.2823 11.3195 88.0478 11.821C87.8254 12.296 87.6462 12.7879 87.4105 13.2569C87.2614 13.5527 87.1531 13.869 87.0209 14.1732C86.8116 14.6531 86.5951 15.1293 86.3859 15.6091C86.3294 15.7378 86.244 15.8039 86.1033 15.8208C85.6162 15.8797 85.1304 15.8785 84.647 15.8015C84.5063 15.7787 84.368 15.7703 84.2285 15.7763C84.0842 15.7823 83.9916 15.7306 83.9314 15.5971C83.8064 15.3145 83.6729 15.0343 83.5442 14.7529C83.4071 14.451 83.258 14.154 83.1377 13.8449C82.9526 13.3699 82.7144 12.919 82.5172 12.45C82.3909 12.1517 82.2563 11.8559 82.1119 11.5649C81.9183 11.1752 81.7644 10.7664 81.59 10.3683C81.4602 10.0713 81.3243 9.77664 81.1908 9.48081C80.9791 9.0094 80.7759 8.53559 80.5558 8.06899C80.3406 7.61562 80.1614 7.14782 79.9389 6.69685C79.7465 6.30722 79.5805 5.90316 79.405 5.5051C79.1596 4.95192 78.9191 4.39754 78.6714 3.84556C78.3551 3.13965 78.034 2.43494 77.7141 1.73023C77.6252 1.53541 77.5482 1.33579 77.452 1.14458C77.3486 0.938939 77.4051 0.859569 77.6372 0.857164C77.9883 0.851151 78.3431 0.853555 78.6978 0.853555Z" fill="white"/>
<path d="M52.8634 18.6962C53.9794 18.6276 55.0401 18.8838 56.0791 19.2398C56.482 19.378 56.8536 19.5981 57.2216 19.8218C57.6196 20.0635 57.9383 20.3882 58.263 20.7105C58.441 20.8873 58.4398 21.052 58.2642 21.23C57.9684 21.5295 57.6701 21.8265 57.3719 22.1223C57.2288 22.2642 56.9931 22.2859 56.8235 22.174C56.7682 22.138 56.7177 22.0935 56.6696 22.0478C56.1008 21.5258 55.4454 21.1482 54.713 20.9113C53.9903 20.678 53.2471 20.5578 52.4882 20.6155C51.9302 20.6588 51.3795 20.761 50.8383 20.9234C50.2046 21.1134 49.6405 21.4284 49.1198 21.8169C48.6881 22.1392 48.3237 22.542 48.0171 22.9894C47.7922 23.3189 47.5793 23.6544 47.4254 24.0248C47.1921 24.5864 47.0021 25.1564 46.9492 25.7673C46.9324 25.9585 46.9059 26.1473 46.9071 26.3397C46.9131 26.9122 47.0033 27.4714 47.1741 28.0161C47.3677 28.6318 47.6479 29.2091 48.0363 29.7274C48.3165 30.1002 48.6568 30.4201 49.002 30.7315C49.4121 31.1007 49.8919 31.3653 50.3946 31.5817C50.9177 31.8066 51.46 31.9702 52.0313 32.0267C52.3103 32.0544 52.5893 32.0736 52.8707 32.0712C53.3156 32.0688 53.7606 32.0159 54.1839 31.9016C54.731 31.7549 55.2662 31.5589 55.764 31.2715C56.1164 31.0683 56.4483 30.8386 56.7622 30.5812C56.9185 30.4537 57.2095 30.4333 57.3611 30.5584C57.7266 30.8578 58.073 31.1777 58.3977 31.5228C58.5215 31.6551 58.5131 31.6587 58.3917 31.7922C57.8734 32.361 57.2613 32.818 56.583 33.1631C55.6378 33.6442 54.642 33.9821 53.5657 34.0494C53.1521 34.0747 52.7396 34.0867 52.3271 34.0795C51.7438 34.0687 51.1654 34.0242 50.5954 33.869C50.1601 33.75 49.7259 33.6345 49.3135 33.4505C48.8613 33.2485 48.4127 33.0405 48.0099 32.7507C47.6395 32.4837 47.2703 32.2179 46.942 31.892C46.2758 31.233 45.7851 30.4646 45.3955 29.6192C45.0804 28.9337 44.918 28.2097 44.8038 27.4714C44.7437 27.0841 44.7184 26.6945 44.7232 26.3025C44.7292 25.7769 44.8002 25.261 44.8928 24.7439C45.0636 23.7759 45.4448 22.8932 45.9547 22.0622C46.2096 21.6461 46.5319 21.2805 46.8758 20.9318C47.1572 20.648 47.4422 20.3738 47.7705 20.1453C48.1662 19.8699 48.5907 19.6462 49.0296 19.4526C49.7368 19.1411 50.4799 18.9535 51.2376 18.814C51.7763 18.7118 52.3187 18.6637 52.8634 18.6962Z" fill="white"/>
<path d="M101.851 27.22C101.851 25.1443 101.851 23.0687 101.851 20.9918C101.851 20.6527 101.851 20.6515 101.509 20.6515C100.045 20.6515 98.5827 20.6515 97.1191 20.6515C96.7475 20.6515 96.7499 20.6515 96.7523 20.2907C96.7547 19.8771 96.7523 19.4634 96.7535 19.0497C96.7547 18.7214 96.7836 18.6913 97.1035 18.6901C97.362 18.6889 97.6206 18.6901 97.8791 18.6901C101.53 18.6901 105.18 18.6901 108.831 18.6901C108.927 18.6901 109.023 18.6865 109.118 18.6961C109.278 18.713 109.349 18.7791 109.35 18.9366C109.356 19.3948 109.356 19.853 109.35 20.3112C109.348 20.4759 109.236 20.583 109.073 20.6022C108.999 20.6106 108.925 20.607 108.851 20.607C107.462 20.607 106.073 20.607 104.683 20.607C104.343 20.607 104.342 20.6082 104.342 20.9522C104.342 25.0746 104.342 29.197 104.342 33.3194C104.342 33.4084 104.345 33.4974 104.337 33.5852C104.323 33.7259 104.252 33.7944 104.108 33.8101C104.05 33.8173 103.991 33.8137 103.932 33.8137C103.363 33.8137 102.794 33.8137 102.225 33.8137C101.852 33.8137 101.851 33.8125 101.851 33.4481C101.851 31.6899 101.851 29.9318 101.851 28.1736C101.851 27.8549 101.851 27.5374 101.851 27.22Z" fill="white"/>
<path d="M126.504 26.2015C126.504 23.8228 126.504 21.4429 126.504 19.0642C126.504 18.695 126.509 18.6902 126.872 18.6902C127.478 18.6902 128.084 18.6902 128.69 18.6902C128.764 18.6902 128.838 18.6902 128.911 18.6986C129.028 18.713 129.099 18.7852 129.112 18.9018C129.123 18.9968 129.122 19.093 129.122 19.1893C129.122 23.2455 129.122 27.3018 129.122 31.3581C129.122 31.7273 129.122 31.7273 129.486 31.7273C131.756 31.7273 134.024 31.7273 136.293 31.7273C136.441 31.7273 136.587 31.7381 136.733 31.7682C136.846 31.7922 136.909 31.8523 136.958 31.9558C137.034 32.1133 137.07 32.272 137.065 32.4464C137.056 32.7266 137.064 33.008 137.062 33.2882C137.062 33.3616 137.061 33.4373 137.046 33.5083C136.986 33.7644 136.901 33.839 136.642 33.8065C136.316 33.7656 135.993 33.8161 135.669 33.8149C132.786 33.8113 129.905 33.8125 127.022 33.8125C126.545 33.8125 126.505 33.7716 126.505 33.2942C126.504 30.93 126.504 28.5657 126.504 26.2015Z" fill="white"/>
<path d="M92.1328 26.2518C92.1328 23.8586 92.1328 21.4643 92.1328 19.0712C92.1328 18.6912 92.134 18.69 92.5164 18.69C93.0852 18.69 93.6541 18.6888 94.2229 18.69C94.5825 18.6912 94.6666 18.773 94.6678 19.1349C94.669 20.7897 94.669 22.4444 94.669 24.0992C94.669 27.1212 94.669 30.1421 94.669 33.1641C94.669 33.3048 94.6714 33.4443 94.6233 33.5802C94.5716 33.7282 94.4802 33.8147 94.3143 33.8147C93.6637 33.8123 93.0143 33.8159 92.3637 33.8123C92.1821 33.8111 92.1448 33.769 92.1352 33.5887C92.1316 33.5153 92.134 33.4407 92.134 33.3674C92.1328 30.9947 92.1328 28.6232 92.1328 26.2518Z" fill="white"/>
</svg>
