<svg width="311" height="70" viewBox="0 0 311 70" fill="none" xmlns="http://www.w3.org/2000/svg">
<path fill-rule="evenodd" clip-rule="evenodd" d="M34.8248 0.00528769C36.714 -0.0289898 39.4277 0.10812 40.836 0.279508C42.2444 0.485173 43.9619 0.793671 44.6145 0.999336C45.2672 1.205 46.8129 1.75344 48.0495 2.19905C49.2861 2.64466 51.6563 3.81009 53.3394 4.80414C55.0913 5.83247 57.6675 7.78629 59.3163 9.36305C60.8964 10.8713 62.8544 13.0307 63.6788 14.1619C64.4688 15.2931 65.7741 17.4183 66.5642 18.8922C67.3199 20.3319 68.2817 22.4228 68.6252 23.4854C69.0031 24.5823 69.484 26.399 69.7244 27.5301C69.9305 28.6613 70.171 31.8148 70.274 34.557C70.3427 37.2992 70.274 40.0757 70.1023 40.727C69.9305 41.3783 69.5183 43.0236 69.2092 44.3261C68.8657 45.6287 68.1787 47.8224 67.6291 49.125C67.0795 50.4275 65.7398 52.827 64.7093 54.438C63.6445 56.049 61.6521 58.4827 60.3125 59.8539C58.9385 61.225 56.6027 63.2131 55.0913 64.2071C53.5799 65.2354 51.1754 66.5723 49.767 67.2235C48.3587 67.8748 45.8855 68.766 44.271 69.2116C41.7291 69.8972 40.5612 70 35.1683 70C31.4585 70 28.4013 69.8286 27.5082 69.5887C26.7181 69.3487 25.4128 69.006 24.6228 68.8003C23.7984 68.5946 21.9091 67.8748 20.3977 67.155C18.8863 66.4694 16.7223 65.2697 15.5887 64.5499C14.4552 63.7958 12.1537 61.8762 10.5049 60.2652C8.82178 58.6541 6.79512 56.3575 5.97072 55.1236C5.18067 53.8896 4.01277 51.9015 3.42882 50.6675C2.81052 49.4335 2.08917 47.7539 1.78002 46.8969C1.50522 46.04 1.02431 44.5661 0.749514 43.6406C0.440364 42.578 0.165563 39.6644 0.0625133 36.0995C-0.0748869 31.3692 -0.00618684 29.8267 0.474714 27.8729C0.783864 26.5704 1.33346 24.5823 1.71132 23.4854C2.05482 22.4228 2.84487 20.6061 3.39447 19.4749C3.97842 18.3438 5.00892 16.5271 5.69592 15.4302C6.38292 14.3676 8.16912 12.2424 9.61183 10.7342C11.0545 9.22594 13.3903 7.20357 14.7643 6.2438C16.1727 5.28403 18.2337 4.01576 19.3672 3.46732C20.5008 2.8846 22.1152 2.19905 22.974 1.89055C23.8327 1.61633 25.138 1.205 25.8937 0.965058C26.6494 0.759393 28.1952 0.450896 29.3288 0.279508C30.4623 0.142398 32.9355 0.00528769 34.8248 0.00528769ZM20.329 30.8551C17.3749 35.414 16.8597 36.3395 17.2375 36.7851C17.581 37.2307 18.4741 37.3335 21.9435 37.3335C25.1724 37.2992 26.4433 37.1621 27.0273 36.7851C27.4395 36.5109 28.1609 35.4483 28.6074 34.4542C29.054 33.4944 29.5349 32.1233 29.6723 31.4721C29.8097 30.8208 29.7066 29.1755 29.5005 27.8729C29.2601 26.5361 28.9166 25.165 28.6761 24.7879C28.47 24.4109 28.1609 23.554 27.9548 22.9027C27.7143 22.08 27.3708 21.6687 26.8556 21.6001C26.306 21.5316 25.8937 21.9429 25.0006 23.4854C24.3823 24.5823 22.287 27.9072 20.329 30.8551ZM33.966 14.8656C32.1774 14.1129 30.4839 14.8656 29.6723 17.8763C29.1805 19.7005 30.8602 22.5806 32.3656 24.086C32.9001 24.6205 33.069 24.4624 33.4508 26.3441C33.5054 26.6134 33.5538 27.9757 33.4508 28.2842C33.3821 28.627 33.1416 29.8953 32.9355 31.1293C32.7638 32.3633 32.1798 34.2143 31.6989 35.2426C31.218 36.2709 30.3936 37.8477 29.8097 38.7389C28.9853 40.11 28.8822 40.487 29.2601 40.8984C29.5349 41.2754 30.2906 41.4468 31.8363 41.4125H33.966V44.8403C29.7066 44.8403 28.0922 44.6346 27.6113 44.3947C27.1304 44.189 26.512 43.4692 26.2372 42.8522C25.9624 42.2695 25.722 41.6182 25.722 41.4125C25.722 41.2069 25.4128 40.9327 25.035 40.727C24.6571 40.5213 22.287 40.3842 19.7451 40.3842C16.104 40.3842 15.0048 40.487 14.5926 40.8984C14.1804 41.2754 14.1117 41.7553 14.2491 42.6808C14.3865 43.4006 14.7987 44.8403 15.1765 45.8686C15.6918 47.2397 16.4475 48.3023 17.9932 49.8105C19.4016 51.1816 20.7412 52.1071 22.0465 52.6213C23.9358 53.3754 24.3823 53.4097 35.1683 53.4097C44.0306 53.4097 46.5381 53.3068 47.2938 52.9298C47.8091 52.6556 48.9083 51.6958 49.767 50.8046C50.6258 49.8791 52.0685 47.9596 52.9272 46.5542C54.1982 44.5318 54.9539 43.7434 56.4653 42.7836C57.5301 42.1324 58.4919 41.2754 58.595 40.8984C58.6637 40.5213 58.698 39.9043 58.6293 39.5273C58.5606 39.0817 58.2171 38.8074 57.6675 38.7389C57.1866 38.6703 55.4004 39.0474 53.7173 39.5616C52.0341 40.0414 49.8701 40.6927 48.9083 40.9669C47.9808 41.2754 46.6412 41.9953 45.9885 42.6123C45.3359 43.195 44.4084 43.9491 43.9275 44.2919C43.355 44.6575 42.3589 44.8403 40.9391 44.8403H38.775V41.5839C41.8322 41.1726 42.2444 40.8984 43.8588 39.1159C44.8206 38.0191 46.1259 36.2024 46.7099 35.0712C47.5686 33.3916 47.7404 32.7061 47.6373 31.3007C47.5686 30.3409 47.1221 28.7984 46.6755 27.8729C46.1946 26.9131 45.4046 25.6449 44.8893 25.0279C44.3397 24.4452 43.8488 23.4525 43.2796 22.7688C42.1552 21.4185 40.0806 19.3817 39.1398 18.629C38.3617 18.0066 35.3763 15.4591 33.966 14.8656ZM105.174 18.8237C106.822 18.7894 108.987 18.9608 109.983 19.1664C110.944 19.3721 112.765 20.0576 114.002 20.7089C115.238 21.3259 116.853 22.4571 117.608 23.1426C118.364 23.8624 119.566 25.3707 120.253 26.5018C120.94 27.633 121.765 29.5525 122.108 30.7865C122.52 32.4661 122.623 33.8715 122.486 36.4423C122.314 39.5616 122.177 40.11 120.94 42.6123C120.013 44.4975 118.982 45.9029 117.711 47.0683C116.715 47.9938 114.895 49.2964 113.658 49.9134C112.422 50.5304 110.567 51.1816 109.536 51.3873C108.506 51.593 106.101 51.6958 104.212 51.6272C101.533 51.4901 100.296 51.2502 98.5441 50.5304C97.3075 50.0505 95.4869 49.0564 94.4908 48.3366C93.4603 47.6511 92.2924 46.6227 91.8802 46.04C91.4336 45.4573 90.6092 44.1547 90.0253 43.1264C89.4757 42.0981 88.7887 40.3842 88.5826 39.3559C88.3078 38.2247 88.2047 36.0995 88.3078 34.0429C88.4452 31.6092 88.6856 30.1352 89.2009 28.9012C89.6131 27.9415 90.6092 26.2962 91.3993 25.2335C92.2237 24.1709 93.4946 22.8341 94.2503 22.2857C95.006 21.7372 96.277 20.9489 97.1014 20.5718C97.8914 20.1605 99.3685 19.612 100.365 19.3378C101.326 19.0636 103.491 18.8237 105.174 18.8237ZM98.8876 28.01C97.754 29.1755 97.1701 30.1352 96.6892 31.6434C96.2426 33.0831 96.1052 34.3514 96.2083 35.9281C96.3113 37.3335 96.7235 38.876 97.2731 40.11C97.9258 41.4811 98.6471 42.4066 99.6777 43.1607C100.468 43.7091 101.91 44.429 102.838 44.7032C103.8 44.9774 104.933 45.1831 105.414 45.1831C105.895 45.1831 107.132 44.9431 108.162 44.6346C109.467 44.2233 110.532 43.572 111.7 42.4751C112.765 41.4468 113.589 40.2814 114.036 39.0817C114.379 38.1219 114.689 36.4766 114.689 35.4825C114.689 34.5228 114.448 32.8432 114.139 31.8148C113.727 30.5123 113.074 29.4497 111.975 28.2842C110.944 27.2216 109.777 26.399 108.609 25.9534C107.613 25.6106 106.204 25.3021 105.517 25.3364C104.796 25.3364 103.353 25.6106 102.323 25.9191C100.949 26.3304 99.9868 26.9131 98.8876 28.01ZM235.944 18.9265C239.311 18.995 240.169 19.1321 241.784 19.8863C242.814 20.3661 244.154 21.1202 244.704 21.6001C245.253 22.08 246.181 23.314 246.696 24.3081C247.211 25.3364 247.623 26.5361 247.452 27.8729L243.33 27.7358C240.616 27.6673 239.139 27.4959 239.07 27.2559C238.967 27.016 238.486 26.399 237.971 25.8163C237.147 24.8908 236.803 24.7879 235.086 24.7879C233.402 24.7879 233.025 24.925 232.303 25.7134C231.822 26.2619 231.479 27.1188 231.479 27.7015C231.479 28.3528 231.822 29.1069 232.441 29.7582C233.128 30.5466 234.399 31.1636 237.318 32.1919C239.482 32.946 242.127 34.0429 243.158 34.5913C244.188 35.1398 245.287 35.791 245.597 36.031C245.871 36.2709 246.524 37.0593 247.039 37.8134C247.829 38.9788 247.967 39.5273 247.967 41.7553C247.967 43.8805 247.829 44.6346 247.074 46.04C246.593 46.9655 245.871 48.0967 245.459 48.5423C245.047 48.9879 243.707 49.8448 242.471 50.4275C240.307 51.4901 240.135 51.5244 235.773 51.5244C231.891 51.4901 231.032 51.3873 229.246 50.6675C227.975 50.1533 226.601 49.2621 225.605 48.3023C224.506 47.2054 223.819 46.1428 223.372 44.7717C223.029 43.6749 222.788 42.7494 222.891 42.6465C222.994 42.578 224.884 42.4409 231.204 42.2695L231.788 43.4692C232.097 44.189 232.818 44.9089 233.54 45.2516C234.192 45.5944 235.292 45.8686 235.944 45.8686C236.597 45.8686 237.524 45.663 238.005 45.423C238.486 45.1831 239.139 44.4632 239.448 43.812C239.895 42.8865 239.929 42.4066 239.688 41.7553C239.482 41.2754 239.001 40.5556 238.589 40.11C238.108 39.5958 236.391 38.876 233.883 38.0876C231.719 37.4363 229.074 36.4423 228.044 35.9281C227.013 35.414 225.674 34.4542 225.124 33.8372C224.54 33.1859 223.784 31.8834 223.407 30.9579C222.96 29.7239 222.823 28.7299 222.96 27.3588C223.063 26.3304 223.441 24.8565 223.819 24.1024C224.197 23.3483 225.055 22.2857 225.674 21.7372C226.326 21.1888 227.425 20.469 228.147 20.1262C228.834 19.7491 230.002 19.3378 230.723 19.1321C231.41 18.9608 233.78 18.8579 235.944 18.9265ZM144.745 25.7477C147.252 25.8505 148.146 26.0219 149.554 26.7418C150.516 27.2216 151.855 28.25 152.577 29.0384C153.264 29.7925 154.26 31.2664 154.775 32.2262C155.668 33.94 155.737 34.3171 155.737 38.499C155.737 42.8179 155.703 43.0579 154.672 45.1831C154.054 46.4171 153.058 47.9253 152.439 48.5765C151.787 49.2278 150.275 50.2219 149.039 50.7703C146.978 51.7301 146.565 51.7986 143.68 51.6615C140.863 51.5244 140.382 51.4216 138.699 50.359C137.36 49.5363 136.707 49.3307 136.329 49.5706C135.917 49.8105 135.78 50.8389 135.642 59.2369L131.795 59.134C128.36 59.0655 127.913 58.9969 127.913 58.4485C127.913 58.14 127.948 50.7018 128.085 25.9877H135.47L135.745 27.016C135.883 27.6673 136.192 28.0443 136.604 28.0443C136.913 28.0786 137.566 27.7701 138.047 27.393C138.528 27.016 139.524 26.4675 140.279 26.1933C141.241 25.8163 142.547 25.6792 144.745 25.7477ZM137.531 33.8715C136.982 34.3857 136.295 35.4483 136.089 36.1681C135.848 36.8879 135.642 38.1219 135.642 38.9103C135.642 39.7329 135.848 40.8984 136.089 41.4811C136.363 42.0981 137.119 43.1264 137.806 43.7091C138.528 44.3261 139.661 45.0117 140.382 45.2173C141.344 45.5258 142.031 45.5258 143.199 45.2173C144.195 44.9774 145.191 44.3604 145.982 43.5378C146.669 42.8522 147.424 41.721 147.63 41.0698C147.836 40.4185 148.008 39.3216 148.008 38.6703C148.008 38.0191 147.836 36.9222 147.63 36.2709C147.39 35.6196 146.737 34.557 146.153 33.94C145.569 33.323 144.401 32.6032 143.543 32.329C142.684 32.0548 141.86 31.8148 141.653 31.8491C141.447 31.8491 140.692 32.0891 139.936 32.3633C139.18 32.6375 138.081 33.323 137.531 33.8715ZM173.427 25.7477C176.381 25.8505 177.377 26.0219 178.923 26.7075C179.954 27.1874 181.431 28.1129 182.186 28.7984C182.942 29.4497 183.973 30.7522 184.488 31.6777C185.106 32.8089 185.553 34.3171 185.828 36.2709C186.068 37.882 186.137 39.4587 185.999 39.7672C185.793 40.3499 185.175 40.3842 177.137 40.1786C168.927 39.9729 168.412 39.9729 167.828 40.5899C167.382 41.0355 167.244 41.5154 167.416 42.0981C167.519 42.578 167.828 43.2635 168.069 43.6406C168.309 44.0176 169.168 44.6689 170.027 45.0802C170.851 45.5258 171.881 45.8686 172.328 45.8686C172.74 45.8686 173.496 45.6972 174.046 45.4916C174.561 45.3202 175.42 44.7375 175.935 44.2233C176.862 43.3321 177.034 43.2978 181.019 43.2978C184.419 43.2978 185.106 43.4006 185.106 43.812C185.106 44.0862 184.522 45.2516 183.801 46.3828C182.942 47.7539 181.912 48.7822 180.778 49.502C179.851 50.0848 178.545 50.7703 177.893 51.0445C177.103 51.353 175.282 51.5244 172.568 51.5244C168.859 51.5244 168.24 51.4216 166.557 50.6332C165.527 50.1533 164.084 49.2278 163.363 48.5765C162.607 47.9253 161.679 46.7941 161.233 46.04C160.786 45.2859 160.168 43.7434 159.859 42.6123C159.412 41.104 159.309 39.8015 159.412 37.642C159.515 35.5511 159.825 34.2143 160.443 32.8432C160.889 31.8148 161.817 30.3752 162.47 29.6211C163.122 28.9012 164.324 27.9072 165.183 27.393C166.042 26.9131 167.416 26.3304 168.275 26.0905C169.202 25.8163 171.229 25.6792 173.427 25.7477ZM167.862 34.1457C167.279 35.2083 167.279 35.2769 167.931 35.9281C168.549 36.5451 169.065 36.6137 172.568 36.6137C176.072 36.6137 176.587 36.5451 177.206 35.9281C177.618 35.5168 177.824 35.0026 177.687 34.6256C177.549 34.3171 177.137 33.6658 176.725 33.2202C176.313 32.7746 175.488 32.1919 174.904 31.9519C174.286 31.6777 173.255 31.4721 172.637 31.4721C172.019 31.4721 170.817 31.8491 169.992 32.2604C169.133 32.7061 168.172 33.563 167.862 34.1457ZM207.949 25.7477C210.216 25.8505 211.006 26.0562 212.586 26.9131C213.857 27.5987 214.853 28.4556 215.609 29.6211C216.227 30.5466 216.88 31.8491 217.052 32.5004C217.258 33.1517 217.395 37.6763 217.395 51.353H209.838L209.77 43.7091C209.667 36.8879 209.598 35.9624 208.98 34.7627C208.602 34.0086 207.846 33.0831 207.331 32.7061C206.575 32.1576 205.819 31.9862 204.171 31.9862C202.487 31.9862 201.766 32.1576 201.01 32.7061C200.495 33.0831 199.808 33.8715 199.533 34.4199C199.121 35.2083 198.984 37.0936 198.846 51.353H191.117L190.946 25.9877H194.827C198.606 25.9534 198.674 25.9877 199.121 26.8446C199.327 27.3245 199.808 27.7015 200.152 27.7015C200.461 27.7015 201.113 27.4273 201.594 27.1188C202.075 26.8103 203.071 26.3304 203.827 26.0905C204.651 25.8163 206.335 25.6792 207.949 25.7477ZM266.001 25.7477C269.333 25.8163 270.02 25.9534 271.977 26.8446C273.283 27.4616 274.725 28.4556 275.481 29.3469C276.237 30.1352 277.233 31.6092 277.714 32.6032C278.401 33.94 278.676 35.1398 279.054 40.4528L270.02 40.3499C261.295 40.2128 260.951 40.2471 260.47 40.8984C260.195 41.2754 260.092 41.8924 260.195 42.2695C260.298 42.6465 260.882 43.4692 261.501 44.0862C262.085 44.7032 263.115 45.3887 263.768 45.5944C264.421 45.8001 265.554 45.8686 266.275 45.7315C266.997 45.6287 268.096 45.046 270.054 43.2978H274.142C276.374 43.2978 278.195 43.3664 278.195 43.4692C278.161 43.572 277.68 44.5661 277.061 45.663C276.443 46.7598 275.413 48.1309 274.76 48.7137C274.107 49.2964 272.699 50.1533 271.668 50.6332C269.951 51.4559 269.367 51.5244 261.192 51.5244L258.65 50.1533C257.241 49.3992 255.696 48.2338 255.146 47.5825C254.631 46.9312 253.772 45.4573 253.257 44.3261C252.432 42.5094 252.295 41.8582 252.295 38.6703C252.261 35.414 252.364 34.8655 253.222 33.0145C253.772 31.8834 254.528 30.5123 254.94 29.9638C255.352 29.4154 256.383 28.4899 257.241 27.9072C258.1 27.3245 259.577 26.5704 260.505 26.2276C261.844 25.7477 263.046 25.6449 266.001 25.7477ZM261.123 33.4944C260.711 34.0771 260.333 34.7627 260.333 35.0026C260.333 35.2083 260.505 35.6539 260.676 35.9281C260.917 36.3395 261.913 36.4766 265.314 36.5451C269.229 36.6137 269.676 36.5451 270.294 35.9281C270.947 35.2769 270.947 35.2083 270.363 34.1457C270.02 33.4602 269.126 32.7061 268.233 32.2262C267.375 31.8148 266.138 31.4721 265.485 31.4721C264.833 31.5063 263.768 31.712 263.115 31.9519C262.463 32.1919 261.569 32.8774 261.123 33.4944ZM293.618 25.6449C295.061 25.6449 296.778 25.782 297.431 25.9877C298.084 26.159 299.251 26.7075 300.007 27.2216C301.003 27.8729 301.519 28.0443 301.896 27.8044C302.171 27.5987 302.446 27.1188 302.515 26.7075C302.583 26.0219 302.755 25.9877 310.484 25.9877V51.353H306.534C302.583 51.353 302.583 51.353 302.412 50.4961C302.309 49.9819 301.999 49.6392 301.656 49.6392C301.312 49.6392 300.179 50.0848 299.148 50.5989C297.671 51.3187 296.641 51.5587 294.339 51.6615C291.66 51.7986 291.248 51.6958 289.187 50.7703C287.95 50.1876 286.439 49.1935 285.821 48.5765C285.168 47.9253 284.172 46.4171 283.588 45.1831C282.66 43.2635 282.489 42.5094 282.386 39.5273C282.283 37.0593 282.386 35.5511 282.763 34.2143C283.073 33.1859 283.966 31.3349 284.79 30.1352C286.061 28.2842 286.611 27.8044 288.637 26.8103C290.733 25.782 291.385 25.6449 293.618 25.6449ZM292.107 33.8715C291.557 34.3857 290.87 35.4483 290.664 36.1681C290.423 36.8879 290.217 38.0191 290.217 38.6703C290.217 39.3216 290.389 40.4185 290.595 41.0698C290.801 41.721 291.557 42.8522 292.244 43.5378C292.965 44.2919 294.065 44.9774 294.855 45.2173C295.851 45.4916 296.641 45.4916 297.706 45.2173C298.496 45.0117 299.732 44.3261 300.454 43.6749C301.141 43.0579 301.931 41.9267 302.137 41.2069C302.377 40.4528 302.583 39.3216 302.583 38.6703C302.583 38.0191 302.412 36.9222 302.206 36.2709C301.965 35.6196 301.312 34.557 300.728 33.94C300.145 33.323 298.977 32.6032 298.118 32.329C297.259 32.0548 296.4 31.8148 296.229 31.8491C296.057 31.8491 295.267 32.0891 294.511 32.3633C293.755 32.6375 292.656 33.323 292.107 33.8715Z" fill="white"/>
</svg>
