<svg width="22" height="22" viewBox="0 0 22 22" fill="none" xmlns="http://www.w3.org/2000/svg">
<path fill-rule="evenodd" clip-rule="evenodd" d="M11 20C12.1819 20 13.3522 19.7672 14.4442 19.3149C15.5361 18.8626 16.5282 18.1997 17.364 17.364C18.1997 16.5282 18.8626 15.5361 19.3149 14.4442C19.7672 13.3522 20 12.1819 20 11C20 9.8181 19.7672 8.64778 19.3149 7.55585C18.8626 6.46392 18.1997 5.47177 17.364 4.63604C16.5282 3.80031 15.5361 3.13738 14.4442 2.68508C13.3522 2.23279 12.1819 2 11 2C8.61305 2 6.32387 2.94821 4.63604 4.63604C2.94821 6.32387 2 8.61305 2 11C2 13.3869 2.94821 15.6761 4.63604 17.364C6.32387 19.0518 8.61305 20 11 20ZM11 22C17.075 22 22 17.075 22 11C22 4.925 17.075 0 11 0C4.925 0 0 4.925 0 11C0 17.075 4.925 22 11 22Z" fill="#2253F5"/>
<path d="M15 10.9999L9 15.3299V6.66992L15 10.9999Z" fill="white"/>
</svg>
