<svg width="76" height="76" viewBox="0 0 76 76" fill="none" xmlns="http://www.w3.org/2000/svg">
<g filter="url(#filter0_dd_171_371)">
<path d="M63 38C63 51.8071 51.8071 63 38 63C24.1929 63 13 51.8071 13 38C13 24.1929 24.1929 13 38 13C51.8071 13 63 24.1929 63 38Z" fill="white"/>
<path d="M59.0644 38C59.0644 49.6335 49.6335 59.0644 38 59.0644C26.3665 59.0644 16.9356 49.6335 16.9356 38C16.9356 26.3665 26.3665 16.9356 38 16.9356C49.6335 16.9356 59.0644 26.3665 59.0644 38Z" stroke="white" strokeWidth="7.87124"/>
</g>
<g clip-path="url(#clip0_171_371)">
<path d="M36.7809 23.5403C32.9147 23.9552 29.4116 25.8047 26.9456 28.7432C25.2113 30.8059 24.1339 33.1451 23.6557 35.8877C23.5462 36.5157 23.5347 36.8211 23.5347 38.25C23.5347 39.6789 23.5462 39.9843 23.6557 40.6123C24.1973 43.7179 25.4994 46.2991 27.6485 48.5289C29.8553 50.8221 32.6382 52.274 35.8878 52.8444C36.5158 52.9539 36.8212 52.9654 38.2501 52.9654C40.0535 52.9654 40.5951 52.9078 42.0125 52.5448C47.0886 51.2312 51.2312 47.0885 52.5449 42.0124C52.9079 40.595 52.9655 40.0534 52.9655 38.25C52.9655 36.4466 52.9079 35.905 52.5449 34.4876C51.2312 29.4115 47.0943 25.2688 42.0125 23.9552C40.7046 23.621 40.0881 23.5461 38.4806 23.5288C37.6739 23.5173 36.9076 23.523 36.7809 23.5403ZM35.9915 32.4076C36.1989 32.4768 37.0978 33.0933 39.2123 34.6259C40.8198 35.7955 42.243 36.8672 42.3755 37.0112C43.0611 37.743 43.0611 38.757 42.3755 39.4888C42.1047 39.7826 36.5734 43.8273 36.1759 44.0232C35.7841 44.2191 35.11 44.2076 34.6721 44.006C34.2745 43.8158 33.9576 43.4989 33.7617 43.0898L33.6119 42.773V38.25V33.7271L33.7617 33.4102C34.0037 32.9146 34.4474 32.5286 34.9659 32.3673C35.2137 32.2924 35.6919 32.3097 35.9915 32.4076Z" fill="url(#paint0_linear_171_371)"/>
</g>
<defs>
<filter id="filter0_dd_171_371" x="0.835349" y="0.835349" width="74.3293" height="74.3293" filterUnits="userSpaceOnUse" color-interpolation-filters="sRGB">
<feFlood flood-opacity="0" result="BackgroundImageFix"/>
<feColorMatrix in="SourceAlpha" type="matrix" values="0 0 0 0 0 0 0 0 0 0 0 0 0 0 0 0 0 0 127 0" result="hardAlpha"/>
<feOffset/>
<feComposite in2="hardAlpha" operator="out"/>
<feColorMatrix type="matrix" values="0 0 0 0 1 0 0 0 0 0.611765 0 0 0 0 0 0 0 0 1 0"/>
<feBlend mode="normal" in2="BackgroundImageFix" result="effect1_dropShadow_171_371"/>
<feColorMatrix in="SourceAlpha" type="matrix" values="0 0 0 0 0 0 0 0 0 0 0 0 0 0 0 0 0 0 127 0" result="hardAlpha"/>
<feOffset/>
<feGaussianBlur stdDeviation="6.08233"/>
<feComposite in2="hardAlpha" operator="out"/>
<feColorMatrix type="matrix" values="0 0 0 0 0 0 0 0 0 0 0 0 0 0 0 0 0 0 0.3 0"/>
<feBlend mode="normal" in2="effect1_dropShadow_171_371" result="effect2_dropShadow_171_371"/>
<feBlend mode="normal" in="SourceGraphic" in2="effect2_dropShadow_171_371" result="shape"/>
</filter>
<linearGradient id="paint0_linear_171_371" x1="38.2501" y1="52.9654" x2="38.2501" y2="23.5228" gradientUnits="userSpaceOnUse">
<stop stop-color="#FA9013"/>
<stop offset="1" stop-color="#FEA800"/>
</linearGradient>
<clipPath id="clip0_171_371">
<rect width="29.5" height="29.5" fill="white" transform="translate(23.5 23.5)"/>
</clipPath>
</defs>
</svg>
