<svg width="374" height="164" viewBox="0 0 374 164" fill="none" xmlns="http://www.w3.org/2000/svg">
<path d="M41.6283 3.15603C35.6783 4.85603 26.6084 10.239 21.2284 15.339C3.65837 31.771 8.75832 46.787 39.9283 67.753C58.0583 80.219 62.8785 86.452 60.3285 95.519C57.2085 108.268 27.1784 114.218 15.2784 104.301C9.32842 99.485 10.4584 90.135 16.9784 88.435C23.4984 86.736 24.6283 77.669 18.3983 75.119C1.95829 68.886 -7.38151 98.352 7.34848 109.968C17.2585 117.901 30.5785 119.884 45.5985 115.918C60.3285 111.951 69.9585 104.018 75.3485 91.269C81.5785 76.536 75.6283 65.486 52.6783 51.037C31.1483 37.438 25.4783 28.938 31.1483 18.455C35.1083 11.089 41.6285 8.256 56.0785 8.256C64.2985 8.256 65.4285 9.10603 64.5785 14.489C64.0085 18.738 60.8984 21.855 55.2284 23.555C43.8984 27.238 43.8983 27.238 48.1483 32.338C59.1983 45.654 83.8384 24.122 74.2084 9.10604C72.2284 5.98904 58.0583 -0.526979 54.3783 0.0390212C53.2483 0.323021 47.5783 1.73903 41.6283 3.15603Z" fill="white"/>
<path d="M341.669 4.28887C338.829 7.12287 337.129 13.6389 337.129 22.4219C337.129 36.3049 337.129 36.3049 328.919 34.8879C324.099 33.7549 317.299 34.8879 312.199 37.7209C301.149 43.3879 288.969 67.4699 288.969 83.6189C288.969 97.7849 281.039 109.401 273.669 106.568C269.139 104.868 268.849 100.902 269.699 70.3028L270.549 36.3049L262.049 36.8708C257.519 37.1548 250.719 36.5879 247.319 35.4549C237.969 32.3379 222.669 40.2709 215.589 51.8869C211.899 57.5539 207.649 71.4359 205.669 82.4859C201.709 105.435 195.469 113.085 188.109 103.168C183.859 97.5019 184.139 74.2699 188.669 37.7209C190.089 26.6719 189.519 25.8218 181.309 22.9878C176.769 21.2888 172.519 20.1549 172.239 20.4389C171.959 20.7219 170.539 39.4208 168.839 61.8028C166.289 95.2348 164.869 103.168 160.909 105.718C150.989 111.668 148.719 104.018 149.569 68.8869L150.419 36.3049L141.069 36.8708C135.969 37.1548 128.609 36.5879 124.639 35.4549C114.729 32.9049 99.9889 43.1038 92.3389 57.8368C88.0889 66.0528 86.3887 74.5528 86.3887 88.4358C86.3887 105.435 87.2387 108.551 93.1887 113.368C102.829 121.301 107.359 120.168 120.959 106.002C131.159 95.2349 133.139 94.1019 133.139 98.9189C133.139 105.718 145.039 118.751 151.269 118.751C153.539 118.751 158.919 115.918 163.169 112.235L170.819 105.718L177.339 112.235C185.559 120.451 189.809 120.451 199.719 112.518C206.519 107.135 207.939 106.852 210.769 110.535C219.269 122.151 234.289 118.184 244.199 102.035L250.439 92.1189L252.699 101.185C256.949 117.618 273.389 122.718 284.719 111.385C288.399 107.701 289.819 107.985 297.179 113.368C307.669 121.018 315.319 118.751 325.519 104.585L333.449 93.8188L336.849 103.452C343.369 121.018 361.499 123.284 369.709 107.418C375.659 96.0849 375.099 89.8519 368.859 99.7679C365.749 104.868 362.059 107.418 358.379 106.852C353.569 106.002 352.719 103.452 351.869 87.5859C351.299 77.3859 352.149 54.4369 353.849 36.5879C356.119 11.3719 356.119 3.72288 353.279 2.02288C348.469 -1.09412 346.479 -0.810133 341.669 4.28887ZM130.869 60.3869C129.459 87.8689 112.459 113.085 104.809 99.2019C100.839 91.5519 101.129 82.4859 105.939 66.6199C111.039 50.1869 118.129 41.6879 125.779 42.8209C131.159 43.6709 131.719 45.3709 130.869 60.3869ZM252.139 55.5699C251.849 79.3689 240.519 101.752 228.899 101.752C224.649 101.752 223.799 99.4849 223.799 86.1689C223.799 61.2369 233.999 42.2539 247.039 42.2539C251.289 42.2539 252.139 44.5209 252.139 55.5699ZM334.299 57.8368C334.299 83.0528 319.849 107.135 308.799 100.335C304.829 97.7849 305.399 76.8189 309.929 64.0699C314.749 50.7539 322.119 42.2539 329.199 42.2539C333.449 42.2539 334.299 44.5208 334.299 57.8368Z" fill="white"/>
<path d="M192.638 145.667C164.878 149.633 132.008 156.999 124.638 161.533C118.128 165.216 124.358 164.649 154.388 158.416C196.038 149.916 241.939 146.517 272.249 149.916C287.839 151.616 299.739 151.9 302.569 150.2C317.589 141.7 243.348 138.867 192.638 145.667Z" fill="white"/>
</svg>
