<svg width="876" height="221" viewBox="0 0 876 221" fill="none" xmlns="http://www.w3.org/2000/svg">
<path fill-rule="evenodd" clip-rule="evenodd" d="M0.0367906 217.443L0.0319563 217.457L0.0359903 217.454L0.0349813 217.457L0.0543307 217.443L168.318 217.093C185.47 217.064 201.192 212.261 214.151 203.092C214.534 202.822 214.913 202.548 215.29 202.27C215.835 201.902 216.376 201.526 216.911 201.143C229.824 191.908 239.518 178.631 245.171 162.438L300.697 3.57775L300.728 3.55633L300.705 3.55638L300.71 3.54076L300.688 3.55641L300.678 3.55644L300.68 3.55124L300.673 3.55644L132.4 3.90605C115.248 3.93527 99.5257 8.73836 86.5667 17.9074C86.0936 18.2422 85.6246 18.5825 85.1598 18.9281C84.7133 19.2327 84.2701 19.5424 83.8301 19.857C70.9178 29.0918 61.2235 42.3693 55.5704 58.5622L0.0490684 217.408L-0.000463318 217.443L0.0367906 217.443ZM74.5056 99.5262C82.7536 96.7675 91.6346 95.3477 100.936 95.3319L233.852 95.0557L254.518 35.0663L254.539 35.0511L254.523 35.0511L254.527 35.0401L254.511 35.0512L254.504 35.0512L254.505 35.0475L254.5 35.0512L136.947 35.3202C124.966 35.3431 113.981 38.7511 104.927 45.2549C104.597 45.4923 104.269 45.7337 103.944 45.9789C103.632 46.1949 103.323 46.4146 103.015 46.6378C93.9936 53.1881 87.2197 62.6049 83.2685 74.0886L74.5056 99.5262ZM223.028 126.477L105.483 126.746C93.5014 126.769 82.5172 130.177 73.4631 136.681C73.1325 136.918 72.8048 137.159 72.4801 137.405C72.1681 137.621 71.8584 137.84 71.551 138.064C62.5295 144.614 55.7556 154.031 51.8044 165.514L44.4842 186.764L162.013 186.495C173.994 186.472 184.979 183.064 194.033 176.561C194.3 176.369 194.565 176.174 194.828 175.977C195.209 175.716 195.587 175.45 195.961 175.178C204.983 168.628 211.757 159.211 215.708 147.727L223.028 126.477Z" fill="#1C202B"/>
<path d="M345.237 106.67C345.237 95.7546 349.259 87.2804 357.302 81.248C365.345 75.2155 376.548 72.1993 390.911 72.1993C405.562 72.1993 416.765 75.2873 424.521 81.4634C432.42 87.6395 436.514 96.3291 436.801 107.532H409.224C409.081 103.367 407.357 100.063 404.053 97.6217C400.894 95.0364 396.585 93.7437 391.127 93.7437C385.094 93.7437 380.498 94.821 377.338 96.9754C374.178 98.9862 372.599 101.931 372.599 105.809C372.599 109.83 374.25 112.846 377.554 114.857C380.857 116.725 384.951 118.233 389.834 119.382C394.861 120.531 400.247 121.68 405.992 122.829C411.738 123.834 417.052 125.486 421.935 127.784C426.962 129.938 431.128 133.098 434.431 137.264C437.735 141.285 439.386 146.887 439.386 154.068C439.386 164.84 435.365 173.315 427.321 179.491C419.422 185.523 407.644 188.539 391.989 188.539C375.902 188.539 363.694 185.308 355.363 178.844C347.032 172.381 342.867 163.691 342.867 152.776H370.444C371.737 162.255 379.062 166.995 392.419 166.995C405.203 166.995 411.594 163.117 411.594 155.361C411.594 151.483 409.942 148.61 406.639 146.743C403.335 144.876 399.242 143.44 394.358 142.434C389.475 141.285 384.161 140.208 378.416 139.203C372.67 138.197 367.356 136.545 362.473 134.247C357.589 131.949 353.496 128.718 350.192 124.552C346.889 120.243 345.237 114.283 345.237 106.67Z" fill="black"/>
<path d="M565.491 186.816H538.345V171.95C534.897 177.264 530.301 181.43 524.556 184.446C518.811 187.319 511.629 188.755 503.012 188.755C495.112 188.755 487.787 187.319 481.036 184.446C474.429 181.43 468.684 177.336 463.801 172.166C458.917 166.851 455.111 160.675 452.382 153.637C449.797 146.456 448.504 138.772 448.504 130.585C448.504 122.254 449.797 114.57 452.382 107.532C455.111 100.351 458.917 94.1746 463.801 89.004C468.684 83.6897 474.429 79.5962 481.036 76.7236C487.787 73.7074 495.184 72.1993 503.227 72.1993C511.845 72.1993 518.954 73.7074 524.556 76.7236C530.301 79.5962 534.897 83.6897 538.345 89.004V74.3537H565.491V186.816ZM538.345 125.414C537.339 117.945 534.107 111.697 528.649 106.67C523.192 101.5 516.226 98.9144 507.751 98.9144C503.012 98.9144 498.703 99.7762 494.825 101.5C490.947 103.223 487.643 105.521 484.914 108.394C482.329 111.267 480.318 114.642 478.882 118.52C477.445 122.398 476.727 126.491 476.727 130.8C476.727 134.965 477.445 138.915 478.882 142.65C480.318 146.384 482.329 149.688 484.914 152.56C487.643 155.433 490.947 157.731 494.825 159.454C498.703 161.178 503.012 162.04 507.751 162.04C511.917 162.04 515.795 161.393 519.385 160.101C522.976 158.664 526.064 156.797 528.649 154.499C531.378 152.057 533.533 149.257 535.113 146.097C536.836 142.793 537.914 139.346 538.345 135.755V125.414Z" fill="black"/>
<path d="M586.533 48.5073L613.679 31.6957V186.816H586.533V48.5073Z" fill="black"/>
<path d="M744.865 186.816H717.719V171.95C714.272 177.264 709.676 181.43 703.931 184.446C698.185 187.319 691.004 188.755 682.386 188.755C674.486 188.755 667.161 187.319 660.411 184.446C653.804 181.43 648.059 177.336 643.175 172.166C638.292 166.851 634.486 160.675 631.757 153.637C629.171 146.456 627.879 138.772 627.879 130.585C627.879 122.254 629.171 114.57 631.757 107.532C634.486 100.351 638.292 94.1746 643.175 89.004C648.059 83.6897 653.804 79.5962 660.411 76.7236C667.161 73.7074 674.558 72.1993 682.602 72.1993C691.219 72.1993 698.329 73.7074 703.931 76.7236C709.676 79.5962 714.272 83.6897 717.719 89.004V74.3537H744.865V186.816ZM717.719 125.414C716.714 117.945 713.482 111.697 708.024 106.67C702.566 101.5 695.6 98.9144 687.126 98.9144C682.386 98.9144 678.077 99.7762 674.199 101.5C670.321 103.223 667.018 105.521 664.289 108.394C661.703 111.267 659.693 114.642 658.256 118.52C656.82 122.398 656.102 126.491 656.102 130.8C656.102 134.965 656.82 138.915 658.256 142.65C659.693 146.384 661.703 149.688 664.289 152.56C667.018 155.433 670.321 157.731 674.199 159.454C678.077 161.178 682.386 162.04 687.126 162.04C691.291 162.04 695.169 161.393 698.76 160.101C702.351 158.664 705.439 156.797 708.024 154.499C710.753 152.057 712.907 149.257 714.487 146.097C716.211 142.793 717.288 139.346 717.719 135.755V125.414Z" fill="black"/>
<path d="M759.014 130.585C759.014 122.254 760.306 114.57 762.892 107.532C765.621 100.351 769.427 94.1746 774.31 89.004C779.194 83.6897 784.939 79.5962 791.546 76.7236C798.296 73.7074 805.693 72.1993 813.737 72.1993C822.354 72.1993 829.464 73.7074 835.066 76.7236C840.667 79.5962 845.263 83.6897 848.854 89.004V48.5073L876 31.6957V186.816H848.854V172.166C845.263 177.336 840.595 181.43 834.85 184.446C829.249 187.319 822.139 188.755 813.521 188.755C805.622 188.755 798.296 187.319 791.546 184.446C784.939 181.43 779.194 177.336 774.31 172.166C769.427 166.851 765.621 160.675 762.892 153.637C760.306 146.456 759.014 138.772 759.014 130.585ZM848.854 124.768C847.705 117.012 844.33 110.764 838.728 106.024C833.127 101.284 826.304 98.9144 818.261 98.9144C813.521 98.9144 809.212 99.7762 805.334 101.5C801.456 103.223 798.153 105.521 795.424 108.394C792.838 111.267 790.828 114.642 789.391 118.52C787.955 122.398 787.237 126.491 787.237 130.8C787.237 134.965 787.955 138.915 789.391 142.65C790.828 146.384 792.838 149.688 795.424 152.56C798.153 155.433 801.456 157.731 805.334 159.454C809.212 161.178 813.521 162.04 818.261 162.04C822.426 162.04 826.232 161.393 829.68 160.101C833.27 158.808 836.358 157.013 838.944 154.715C841.673 152.416 843.827 149.759 845.407 146.743C847.131 143.583 848.28 140.208 848.854 136.617V124.768Z" fill="black"/>
</svg>
