<svg width="469" height="236" viewBox="0 0 469 236" fill="none" xmlns="http://www.w3.org/2000/svg">
<path d="M148.481 70.7105C144.795 71.7635 139.177 75.0979 135.845 78.2569C124.961 88.4353 128.12 97.7365 147.428 110.723C158.658 118.445 161.644 122.306 160.064 127.922C158.132 135.819 139.53 139.505 132.159 133.362C128.474 130.379 129.173 124.587 133.212 123.534C137.251 122.482 137.951 116.866 134.092 115.286C123.908 111.425 118.123 129.677 127.247 136.872C133.386 141.786 141.636 143.014 150.94 140.558C160.064 138.101 166.029 133.187 169.368 125.29C173.227 116.164 169.541 109.319 155.325 100.369C141.989 91.9455 138.477 86.6805 141.989 80.187C144.442 75.6244 148.481 73.8695 157.432 73.8695C162.523 73.8695 163.223 74.3961 162.697 77.7304C162.344 80.3623 160.417 82.2931 156.905 83.3461C149.887 85.6274 149.887 85.6274 152.519 88.7865C159.364 97.0347 174.627 83.6973 168.662 74.3961C167.435 72.4653 158.658 68.4292 156.378 68.7797C155.678 68.9557 152.166 69.8328 148.481 70.7105Z" fill="white"/>
<path d="M334.331 71.4125C332.572 73.1679 331.519 77.2041 331.519 82.6445C331.519 91.2439 331.519 91.2439 326.434 90.3662C323.448 89.6644 319.236 90.3662 316.077 92.121C309.232 95.6313 301.688 110.548 301.688 120.551C301.688 129.326 296.776 136.521 292.211 134.766C289.405 133.713 289.225 131.257 289.751 112.303L290.278 91.2439L285.013 91.5945C282.207 91.7704 277.995 91.4192 275.889 90.7174C270.097 88.7867 260.62 93.7006 256.235 100.896C253.949 104.406 251.316 113.005 250.09 119.849C247.637 134.065 243.772 138.803 239.213 132.66C236.58 129.151 236.754 114.76 239.56 92.121C240.439 85.277 240.086 84.7505 235.001 82.995C232.189 81.9426 229.556 81.2403 229.383 81.4162C229.209 81.5915 228.33 93.174 227.277 107.038C225.697 127.746 224.817 132.66 222.364 134.24C216.22 137.925 214.814 133.187 215.34 111.426L215.867 91.2439L210.075 91.5945C206.916 91.7704 202.357 91.4192 199.898 90.7174C193.76 89.1379 184.629 95.4554 179.891 104.581C177.258 109.67 176.205 114.936 176.205 123.535C176.205 134.065 176.732 135.995 180.417 138.978C186.388 143.892 189.194 143.191 197.619 134.416C203.937 127.746 205.163 127.045 205.163 130.028C205.163 134.24 212.534 142.313 216.393 142.313C217.799 142.313 221.132 140.558 223.764 138.277L228.503 134.24L232.542 138.277C237.633 143.366 240.266 143.366 246.404 138.452C250.616 135.118 251.496 134.942 253.249 137.224C258.514 144.419 267.818 141.962 273.956 131.959L277.821 125.816L279.221 131.432C281.854 141.611 292.037 144.77 299.055 137.75C301.335 135.468 302.214 135.644 306.773 138.978C313.271 143.717 318.01 142.313 324.328 133.538L329.24 126.869L331.346 132.836C335.384 143.717 346.614 145.121 351.7 135.293C355.385 128.273 355.039 124.412 351.174 130.554C349.247 133.713 346.961 135.293 344.682 134.942C341.702 134.416 341.176 132.836 340.65 123.009C340.296 116.69 340.823 102.475 341.876 91.4192C343.282 75.7999 343.282 71.0619 341.523 70.0089C338.543 68.0781 337.311 68.254 334.331 71.4125ZM203.757 106.161C202.884 123.184 192.354 138.803 187.615 130.204C185.156 125.465 185.335 119.849 188.315 110.022C191.474 99.8427 195.866 94.5783 200.604 95.2801C203.937 95.8066 204.284 96.8596 203.757 106.161ZM278.874 103.177C278.695 117.919 271.677 131.783 264.479 131.783C261.846 131.783 261.32 130.379 261.32 122.131C261.32 106.687 267.638 94.9289 275.715 94.9289C278.348 94.9289 278.874 96.3331 278.874 103.177ZM329.766 104.581C329.766 120.201 320.816 135.118 313.971 130.906C311.512 129.326 311.865 116.339 314.671 108.442C317.656 100.194 322.222 94.9289 326.607 94.9289C329.24 94.9289 329.766 96.3331 329.766 104.581Z" fill="white"/>
<path d="M242.021 158.986C224.825 161.442 204.465 166.005 199.9 168.813C195.867 171.095 199.726 170.744 218.328 166.883C244.127 161.618 272.558 159.512 291.333 161.618C300.99 162.671 308.361 162.847 310.114 161.793C319.418 156.528 273.432 154.774 242.021 158.986Z" fill="white"/>
</svg>
