<svg width="38" height="37" viewBox="0 0 38 37" fill="none" xmlns="http://www.w3.org/2000/svg">
<path d="M32.2394 13.291L24.2114 5.39594C21.2555 2.48906 16.4632 2.48906 13.5074 5.39594L5.47938 13.291C2.52355 16.1979 2.52355 20.9109 5.47938 23.8177L13.5074 31.7128C16.4632 34.6197 21.2555 34.6197 24.2114 31.7128L32.2394 23.8177C35.1952 20.9109 35.1952 16.1979 32.2394 13.291Z" fill="#0B3562"/>
<path d="M24.4461 16.3393L21.0865 13.0377C19.8446 11.8173 17.8318 11.818 16.5908 13.0393L13.2336 16.3432C11.9926 17.5645 11.9933 19.544 13.2352 20.7644L16.5948 24.066C17.8366 25.2865 19.8494 25.2858 21.0904 24.0645L24.4476 20.7606C25.6886 19.5393 25.688 17.5598 24.4461 16.3393Z" fill="#2253F5"/>
</svg>
