<svg width="57" height="56" viewBox="0 0 57 56" fill="none" xmlns="http://www.w3.org/2000/svg">
<path d="M35.7592 45.0346C33.9171 46.8388 31.4244 47.8516 28.8262 47.8516C26.2279 47.8516 23.7353 46.8388 21.8931 45.0346L11.4659 34.7673C9.6369 32.9517 8.61063 30.4979 8.61063 27.9406C8.61063 25.3833 9.6369 22.9296 11.4659 21.114L21.8793 10.8604C23.7215 9.05614 26.2141 8.04333 28.8123 8.04333C31.4106 8.04333 33.9032 9.05614 35.7454 10.8604L46.1587 21.114C47.9945 22.9261 49.0254 25.3811 49.0254 27.9406C49.0254 30.5001 47.9945 32.9552 46.1587 34.7673L35.7592 45.0346Z" fill="#FFFDF4"/>
<path opacity="0.2" d="M38.4623 51.6738C35.9062 54.1901 32.4398 55.6036 28.8254 55.6036C25.211 55.6036 21.7446 54.1901 19.1885 51.6738L4.75391 37.5017C2.19846 34.9848 0.762848 31.5716 0.762848 28.0126C0.762848 24.4537 2.19846 21.0405 4.75391 18.5236L19.2162 4.2832C21.7723 1.76695 25.2387 0.353394 28.8531 0.353394C32.4675 0.353394 35.9339 1.76695 38.49 4.2832L52.9523 18.5236C55.5078 21.0405 56.9434 24.4537 56.9434 28.0126C56.9434 31.5716 55.5078 34.9848 52.9523 37.5017L38.4623 51.6738Z" fill="#FFFDF4"/>
<path d="M38.6639 24.0825L32.78 18.2909C30.6136 16.1585 27.1018 16.1591 24.9362 18.2922L19.0543 24.0858C16.8887 26.219 16.8893 29.6769 19.0557 31.8093L24.9396 37.6009C27.106 39.7333 30.6178 39.7327 32.7834 37.5996L38.6653 31.8059C40.8309 29.6728 40.8303 26.2149 38.6639 24.0825Z" fill="url(#paint0_linear_1338_336)"/>
<g style="mix-blend-mode:multiply" opacity="0.5">
<path d="M27.4135 18.2923L33.3065 24.0813C33.8222 24.5885 34.2314 25.1908 34.5105 25.8538C34.7896 26.5168 34.9333 27.2275 34.9333 27.9452C34.9333 28.6629 34.7896 29.3735 34.5105 30.0365C34.2314 30.6995 33.8222 31.3018 33.3065 31.809L27.4135 37.598C27.0414 37.9533 26.6215 38.2565 26.1655 38.4992C27.2148 39.07 28.4237 39.2907 29.6111 39.1283C30.7984 38.9658 31.9004 38.4289 32.7519 37.598L38.6311 31.809C39.1468 31.3018 39.5559 30.6995 39.835 30.0365C40.1142 29.3735 40.2578 28.6629 40.2578 27.9452C40.2578 27.2275 40.1142 26.5168 39.835 25.8538C39.5559 25.1908 39.1468 24.5885 38.6311 24.0813L32.7519 18.2923C31.9004 17.4614 30.7984 16.9245 29.6111 16.7621C28.4237 16.5996 27.2148 16.8203 26.1655 17.3912C26.6244 17.6292 27.0449 17.9329 27.4135 18.2923Z" fill="url(#paint1_linear_1338_336)"/>
</g>
<defs>
<linearGradient id="paint0_linear_1338_336" x1="35.722" y1="21.1867" x2="22.2099" y2="34.914" gradientUnits="userSpaceOnUse">
<stop stop-color="#FA9013"/>
<stop offset="1" stop-color="#FEA800"/>
</linearGradient>
<linearGradient id="paint1_linear_1338_336" x1="40.2578" y1="27.9452" x2="26.1655" y2="27.9452" gradientUnits="userSpaceOnUse">
<stop stop-color="#FA9013"/>
<stop offset="1" stop-color="#FEA800"/>
</linearGradient>
</defs>
</svg>
