<svg width="199" height="70" viewBox="0 0 199 70" fill="none" xmlns="http://www.w3.org/2000/svg">
<path fill-rule="evenodd" clip-rule="evenodd" d="M35.3478 0C36.7787 0 39.2142 0.182688 40.7669 0.426272C42.289 0.669856 44.755 1.27882 46.2163 1.76599C47.708 2.2836 49.5956 2.95346 50.4176 3.31883C51.27 3.68421 53.0357 4.689 54.3753 5.57199C55.7148 6.45498 57.9372 8.19052 59.3376 9.43889C60.7076 10.6873 62.6255 12.7273 63.5997 14.0365C64.5435 15.3154 65.9135 17.4163 66.6137 18.756C67.3139 20.0652 68.2272 22.1662 68.6534 23.4145C69.0796 24.6629 69.6581 26.7334 69.9321 27.9817C70.2974 29.565 70.4801 31.6355 70.4801 34.8325C70.4801 37.4511 70.3278 40.1609 70.0843 41.2266C69.8712 42.2314 69.4145 44.0278 69.0796 45.1849C68.7448 46.3419 67.9837 48.3515 67.4052 49.5998C66.8268 50.8482 65.5786 53.0405 64.6348 54.4715C63.6911 55.9026 61.7427 58.2166 60.3118 59.6477C58.8809 61.0787 56.4759 63.0883 54.9841 64.0626C53.4924 65.0674 51.0873 66.3767 49.6565 67.0161C48.2256 67.6251 45.8205 68.4472 44.3288 68.7821C42.837 69.1475 41.3453 69.5737 41.0408 69.726C40.7668 69.8782 38.2705 70 35.5001 70C32.7297 70 30.4159 69.9087 30.3551 69.7869C30.2942 69.6346 29.5635 69.4215 28.772 69.2692C27.95 69.1475 26.1234 68.6298 24.6925 68.1731C23.2616 67.7164 21.2219 66.8943 20.1259 66.3462C19.0299 65.7982 17.1424 64.6716 15.9247 63.88C14.7374 63.0579 12.8194 61.505 11.6625 60.4393C10.5361 59.3736 9.04435 57.7599 8.34414 56.8769C7.64393 55.9635 6.36529 54.0757 5.51286 52.6446C4.66044 51.2136 3.53401 48.9604 3.01647 47.6207C2.49892 46.281 1.76827 43.6016 1.3725 41.6833C0.946284 39.6433 0.67229 37.0552 0.641846 35.5024C0.641846 34.0409 0.794065 31.7877 0.976728 30.5089C1.15939 29.1997 1.64649 26.9769 2.07271 25.5459C2.46848 24.1148 3.19913 21.9835 3.68623 20.8264C4.17333 19.6694 5.39109 17.4772 6.36529 15.9548C7.40038 14.3715 9.37923 11.9965 11.0232 10.3828C12.6063 8.79948 15.0418 6.75946 16.4727 5.81557C17.9035 4.87168 20.3695 3.56242 21.9525 2.92301C23.5356 2.2836 25.8189 1.49195 26.9758 1.15702C28.1327 0.852545 29.9288 0.45672 30.9335 0.30448C31.9381 0.15224 33.917 0.030448 35.3478 0V0ZM25.6058 6.24184C24.3576 6.66812 22.4396 7.52066 21.3437 8.09917C20.2477 8.70813 18.6037 9.74337 17.6904 10.4132C16.7771 11.1135 15.2549 12.4228 14.3111 13.3362C13.3978 14.2801 12.0887 15.8025 11.419 16.716C10.7492 17.6294 9.775 19.1518 9.25746 20.0652C8.73991 20.9787 7.94837 22.7142 7.49171 23.8713C7.03506 25.0283 6.39573 27.2205 6.0913 28.7429C5.75641 30.3567 5.51286 32.7925 5.51286 34.6803C5.51286 36.4463 5.69553 38.9735 5.96952 40.3132C6.21307 41.6529 6.66973 43.5102 6.97417 44.4237C7.30905 45.3371 8.07015 47.1335 8.67902 48.3819C9.31835 49.6303 10.4143 51.4876 11.1145 52.4924C11.8452 53.4972 13.3674 55.2936 14.5242 56.4811C15.6811 57.6381 17.66 59.2823 18.9082 60.1044C20.1564 60.9265 22.3483 62.114 23.7792 62.7229C25.21 63.3319 27.402 64.0931 28.6502 64.3976C30.4159 64.8543 32.0295 64.9761 35.8045 64.9761C39.5795 64.9761 41.1931 64.8543 42.9588 64.3976C44.207 64.0931 46.399 63.3319 47.8298 62.7229C49.2607 62.114 51.4526 60.9265 52.7008 60.1044C53.949 59.2823 55.9583 57.6381 57.1456 56.4506C58.333 55.2936 60.1291 53.0709 61.1034 51.5789C62.108 50.087 63.4171 47.5903 64.026 46.0983C64.6348 44.6063 65.3655 42.1096 65.6395 40.6177C66.0353 38.5167 66.1266 36.8726 66.0048 33.6146C65.883 30.2044 65.7004 28.8038 65.0611 26.6116C64.6044 25.0892 63.5997 22.5924 62.8082 21.0091C62.0167 19.4258 60.4945 17.0509 59.3985 15.7112C58.3025 14.3715 56.2628 12.3314 54.8319 11.1744C53.4011 10.0174 50.996 8.46455 49.5042 7.7338C48.0125 7.00305 45.5161 6.02871 44.0243 5.57199C41.6802 4.87168 40.5842 4.74989 36.5656 4.65855C33.2168 4.5672 31.2684 4.689 29.868 4.99348C28.772 5.23706 26.854 5.78512 25.6058 6.24184ZM187.719 23.2623L187.872 35.2893H198.222V38.6385H190.612C183.975 38.6385 183.031 38.5776 183.153 38.1818C183.244 37.9382 183.305 34.6498 183.275 30.9047C183.275 24.876 183.335 24.0235 183.762 23.5668C184.157 23.2014 184.736 23.1101 187.719 23.2623ZM77.9692 23.1101L78.0606 28.5602C78.1215 33.5233 78.1824 34.0713 78.7303 34.6498C79.2783 35.2588 79.6437 35.3197 83.0534 35.2893C86.3718 35.2893 86.8589 35.2284 87.4068 34.6803C87.9548 34.1322 88.0157 33.6755 88.0157 29.0474C88.0157 24.876 88.1071 23.9321 88.5028 23.5668C88.8073 23.2623 89.5988 23.1101 92.5823 23.1101V29.0474C92.5823 33.371 92.4605 35.2588 92.1561 35.9896C91.943 36.5072 91.4863 37.177 91.1819 37.4511C90.847 37.7251 90.0555 38.1514 89.3857 38.3645C88.5333 38.669 86.6153 38.7908 83.1447 38.7908C79.8568 38.7603 77.6648 38.6385 76.7515 38.3645C75.9904 38.1209 75.0162 37.5424 73.7071 36.2027L73.6462 29.8391C73.5853 24.5107 73.6462 23.445 74.042 23.3232C74.2551 23.2318 75.2597 23.1405 77.9692 23.1101ZM102.781 23.1101L111.61 34.6803L111.762 29.1692C111.884 24.7542 112.005 23.6277 112.371 23.4145C112.614 23.2623 113.406 23.1101 114.106 23.1101C114.837 23.1101 115.628 23.1709 115.872 23.2623C116.268 23.3841 116.329 24.5411 116.329 38.6385H109.326L104.973 33.0361C102.598 29.9304 100.559 27.4641 100.406 27.5555C100.285 27.6164 100.193 30.1435 100.193 38.6385H97.91C96.0225 38.6385 95.6571 38.5472 95.7789 38.1818C95.8702 37.9382 95.9311 34.6498 95.9007 30.9047C95.9007 24.9369 95.9616 23.993 96.3878 23.5972C96.7836 23.2318 97.5751 23.1101 102.781 23.1101ZM127.562 23.1709C133.895 23.2623 134.564 23.3536 135.873 23.9626C137.061 24.5107 137.396 24.8456 137.67 25.759C137.852 26.3984 137.974 27.7686 137.913 28.8343C137.791 30.5698 137.67 30.8743 136.787 31.6659C136.269 32.1531 135.873 32.6707 135.965 32.8534C136.056 33.0057 136.361 33.1579 136.635 33.1579C136.939 33.1579 137.365 33.4928 137.548 33.9191C137.761 34.3454 137.944 35.5633 137.944 38.6385H133.529L133.468 37.177C133.408 36.2027 133.194 35.5633 132.768 35.137C132.22 34.589 131.672 34.5281 123.939 34.3758V38.6385H121.656C119.769 38.6385 119.403 38.5472 119.525 38.1818C119.616 37.9382 119.677 34.6498 119.647 30.9047C119.647 24.7847 119.677 24.0235 120.164 23.5668C120.652 23.1101 121.443 23.0492 127.562 23.1709ZM123.879 28.9561L123.939 31.0265C131.52 31.0265 132.525 30.9352 132.89 30.5698C133.164 30.3262 133.377 29.5955 133.377 28.9561C133.377 28.3471 133.194 27.5555 132.951 27.2205C132.555 26.6725 132.098 26.6116 128.445 26.4898C126.223 26.4593 124.274 26.4898 124.122 26.642C123.97 26.7638 123.848 27.799 123.879 28.9561ZM149.391 23.1101C153.47 23.1101 157.032 23.1709 157.275 23.2623C157.61 23.3841 157.732 23.8408 157.732 26.4593H145.555V29.1997L156.971 29.3519V32.3967L145.555 32.5489V35.2893L157.884 35.4415L158.037 38.6385H140.988L140.958 31.3615C140.958 24.9674 141.018 23.993 141.445 23.5972C141.871 23.1709 143.028 23.1101 149.391 23.1101ZM173.106 23.2623L181.478 38.6385H176.455L175.085 35.8982H165.343L163.973 38.6385H161.599C159.711 38.6385 159.254 38.5472 159.254 38.1818C159.254 37.9382 159.376 37.6947 159.498 37.6338C159.65 37.6033 161.446 34.4672 163.516 30.6307C165.587 26.8247 167.505 23.5668 167.779 23.4145C168.022 23.2623 169.331 23.1405 173.106 23.2623ZM167.322 32.5489C167.413 32.7316 168.753 32.8534 170.366 32.8534C171.949 32.8534 173.259 32.7621 173.259 32.6098C173.259 32.488 172.619 31.057 171.797 29.4128C171.006 27.799 170.245 26.4593 170.184 26.4593C170.092 26.4593 169.392 27.7686 168.601 29.3519C167.809 30.9352 167.231 32.3662 167.322 32.5489ZM112.371 43.8147V45.6416H105.369L105.521 47.3162L111.914 47.6207L112.066 49.2953H105.369V50.8177L112.523 50.97V52.7969L102.629 52.9491L102.598 48.8691C102.598 45.4589 102.659 44.6977 103.085 44.3019C103.481 43.906 104.395 43.8147 112.371 43.8147ZM118.155 43.8147L120.591 47.0117C121.93 48.7777 123.148 50.2088 123.331 50.2088C123.513 50.2088 123.635 49.0822 123.635 47.3771C123.605 45.2153 123.726 44.4846 124.092 44.1801C124.335 43.9974 124.883 43.8756 126.071 44.1192V52.9491L121.991 52.7969L119.525 49.6912C118.186 47.9861 116.998 46.6464 116.846 46.7073C116.724 46.7986 116.633 48.2297 116.633 52.9491H114.197L114.137 48.7473C114.076 45.4589 114.167 44.4541 114.502 44.1801C114.745 43.9669 115.659 43.8147 118.155 43.8147ZM134.382 43.906C137.822 43.9669 138.035 43.9974 138.583 44.7281C138.918 45.1544 139.192 45.7938 139.161 46.1592C139.161 46.7682 139.009 46.8595 137.791 46.8595C136.787 46.8595 136.421 46.7377 136.421 46.4028C136.421 46.1592 136.117 45.8852 135.721 45.7938C135.356 45.7025 134.29 45.6416 133.377 45.6416C132.372 45.6416 131.429 45.8243 131.002 46.0983C130.454 46.4637 130.333 46.8291 130.333 48.1383C130.333 49.0518 130.515 50.0261 130.759 50.361C131.124 50.8786 131.55 50.97 133.651 50.97C135.143 50.97 136.239 50.8177 136.482 50.6046C136.695 50.3915 136.787 50.0261 136.635 49.7521C136.482 49.4171 135.965 49.2953 134.747 49.2953C133.468 49.2953 133.073 49.204 133.073 48.8386C133.073 48.595 133.347 48.2601 133.682 48.0774C134.016 47.8947 135.386 47.7729 139.161 47.7729V49.5998C139.161 51.0309 139.04 51.5485 138.553 52.0357C138.218 52.3706 137.335 52.736 136.482 52.8273C135.691 52.9491 133.803 52.9796 132.251 52.9187C129.785 52.7969 129.389 52.7055 128.689 52.0357C127.928 51.3354 127.897 51.0918 127.897 48.6864C127.897 46.89 128.049 45.8852 128.384 45.3676C128.628 44.9717 129.298 44.4541 129.815 44.241C130.485 43.9669 131.946 43.8451 134.382 43.906ZM143.576 43.9669V52.7969L140.988 52.9491L140.958 48.8691C140.958 45.398 141.018 44.6977 141.475 44.2714C141.749 43.9974 142.328 43.8147 143.576 43.9669ZM149.665 43.8452L152.1 47.0422C153.44 48.8082 154.627 50.2392 154.749 50.2088C154.901 50.2088 154.992 48.93 154.992 47.3771C154.992 45.5807 155.114 44.4541 155.358 44.1801C155.571 43.9974 156.119 43.8147 157.428 43.8147V52.9491H153.47L150.943 49.7521C149.573 47.9861 148.355 46.5246 148.203 46.555C148.081 46.555 147.99 47.9861 147.99 52.9491H145.555L145.524 48.8691C145.524 45.4589 145.585 44.6977 146.011 44.3019C146.346 43.9669 147.046 43.8147 149.665 43.8452ZM168.996 43.8147V45.6416H161.994L162.147 47.3162L168.692 47.4685V49.2953H161.994V50.8177H165.191C166.957 50.8177 168.601 50.8786 168.844 50.97C169.118 51.0613 169.301 51.4876 169.301 52.9491L159.467 52.7969L159.498 48.6864C159.528 46.0374 159.65 44.4541 159.894 44.2105C160.137 43.9365 161.477 43.8147 168.996 43.8147ZM30.8422 14.6151C30.9944 14.5846 31.0857 14.7673 31.0857 14.9804C31.0857 15.1631 30.6899 15.833 30.2637 16.4115C29.8071 16.99 29.2591 17.9339 29.046 18.482C28.8329 18.9996 28.6502 20.0044 28.6502 20.6742C28.6502 21.3441 28.8633 22.288 29.1069 22.8056C29.4722 23.5059 29.7766 23.719 31.3901 23.719V45.0326L32.1512 45.9461C32.5775 46.4637 33.3386 46.9509 33.917 47.0422C34.5868 47.164 35.3783 47.0117 36.4134 46.555C37.2658 46.1896 38.3009 45.6416 39.61 44.7281V25.6981L38.8489 24.328C38.24 23.2623 38.1487 22.8969 38.4531 22.7447C38.6662 22.6229 39.062 22.5924 39.3055 22.6838C39.5491 22.7751 40.1275 22.9274 40.5842 23.0492C41.2235 23.2318 41.6193 23.0492 42.6239 22.1357C43.3241 21.4963 44.9377 20.2784 46.2467 19.4563C47.5863 18.5733 49.626 17.5685 51.0264 17.1422C53.0053 16.5028 53.4924 16.4419 53.675 16.7464C53.7968 17.0204 53.2184 17.9643 52.2746 19.1518C51.3918 20.2479 50.174 21.8921 48.4387 24.4802L48.4996 34.6194C48.5909 44.3932 48.6214 44.789 49.1998 45.2153C49.5347 45.4589 50.1436 45.6416 50.5698 45.6416C50.996 45.6416 51.9397 45.3371 52.7008 45.0022C53.4619 44.6673 54.5884 43.9365 55.2277 43.4189C55.9583 42.7795 56.4759 42.5663 56.6585 42.749C56.8108 42.9317 56.3541 43.906 55.5017 45.1849C54.7101 46.3723 52.9748 48.4733 51.6049 49.9043C50.2349 51.3354 48.3169 53.0709 45.5465 55.05L40.7973 50.97L35.5001 56.3593L33.369 55.9939C32.2121 55.7808 30.2028 55.2632 28.9546 54.8673C27.7064 54.4411 25.8494 53.6799 24.8447 53.1623C23.8705 52.6142 22.3788 51.5789 21.5263 50.8177C20.613 49.9957 20.0955 49.2953 20.2172 49.0822C20.339 48.8691 20.7652 48.6864 21.1915 48.6864C21.6481 48.6864 22.1352 48.4124 22.4092 48.0165C22.805 47.438 22.8659 45.8547 22.8659 38.5776C22.8659 30.2044 22.8354 29.7782 22.257 29.1997C21.9221 28.8647 21.3437 28.5907 20.9479 28.5907C20.5826 28.5907 19.7301 28.8647 19.0604 29.1692C18.3906 29.5041 16.7771 30.9047 15.4376 32.3054C14.1285 33.706 12.3323 35.8982 11.4799 37.2075C10.6274 38.4863 9.83589 39.552 9.71412 39.552C9.5619 39.552 9.40968 39.278 9.31835 38.943C9.22701 38.6081 9.34879 37.5424 9.59234 36.5985C9.83589 35.6242 10.323 34.0713 10.6579 33.1579C10.9928 32.2445 11.9365 30.5394 12.7585 29.3519C13.5805 28.1949 15.4071 26.0026 16.838 24.4802C18.2688 22.9883 20.3695 20.9787 21.5263 20.0044C22.6832 19.0605 24.5403 17.7207 25.6971 17.0509C26.8236 16.3506 28.3762 15.5285 29.1982 15.224C29.9897 14.8891 30.7204 14.6151 30.8726 14.6151H30.8422Z" fill="white"/>
</svg>
