<svg width="31" height="30" viewBox="0 0 31 30" fill="none" xmlns="http://www.w3.org/2000/svg">
<path opacity="0.2" d="M30.5 15C30.5 17.9667 29.6203 20.8668 27.972 23.3336C26.3238 25.8003 23.9811 27.7229 21.2403 28.8582C18.4994 29.9935 15.4834 30.2906 12.5736 29.7118C9.66393 29.133 6.99119 27.7044 4.8934 25.6066C2.79562 23.5088 1.36701 20.8361 0.788227 17.9264C0.209449 15.0166 0.506499 12.0006 1.64181 9.25975C2.77713 6.51886 4.69971 4.17618 7.16645 2.52796C9.63319 0.879736 12.5333 0 15.5 0C19.4782 0 23.2936 1.58035 26.1066 4.3934C28.9196 7.20644 30.5 11.0218 30.5 15Z" fill="white"/>
<path d="M19.25 15C19.25 15.7417 19.0301 16.4667 18.618 17.0834C18.206 17.7001 17.6203 18.1807 16.9351 18.4645C16.2498 18.7484 15.4958 18.8226 14.7684 18.6779C14.041 18.5332 13.3728 18.1761 12.8484 17.6516C12.3239 17.1272 11.9668 16.459 11.8221 15.7316C11.6774 15.0042 11.7516 14.2502 12.0355 13.5649C12.3193 12.8797 12.7999 12.294 13.4166 11.882C14.0333 11.4699 14.7583 11.25 15.5 11.25C16.4946 11.25 17.4484 11.6451 18.1517 12.3483C18.8549 13.0516 19.25 14.0054 19.25 15Z" fill="white"/>
</svg>
