<svg width="17" height="17" viewBox="0 0 17 17" fill="none" xmlns="http://www.w3.org/2000/svg">
<g clip-path="url(#clip0_3485_1573)">
<path opacity="0.7" d="M1.62695 0.0663033C1.41445 0.165913 0.162695 1.42099 0.0697266 1.62685C-0.0232422 1.82939 -0.0232422 2.15478 0.0697266 2.35732C0.119531 2.47353 0.810156 3.18076 3.14766 5.51826L6.15918 8.5331L5.69434 9.00459C5.43867 9.26689 4.10723 10.6083 2.73594 11.9862C1.36133 13.3642 0.2125 14.5462 0.179297 14.6093C0.0863281 14.7819 0.0929688 15.2103 0.189258 15.3895C0.292188 15.5788 1.61367 16.8837 1.76641 16.9501C1.83613 16.9767 1.97559 16.9999 2.08184 16.9999C2.49688 16.9999 2.25781 17.2124 5.54492 13.9253L8.54981 10.9237L11.4883 13.8655C13.1053 15.4825 14.4865 16.8438 14.5596 16.8937C14.6625 16.9567 14.7488 16.98 14.9348 16.9933C15.3432 17.0198 15.3897 16.9899 16.1766 16.2063C16.9436 15.4427 16.9967 15.363 17 15.0077C17 14.6026 17.1295 14.7487 13.8822 11.5048L10.9238 8.5497L13.8955 5.57802C16.1965 3.27373 16.8805 2.57314 16.9303 2.45693C17.0232 2.25771 17.0232 1.929 16.9336 1.72646C16.8373 1.51396 15.5922 0.288765 15.3564 0.179193C15.1572 0.0862255 14.9248 0.0762653 14.6891 0.152632C14.5397 0.202436 14.2707 0.464741 11.5381 3.19072L8.54981 6.17568L5.56152 3.18408C3.91797 1.54052 2.51348 0.155952 2.44043 0.106148C2.25117 -0.0133839 1.84609 -0.0333061 1.62695 0.0663033Z" fill="white"/>
</g>
<defs>
<clipPath id="clip0_3485_1573">
<rect width="17" height="17" fill="white"/>
</clipPath>
</defs>
</svg>
